<?xml version="1.0" encoding="utf-8"?>
<!-- Generator: Adobe Illustrator 19.1.0, SVG Export Plug-In . SVG Version: 6.00 Build 0)  -->
<svg version="1.1" id="Layer_2" xmlns="http://www.w3.org/2000/svg" xmlns:xlink="http://www.w3.org/1999/xlink" x="0px" y="0px"
	 viewBox="0 0 154 40" enable-background="new 0 0 154 40" xml:space="preserve">
<g>
	<path fill="#492727" d="M73.9,32.4c-1.2,0.3-2.1,0.4-2.8,0.5c-0.7,0.1-1.6,0.1-2.9,0c-0.4-0.2-0.6-0.5-0.5-1c0-0.3,0.6-0.5,1.6-0.7
		c-0.1-0.4-0.1-1-0.1-1.5l0.7-9.9c0-1.1-0.1-1.9-0.3-2.3c-0.3,0.4-0.5,0.7-0.7,1c-0.4,0.7-1,1.9-2,3.5c-1,1.7-1.6,2.9-2,3.7
		c-0.2,0.1-0.4,0.4-0.7,0.8c0,0.4-0.1,0.9-0.3,1.5c-0.3,0.6-0.6,1.4-1,2.5c-0.3,0.3-0.7,0.4-1.2,0.4c-1,0-2.1-1.3-3.1-4l-1.3-4.2
		l-0.8-1.9c-0.3-0.7-0.7-1.3-1.2-1.7c-0.3,1.7-0.4,3.4-0.4,4.9c0,1.3,0.1,3.3,0.4,6c0,0.4,0,0.7,0,1.1c1.3,0.1,2.1,0.3,2.3,0.6
		c0,0,0,0.1,0,0.1c0,0,0,0.1,0,0.1c0,0,0,0.1,0,0.2c0,0.1-0.1,0.1-0.2,0.2c-1.2,0.3-2.1,0.4-2.8,0.5c-0.7,0.1-1.6,0.1-2.9,0
		c-0.4-0.2-0.6-0.5-0.5-1c0-0.4,0.8-0.6,2.2-0.7c0-0.5,0-1.2-0.1-2.1c-0.1-1.2-0.1-2.2,0-3c0.3-5.1,0.4-8.4,0.2-9.9
		c-0.3-0.4-0.9-0.6-1.8-0.7c-0.5-0.2-0.7-0.4-0.6-0.8c0-0.7,1-1,2.9-0.7c0.7,0.4,1.2,0.8,1.4,1.2c1.6,2.2,2.8,4.4,3.6,6.6
		c0.7,1.9,1.3,3.7,2,5.6h0.4c0.3,0,1.6-1.6,3.8-4.8c2-3,3.5-5.3,4.3-6.8c0.3-0.5,0.4-1.2,0.6-2.1c0-0.4,0.2-0.8,0.4-1.3
		c-0.3-0.1-0.6-0.2-0.9-0.3c-0.3-0.1-0.4-0.2-0.5-0.3c-0.1-0.1-0.1-0.2,0-0.2c0-0.1,0.1-0.1,0.2-0.2c0.1-0.1,0.2-0.1,0.2-0.2
		c0.5-0.2,1.2-0.3,2.1-0.4c2,0.1,3.1,0.3,3.1,0.8c0,0.4-0.1,0.7-0.5,1c-0.7,0-1.4,0.1-1.9,0.1c-0.5,1.2-0.8,2.7-1,4.4
		c0,1.6,0.1,2.5,0.1,2.7c0,0.4-0.1,1.4-0.4,3.1c-0.1,0.6-0.2,1.7-0.3,3c-0.1,2-0.1,3.6,0,4.6c0.2,0.3,0.3,0.6,0.4,0.8
		c1.3,0,2.2,0.2,2.7,0.4c0.1,0,0.1,0.1,0.2,0.2c0.1,0.1,0.1,0.1,0.2,0.2c0,0.1,0,0.1,0,0.2C74.3,32.2,74.1,32.3,73.9,32.4z"/>
	<path fill="#492727" d="M90.2,13.2c0.1-0.4,0.6-0.5,1.2-0.4c0.4,0.2,0.5,1,0.5,2.5c0,0-0.1,0.6-0.2,1.9c0,0.4-0.3,0.9-0.7,1.3
		c-0.1,0-0.3-0.1-0.6-0.4c-0.2-0.2-0.4-0.5-0.3-0.8c0-1-0.1-1.9,0-2.6h-1c-4.5,0-7.1,0.2-7.9,0.5c-1,1.6-1.5,4.1-1.6,7.5
		c3.1-0.1,5.1-0.1,6.1-0.1c0-0.4,0.1-0.9,0.1-1.6c0-0.4,0.3-0.9,0.7-1.3c0.1,0,0.3,0,0.6,0.1c0.2,0.1,0.4,0.4,0.4,1
		c0.1,2.6,0,4.2-0.1,5c-0.1,0.5-0.5,0.6-1.2,0.2c-0.3-0.5-0.5-1.1-0.6-1.7h-0.2c-1.3,0.1-2.4,0.2-3.3,0.2s-1.7,0.2-2.4,0.3
		c0.1,2.2,0.2,3.9,0.4,5.3c2.5,0,5.2-0.1,8.2-0.2c1.1-0.1,2.1-0.2,2.8-0.5c0-0.3,0.1-1.1,0.2-2.4c0.2-0.6,0.4-1,0.7-1.2
		c0.3,0,0.5,0.1,0.7,0.2c0.1,0.1,0.3,0.4,0.5,0.7c0.1,2.4,0.1,4-0.1,4.9c-0.2,0.4-0.6,0.6-1.4,0.4c-0.1-0.3-0.3-0.6-0.4-1
		c-0.4,0.2-1,0.4-1.7,0.6c-1.3,0.3-3.3,0.6-6,0.8c-3.8,0.1-6.3,0.1-7.6,0c-0.4-0.3-0.6-0.7-0.6-1.2c0-0.5,0.8-0.8,2.3-0.9
		c-0.3-2.5-0.5-4.2-0.4-4.8c-0.7-0.3-1.2-0.5-1.2-0.7c0-0.5,0.2-1,0.6-1.4l0.6-0.6c0.1-0.3,0.3-1.3,0.6-3.3c0.3-1.4,0.6-2.5,0.9-3.4
		c0-0.2,0.1-0.5,0.2-0.9c-1.5,0.1-2.4,0.1-2.7,0c-0.6-0.2-0.7-0.5-0.4-1c0.2-0.6,1.1-1,2.7-1c2.3-0.2,5-0.3,8-0.4
		C87.3,13,88.6,13.1,90.2,13.2z"/>
	<path fill="#492727" d="M107.8,27.7c0.1-0.4,0.6-0.5,1.2-0.4c0.3,0.8,0.5,1.6,0.5,2.5c0,0-0.1,0.6-0.2,1.9c0,0.4-0.3,0.9-0.7,1.3
		c-0.1,0-0.4-0.1-0.6-0.4c-0.2-0.2-0.3-0.3-0.3-0.5c0,0-0.1,0.1-0.2,0.1c-0.3,0.1-0.5,0.2-0.7,0.2c-0.1,0-0.5-0.1-1-0.2
		c-0.6-0.2-1-0.2-1.1-0.2c-0.1,0-0.9,0.1-2.3,0.4c-1.4,0.3-2.2,0.4-2.3,0.4c-0.1,0-0.3,0-0.6-0.1c-0.3-0.1-0.5-0.1-0.6-0.1
		s-0.6,0.1-1.3,0.4s-1.2,0.4-1.3,0.4c-0.2,0-0.4-0.2-0.7-0.5c-0.3-0.4-0.5-0.6-0.5-0.7c0-0.2,0.7-1.4,2.2-3.8c1.5-2.4,2.8-4.4,4-6.2
		c0.7-1,2.7-3.3,6.2-7c0-0.3-0.1-0.4-0.4-0.5c-1.6-0.3-3.3-0.4-4.9-0.4c-0.1,0-0.4,0-0.9,0.1c-0.4,0.1-0.9,0.2-1.4,0.4l-1,0.5
		c-0.2-0.1-0.4-0.2-0.6-0.3c0,1.3,0,2.2-0.1,2.8c-0.2,0.4-0.6,0.6-1.4,0.4c-0.4-0.9-0.6-2-0.5-3.3c0-0.6,0.1-1.2,0.2-1.7
		c0.2-0.6,0.4-1,0.7-1.2c0.3,0,0.5,0.1,0.7,0.2s0.3,0.4,0.5,0.7v0.2c0.2-0.2,0.4-0.3,0.5-0.3l8.9,0.2c0.5,0,0.9,0.1,1.4,0.1
		c0.6,0.1,1,0.2,1.2,0.4c-0.1,0.4-0.5,1.1-1.2,1.9c-0.8,1-1.3,1.5-1.3,1.6c0,0.2-0.1,0.6-0.3,1c-0.3,0.1-0.6,0.4-1.1,0.7
		c-2.2,2.5-4.1,5.4-5.8,8.7c0,0.1-0.6,0.9-1.7,2.6c0.2,0.3,0.8,0.4,1.9,0.3c0.1,0,1.2,0,3.3,0h3.3c0.2,0,0.4,0,0.5,0.1
		C107.6,29.1,107.7,28.2,107.8,27.7z"/>
	<path fill="#492727" d="M127.1,13.2c0.1-0.4,0.6-0.5,1.2-0.4c0.4,0.2,0.5,1,0.5,2.5c0,0-0.1,0.6-0.2,1.9c0,0.4-0.3,0.9-0.7,1.3
		c-0.1,0-0.3-0.1-0.6-0.4c-0.2-0.2-0.4-0.5-0.3-0.8c0-1-0.1-1.9,0-2.6h-1c-4.5,0-7.1,0.2-7.9,0.5c-1,1.6-1.5,4.1-1.6,7.5
		c3.1-0.1,5.1-0.1,6.1-0.1c0-0.4,0.1-0.9,0.1-1.6c0-0.4,0.3-0.9,0.7-1.3c0.1,0,0.3,0,0.6,0.1c0.2,0.1,0.4,0.4,0.4,1
		c0.1,2.6,0,4.2-0.1,5c-0.1,0.5-0.5,0.6-1.2,0.2c-0.3-0.5-0.5-1.1-0.6-1.7h-0.2c-1.3,0.1-2.4,0.2-3.3,0.2s-1.7,0.2-2.4,0.3
		c0.1,2.2,0.2,3.9,0.4,5.3c2.5,0,5.2-0.1,8.2-0.2c1.1-0.1,2.1-0.2,2.8-0.5c0-0.3,0.1-1.1,0.2-2.4c0.2-0.6,0.4-1,0.7-1.2
		c0.3,0,0.5,0.1,0.7,0.2c0.1,0.1,0.3,0.4,0.5,0.7c0.1,2.4,0.1,4-0.1,4.9c-0.2,0.4-0.6,0.6-1.4,0.4c-0.1-0.3-0.3-0.6-0.4-1
		c-0.4,0.2-1,0.4-1.7,0.6c-1.3,0.3-3.3,0.6-6,0.8c-3.8,0.1-6.3,0.1-7.6,0c-0.4-0.3-0.6-0.7-0.6-1.2c0-0.5,0.8-0.8,2.3-0.9
		c-0.3-2.5-0.5-4.2-0.4-4.8c-0.7-0.3-1.2-0.5-1.2-0.7c0-0.5,0.2-1,0.6-1.4l0.6-0.6c0.1-0.3,0.3-1.3,0.6-3.3c0.3-1.4,0.6-2.5,0.9-3.4
		c0-0.2,0.1-0.5,0.2-0.9c-1.5,0.1-2.4,0.1-2.7,0c-0.6-0.2-0.7-0.5-0.4-1c0.2-0.6,1.1-1,2.7-1c2.3-0.2,5-0.3,8-0.4
		C124.2,13,125.5,13.1,127.1,13.2z"/>
	<path fill="#492727" d="M137.4,32.5c-1.2,0.3-2.1,0.4-2.8,0.5c-0.7,0.1-1.6,0.1-2.9,0c-0.4-0.2-0.6-0.5-0.5-1
		c0-0.4,0.6-0.6,1.9-0.7c0-0.2,0-0.4,0-0.6c0-0.6,0.1-1.4,0.2-2.3c0.1-0.9,0.2-1.6,0.2-2c0,0-0.2-0.2-0.5-0.4s-0.4-0.5-0.4-0.7
		c0-0.4,0.1-0.7,0.4-0.9c0.3-0.2,0.5-0.4,0.7-0.6c0.1-3.2,0.2-5.1,0.2-5.7c0-0.1-0.1-0.6-0.2-1.3c-0.1-0.7-0.2-1.4-0.2-1.9
		c0-0.2,0-0.5,0-0.7c-0.6-0.1-1.3-0.2-2.1-0.4c-0.3-0.1-0.4-0.2-0.5-0.3c-0.1-0.1-0.1-0.2,0-0.2c0-0.1,0.1-0.1,0.2-0.2
		c0.1-0.1,0.2-0.1,0.2-0.2c0.6-0.3,1.6-0.5,3.1-0.4c2,0.1,3.1,0.3,3.1,0.8c0,0.4-0.1,0.7-0.5,1c-0.7,0-1.1,0-1.3,0
		c0,0.6,0,1.4,0,2.2c0,2.3,0.1,3.7,0.1,4.1c0,0.5,0,0.9-0.1,1.3c0.6,0,1.2-0.2,1.9-0.6c0.5-0.2,1.2-0.6,2.1-1.2
		c1.2-0.6,3.2-2.3,6.3-5.2c-0.4,0-0.8-0.1-1.3-0.1c-0.8-0.4-1-0.7-0.5-1.1c0.4-0.4,1.6-0.6,3.6-0.7c1.6,0,2.5,0.1,2.8,0.5
		c0.1,0.2,0.1,0.3,0.1,0.3c0,0-0.1,0.2-0.3,0.4c-0.9,0.2-1.7,0.4-2.4,0.5l0,0c-0.1,0.2-0.3,0.5-0.7,0.8c-1.7,1.5-3.5,3.2-5.4,5.1
		c0.2,0.4,0.6,1.1,1.2,2c0.3,0.5,0.7,1.1,1.3,1.9c2.9,3.3,4.5,5.4,4.8,6.2c1,0,1.8,0.2,2.2,0.4c0.1,0,0.1,0.1,0.2,0.2
		c0.1,0.1,0.1,0.1,0.2,0.2c0,0.1,0,0.1,0,0.2s-0.2,0.2-0.5,0.3c-1.2,0.3-2.1,0.4-2.8,0.5c-0.7,0.1-1.6,0.1-2.9,0
		c-0.4-0.2-0.6-0.5-0.5-1c0-0.3,0.4-0.5,1.1-0.6c-0.7-0.9-1.7-2.1-2.9-3.8c-2.3-3.2-3.6-4.9-3.8-4.9c-0.3,0-0.9,0.3-1.9,0.9
		c-1.1,0.7-1.9,1.4-2.3,2c-0.2,0.3-0.4,1.2-0.6,2.8c0,0.1,0,0.2,0.2,0.4c0.1,0.2,0.2,0.4,0.3,0.5c0.1,0.4,0.1,1,0,1.8
		c0,0.2,0,0.4,0,0.5c1.3,0.1,2,0.3,2.2,0.6c0,0,0,0.1,0,0.1c0,0,0,0.1,0,0.1s0,0.1,0,0.2C137.5,32.4,137.5,32.5,137.4,32.5z"/>
</g>
<path fill="#492727" d="M85.7,4.4c-0.1,0.7-0.3,1.7-0.5,2.9c-0.3,1.2-0.5,2.2-0.7,3.1h1.5c0.4-0.9,0.8-1.9,1.2-3
	c0.4-1.1,0.7-2,0.9-2.8l-0.2-0.3H85.7z"/>
<g>
	<path fill-rule="evenodd" clip-rule="evenodd" fill="#492727" d="M2.1,33.5c2,1.6,4.8,2.7,7.2,4.1c0.5,0.3,1.9,1.4,2.5,1.4
		c0.2,0,0.7-0.3,1.1-0.5c2-1,3.7-2.1,5.5-3.1c1.3-0.7,2.1-1.4,3.5-1.8c1.3,0.8,2.8,1.8,4.6,2.6c0.7,0.4,1.6,0.7,2.5,1.2
		c0.4,0.3,1.8,1.4,2.3,1.4c0.3,0,0.9-0.4,1.3-0.7c0.5-0.3,1-0.5,1.3-0.7c2.5-1.5,5.2-2.9,7.3-4.6c-0.1-1.8,0.3-3.4,0.2-5.2
		c0-0.7-0.2-1.5-0.3-2.4c-0.1-0.8,0.1-1.9-0.1-2.6c-0.2-0.8-1.6-1.3-2.2-1.7c-1.9-1.1-3.1-1.9-5.1-2.9c-0.8-0.4-2.5-0.7-2.7-1.3
		c-0.2-0.6,0.1-1.7,0.1-2.4c0.1-1.9-0.1-3.1-0.2-4.8c-0.1-0.8,0.1-1.8-0.1-2.5c-0.2-0.6-1.2-1.1-2-1.6c-1.6-1-3-1.8-4.5-2.6
		c-0.8-0.4-1.6-0.7-2.5-1.1c-0.5-0.2-0.9-0.6-1.3-0.7c-0.1,0-0.7,0.3-0.8,0.4C19.4,1.6,19,1.9,18.8,2c-1.7,1-4.4,2.1-6.2,3.4
		C12,5.9,11,6.6,10.8,7c-0.2,0.5-0.1,1.4-0.2,2.2c-0.1,2.7,0.1,5.9,0,8.1c-2.3,1.4-4.8,2.4-7.1,3.9c-0.6,0.4-1.8,1.1-2,1.7
		c-0.3,0.7-0.2,1.8-0.2,2.7C1.4,28.4,1.9,30.9,2.1,33.5z"/>
	<path fill-rule="evenodd" clip-rule="evenodd" fill="#FFFFFF" d="M20.5,2.1c3.5,1.5,6.5,3.4,9.4,5.5c-0.1,3,0,6.4,0.4,9.2
		c-1.1,0.4-2,1.1-3.1,1.7c-2.1,1.2-4.2,2.2-6.1,3.5c-3-1.4-5.7-3.2-8.7-4.6c-0.4-2.4-0.5-5.1-0.5-8.2c0-0.6-0.1-1.3,0.1-1.7
		c0.2-0.5,1.4-1.1,2-1.4C16.1,4.6,18.5,3.4,20.5,2.1z M29.3,8.5c0-0.3,0.2-0.6,0.1-0.8c-0.2-0.5-1.6-1.1-2-1.4
		C26.7,5.8,26,5.4,25.3,5c-1.7-0.9-2.9-1.6-4.6-2.2c-0.5-0.2-1.1,0.4-1.4,0.6c-1.8,0.9-3.3,1.8-4.9,2.9c-0.4,0.3-1.6,1-1.7,1.3
		c-0.2,0.5-0.1,1.6-0.1,2.3c-0.2,2.6,0,4.7,0.4,6.9c1,0.3,1.6,0.9,2.5,1.4c1.2,0.7,2.5,1.2,3.7,1.9c0.6,0.4,1.2,1,1.8,1
		c0.6,0,1.7-0.8,2.3-1.1c2.3-1.2,4.6-2.3,6.5-3.8C29.7,13.7,29.2,10.7,29.3,8.5z"/>
	<path fill-rule="evenodd" clip-rule="evenodd" fill="#FFA31D" d="M28.7,8.2c0.1,2.4,0,5.1,0.2,7.6c-2.6,1.5-5.4,2.9-7.7,4.6
		c-2.6-1.4-5.1-2.8-7.6-4.2c-0.2-2.2-0.1-4.8-0.2-6.8c0-0.4-0.2-0.9-0.1-1.3c0.1-0.4,1.3-0.8,1.8-1.1c1.3-0.8,2.3-1.5,3.6-2.3
		c0.7-0.4,1.5-0.9,2-1.1C23.3,5.2,26.1,6.6,28.7,8.2z M21.5,5.3C20.3,5,21.7,6.5,21.5,5.3L21.5,5.3z M22.3,5.8
		c0.2,0.4,1,0.3,0.8-0.4C22.8,5.1,22.2,5.3,22.3,5.8z M19.5,5.5c-1.2,0.5-2.5,0.9-3.5,2.2c-1,1.3-1.7,3.5-1.4,5.4
		c0.1,0.4,0.3,1,0.4,1.6c0.5,1.9,1.5,2.8,3.4,3.3c-0.5-0.9-1.4-1-2-1.8c-1.7-1.9-1.3-6.1,0.2-8C17,7.5,17.7,7,18.3,6.7
		c0.6-0.4,1.4-0.6,2-1.2C20,5.2,19.7,5.4,19.5,5.5z M25.6,7.4c0.6,0.1,0.6,0.6,1.1,0.7C26.8,7.6,25.9,6.7,25.6,7.4z M28,9.6
		c0,0.1,0,0.1-0.1,0.2c-0.1,2.8-0.5,5.1-2,6.5c-1,1-2.5,1.4-3.8,2.2c1.8,0.2,3.5-0.7,4.4-1.9c0.9-1.1,1.6-2.9,1.7-4.7
		c0.1-0.8,0.1-1.7-0.2-2.2C28.1,9.6,28.1,9.6,28,9.6z"/>
	<path fill-rule="evenodd" clip-rule="evenodd" fill="#FFA31D" d="M30.7,17.7c3.5,1.5,6.5,3.4,9.4,5.5c-0.1,3,0,6.4,0.4,9.2
		c-1.6,0.7-3,1.8-4.5,2.7c-1.5,0.9-3.2,1.5-4.7,2.5c-3-1.4-5.7-3.2-8.7-4.6c-0.5-2.4-0.4-5.1-0.5-8.2c0-0.6-0.2-1.2-0.1-1.6
		c0.2-0.5,1.4-1.1,2-1.5c0.8-0.5,1.6-0.8,2.2-1.2C27.9,19.4,29.2,18.6,30.7,17.7z M28,19.6c-1.3,0.8-2.4,1.5-3.7,2.3
		c-0.5,0.4-1.5,1.1-1.6,1.3c-0.2,0.5,0,1.5,0,2.2c0,0.9,0.1,1.7,0.1,2.3c0.1,1.2,0,3.4,0.4,4.4c0.3,0.7,2,1.4,2.8,1.9
		c1.1,0.6,2,1.4,2.9,1.8c0.1,0.1,0.5,0.1,0.7,0.2c0.6,0.3,1.1,1,1.6,1c0.6,0,1.7-0.8,2.2-1.1c2.3-1.3,4.3-2.4,6.2-4
		c0-3,0-6.1-0.3-8.8c-2.8-1.7-5.5-3.5-8.6-4.8c0,0-0.1,0-0.1,0.1C29.5,18.5,29,19.1,28,19.6z"/>
	<path fill-rule="evenodd" clip-rule="evenodd" fill="#FFFFFF" d="M20.6,23.4c-0.1,2.5,0,5.4,0.1,7.7c0,0.4,0.2,0.9,0.1,1.3
		c-0.2,0.6-2.3,1.6-2.9,1.9c-2.1,1.2-4.2,2.2-6.2,3.5c-2.9-1.5-5.7-3.1-8.6-4.6c-0.5-2.5-0.4-5.1-0.5-8.1c0-0.6-0.2-1.3-0.1-1.7
		c0.1-0.5,1.5-1.2,2-1.5c0.8-0.5,1.6-0.8,2.2-1.2c1.5-0.9,2.9-1.8,4.4-2.5c0.6-0.3,2,0.7,2.8,1.1C16.1,20.5,18.6,21.9,20.6,23.4z
		 M13.7,19.8c-0.6-0.3-2-1.3-2.5-1c-2.5,1.7-5.7,3.1-8.1,4.7c-0.3,3,0.1,6,0.3,8.9c1.8,1.3,3.9,2.4,5.9,3.6c0.5,0.3,1.6,1,2.2,1
		c0.3,0,0.7-0.3,1.1-0.5c2.8-1.3,5.4-2.9,7.7-4.5c0-2.6,0-5.7-0.3-8.3C18.1,22.4,15.8,21,13.7,19.8z"/>
	<path fill-rule="evenodd" clip-rule="evenodd" fill="#FFA31D" d="M38.8,23.6c0,1.9,0,3.8,0.1,5.7c0,0.5,0.2,1.5,0.1,1.8
		c-0.1,0.3-1.2,0.8-1.7,1.1c-0.7,0.4-1.2,0.7-1.7,1c-1.7,1-2.7,2-4.5,2.7c-2-1.4-4.6-2.8-6.8-4.3c-0.5-2.3-0.6-5.2-0.5-8.1
		c2.3-1.6,4.8-3.3,7.2-4.6C33.6,20.4,36,22.2,38.8,23.6z M28.6,20.8c-1.2,0.5-2.1,1.2-2.7,2c-1,1.3-1.8,4.3-1.4,6.1
		c0.7,2.7,3.3,4.7,6.4,4.9c1.4,0.1,2.3,0.1,2.8-0.9c-1.6-0.2-3,0-4.3-0.2c-1-0.2-1.8-0.8-2.5-1.5c-0.9-0.9-1.7-1.8-1.8-3.1
		c-0.3-3.1,1.1-5.8,3.4-6.8c0.9-0.4,1.9-0.5,2.8-0.8C30.5,20,29.4,20.5,28.6,20.8z M34.3,22.1c0.3,0.4,0.9,0.9,1.4,1
		C35.7,22.4,34.8,21.7,34.3,22.1z M37,24.5c0.2-0.1,0.3-0.3,0.2-0.5C36.8,23.2,36.1,24.5,37,24.5z M26.9,25.6c0.3,0,0.4-0.1,0.5-0.2
		c0-0.1,0-0.3,0-0.4C27,24.5,26.5,25.2,26.9,25.6z M37.7,25.3c0,0.1-0.1,0.1-0.1,0.2c-0.1,0.1-0.1,0.4-0.1,0.5
		c-0.1,1.6-0.2,2.9-0.8,4c-0.4,0.8-1,1.4-1.5,2.1c-0.1,0.2-0.4,0.4-0.4,0.7c1.9-0.6,3.1-2.7,3.2-5.2c0.1-0.8,0.1-1.9-0.3-2.3
		C37.8,25.3,37.8,25.3,37.7,25.3z"/>
	<path fill-rule="evenodd" clip-rule="evenodd" fill="#FFA31D" d="M19.5,24.2c-0.2,2.3,0.1,4.9,0,7.1c-2.6,1.6-5.5,3.2-7.7,4.9
		c-2.5-1.4-5-2.9-7.6-4.2c-0.1-2.6-0.2-5.3-0.4-8C4.7,23.2,6,22.8,7,22.2c0.1,0.2-0.2,0.4-0.3,0.5c-1.5,1.7-3,5.5-1.4,8.4
		c1,1.8,2.3,2.8,4.9,3.1c0.8,0.1,2,0.3,2.5-0.6c-0.6-0.2-1.1,0.3-1.6,0.2c-0.5,0-1.4-0.4-2-0.5c-2-0.6-3.5-2.1-3.8-4.6
		C5,26.1,6,24,7.4,22.6c1.1-1.1,2.5-1.8,4.6-1.8c-0.2-0.6-1.2-0.4-1.8-0.3c0.5-0.4,1-0.6,1.6-0.9C14.3,21.1,16.9,22.7,19.5,24.2z
		 M13,21.8c0.2,0.1,0.5,0,0.6-0.1c0-0.1,0-0.2,0-0.3C13.4,21.1,12.7,21.4,13,21.8z M17.6,30.7c1.4-2.8,0.4-7.1-1.8-8.4
		c-0.1,0-0.1,0-0.2,0c-0.1,0.6,0.6,1.4,0.8,2.2c0.2,0.7,0.6,1.4,0.7,2.1c0.3,1.6,0.1,3.4-0.5,4.3c-0.5,0.8-1.5,1.2-2.2,2.1
		C15.9,33.2,17.1,31.7,17.6,30.7z"/>
</g>
</svg>
