<?xml version="1.0" encoding="utf-8"?>
<!-- Generator: Adobe Illustrator 19.1.0, SVG Export Plug-In . SVG Version: 6.00 Build 0)  -->
<svg version="1.1" id="Layer_2" xmlns="http://www.w3.org/2000/svg" xmlns:xlink="http://www.w3.org/1999/xlink" x="0px" y="0px"
	 viewBox="0 0 295.2 40" enable-background="new 0 0 295.2 40" xml:space="preserve">
<g>
	<path fill="#492727" d="M73.9,32.4c-1.2,0.3-2.1,0.4-2.8,0.5c-0.7,0.1-1.6,0.1-2.9,0c-0.4-0.2-0.6-0.5-0.5-1c0-0.3,0.6-0.5,1.6-0.7
		c-0.1-0.4-0.1-1-0.1-1.5l0.7-9.9c0-1.1-0.1-1.9-0.3-2.3c-0.3,0.4-0.5,0.7-0.7,1c-0.4,0.7-1,1.9-2,3.5c-1,1.7-1.6,2.9-2,3.7
		c-0.2,0.1-0.4,0.4-0.7,0.8c0,0.4-0.1,0.9-0.3,1.5c-0.3,0.6-0.6,1.4-1,2.5c-0.3,0.3-0.7,0.4-1.2,0.4c-1,0-2.1-1.3-3.1-4l-1.3-4.2
		l-0.8-1.9c-0.3-0.7-0.7-1.3-1.2-1.7c-0.3,1.7-0.4,3.4-0.4,4.9c0,1.3,0.1,3.3,0.4,6c0,0.4,0,0.7,0,1.1c1.3,0.1,2.1,0.3,2.3,0.6
		c0,0,0,0.1,0,0.1c0,0,0,0.1,0,0.1c0,0,0,0.1,0,0.2c0,0.1-0.1,0.1-0.2,0.2c-1.2,0.3-2.1,0.4-2.8,0.5c-0.7,0.1-1.6,0.1-2.9,0
		c-0.4-0.2-0.6-0.5-0.5-1c0-0.4,0.8-0.6,2.2-0.7c0-0.5,0-1.2-0.1-2.1c-0.1-1.2-0.1-2.2,0-3c0.3-5.1,0.4-8.4,0.2-9.9
		c-0.3-0.4-0.9-0.6-1.8-0.7c-0.5-0.2-0.7-0.4-0.6-0.8c0-0.7,1-1,2.9-0.7c0.7,0.4,1.2,0.8,1.4,1.2c1.6,2.2,2.8,4.4,3.6,6.6
		c0.7,1.9,1.3,3.7,2,5.6h0.4c0.3,0,1.6-1.6,3.8-4.8c2-3,3.5-5.3,4.3-6.8c0.3-0.5,0.4-1.2,0.6-2.1c0-0.4,0.2-0.8,0.4-1.3
		c-0.3-0.1-0.6-0.2-0.9-0.3c-0.3-0.1-0.4-0.2-0.5-0.3c-0.1-0.1-0.1-0.2,0-0.2c0-0.1,0.1-0.1,0.2-0.2c0.1-0.1,0.2-0.1,0.2-0.2
		c0.5-0.2,1.2-0.3,2.1-0.4c2,0.1,3.1,0.3,3.1,0.8c0,0.4-0.1,0.7-0.5,1c-0.7,0-1.4,0.1-1.9,0.1c-0.5,1.2-0.8,2.7-1,4.4
		c0,1.6,0.1,2.5,0.1,2.7c0,0.4-0.1,1.4-0.4,3.1c-0.1,0.6-0.2,1.7-0.3,3c-0.1,2-0.1,3.6,0,4.6c0.2,0.3,0.3,0.6,0.4,0.8
		c1.3,0,2.2,0.2,2.7,0.4c0.1,0,0.1,0.1,0.2,0.2c0.1,0.1,0.1,0.1,0.2,0.2c0,0.1,0,0.1,0,0.2C74.3,32.2,74.1,32.3,73.9,32.4z"/>
	<path fill="#492727" d="M90.2,13.2c0.1-0.4,0.6-0.5,1.2-0.4c0.4,0.2,0.5,1,0.5,2.5c0,0-0.1,0.6-0.2,1.9c0,0.4-0.3,0.9-0.7,1.3
		c-0.1,0-0.3-0.1-0.6-0.4c-0.2-0.2-0.4-0.5-0.3-0.8c0-1-0.1-1.9,0-2.6h-1c-4.5,0-7.1,0.2-7.9,0.5c-1,1.6-1.5,4.1-1.6,7.5
		c3.1-0.1,5.1-0.1,6.1-0.1c0-0.4,0.1-0.9,0.1-1.6c0-0.4,0.3-0.9,0.7-1.3c0.1,0,0.3,0,0.6,0.1c0.2,0.1,0.4,0.4,0.4,1
		c0.1,2.6,0,4.2-0.1,5c-0.1,0.5-0.5,0.6-1.2,0.2c-0.3-0.5-0.5-1.1-0.6-1.7h-0.2c-1.3,0.1-2.4,0.2-3.3,0.2s-1.7,0.2-2.4,0.3
		c0.1,2.2,0.2,3.9,0.4,5.3c2.5,0,5.2-0.1,8.2-0.2c1.1-0.1,2.1-0.2,2.8-0.5c0-0.3,0.1-1.1,0.2-2.4c0.2-0.6,0.4-1,0.7-1.2
		c0.3,0,0.5,0.1,0.7,0.2c0.1,0.1,0.3,0.4,0.5,0.7c0.1,2.4,0.1,4-0.1,4.9c-0.2,0.4-0.6,0.6-1.4,0.4c-0.1-0.3-0.3-0.6-0.4-1
		c-0.4,0.2-1,0.4-1.7,0.6c-1.3,0.3-3.3,0.6-6,0.8c-3.8,0.1-6.3,0.1-7.6,0c-0.4-0.3-0.6-0.7-0.6-1.2c0-0.5,0.8-0.8,2.3-0.9
		c-0.3-2.5-0.5-4.2-0.4-4.8c-0.7-0.3-1.2-0.5-1.2-0.7c0-0.5,0.2-1,0.6-1.4l0.6-0.6c0.1-0.3,0.3-1.3,0.6-3.3c0.3-1.4,0.6-2.5,0.9-3.4
		c0-0.2,0.1-0.5,0.2-0.9c-1.5,0.1-2.4,0.1-2.7,0c-0.6-0.2-0.7-0.5-0.4-1c0.2-0.6,1.1-1,2.7-1c2.3-0.2,5-0.3,8-0.4
		C87.3,13,88.6,13.1,90.2,13.2z"/>
	<path fill="#492727" d="M107.8,27.7c0.1-0.4,0.6-0.5,1.2-0.4c0.3,0.8,0.5,1.6,0.5,2.5c0,0-0.1,0.6-0.2,1.9c0,0.4-0.3,0.9-0.7,1.3
		c-0.1,0-0.4-0.1-0.6-0.4c-0.2-0.2-0.3-0.3-0.3-0.5c0,0-0.1,0.1-0.2,0.1c-0.3,0.1-0.5,0.2-0.7,0.2c-0.1,0-0.5-0.1-1-0.2
		c-0.6-0.2-1-0.2-1.1-0.2c-0.1,0-0.9,0.1-2.3,0.4c-1.4,0.3-2.2,0.4-2.3,0.4c-0.1,0-0.3,0-0.6-0.1c-0.3-0.1-0.5-0.1-0.6-0.1
		s-0.6,0.1-1.3,0.4s-1.2,0.4-1.3,0.4c-0.2,0-0.4-0.2-0.7-0.5c-0.3-0.4-0.5-0.6-0.5-0.7c0-0.2,0.7-1.4,2.2-3.8c1.5-2.4,2.8-4.4,4-6.2
		c0.7-1,2.7-3.3,6.2-7c0-0.3-0.1-0.4-0.4-0.5c-1.6-0.3-3.3-0.4-4.9-0.4c-0.1,0-0.4,0-0.9,0.1c-0.4,0.1-0.9,0.2-1.4,0.4l-1,0.5
		c-0.2-0.1-0.4-0.2-0.6-0.3c0,1.3,0,2.2-0.1,2.8c-0.2,0.4-0.6,0.6-1.4,0.4c-0.4-0.9-0.6-2-0.5-3.3c0-0.6,0.1-1.2,0.2-1.7
		c0.2-0.6,0.4-1,0.7-1.2c0.3,0,0.5,0.1,0.7,0.2s0.3,0.4,0.5,0.7v0.2c0.2-0.2,0.4-0.3,0.5-0.3l8.9,0.2c0.5,0,0.9,0.1,1.4,0.1
		c0.6,0.1,1,0.2,1.2,0.4c-0.1,0.4-0.5,1.1-1.2,1.9c-0.8,1-1.3,1.5-1.3,1.6c0,0.2-0.1,0.6-0.3,1c-0.3,0.1-0.6,0.4-1.1,0.7
		c-2.2,2.5-4.1,5.4-5.8,8.7c0,0.1-0.6,0.9-1.7,2.6c0.2,0.3,0.8,0.4,1.9,0.3c0.1,0,1.2,0,3.3,0h3.3c0.2,0,0.4,0,0.5,0.1
		C107.6,29.1,107.7,28.2,107.8,27.7z"/>
	<path fill="#492727" d="M127.1,13.2c0.1-0.4,0.6-0.5,1.2-0.4c0.4,0.2,0.5,1,0.5,2.5c0,0-0.1,0.6-0.2,1.9c0,0.4-0.3,0.9-0.7,1.3
		c-0.1,0-0.3-0.1-0.6-0.4c-0.2-0.2-0.4-0.5-0.3-0.8c0-1-0.1-1.9,0-2.6h-1c-4.5,0-7.1,0.2-7.9,0.5c-1,1.6-1.5,4.1-1.6,7.5
		c3.1-0.1,5.1-0.1,6.1-0.1c0-0.4,0.1-0.9,0.1-1.6c0-0.4,0.3-0.9,0.7-1.3c0.1,0,0.3,0,0.6,0.1c0.2,0.1,0.4,0.4,0.4,1
		c0.1,2.6,0,4.2-0.1,5c-0.1,0.5-0.5,0.6-1.2,0.2c-0.3-0.5-0.5-1.1-0.6-1.7h-0.2c-1.3,0.1-2.4,0.2-3.3,0.2s-1.7,0.2-2.4,0.3
		c0.1,2.2,0.2,3.9,0.4,5.3c2.5,0,5.2-0.1,8.2-0.2c1.1-0.1,2.1-0.2,2.8-0.5c0-0.3,0.1-1.1,0.2-2.4c0.2-0.6,0.4-1,0.7-1.2
		c0.3,0,0.5,0.1,0.7,0.2c0.1,0.1,0.3,0.4,0.5,0.7c0.1,2.4,0.1,4-0.1,4.9c-0.2,0.4-0.6,0.6-1.4,0.4c-0.1-0.3-0.3-0.6-0.4-1
		c-0.4,0.2-1,0.4-1.7,0.6c-1.3,0.3-3.3,0.6-6,0.8c-3.8,0.1-6.3,0.1-7.6,0c-0.4-0.3-0.6-0.7-0.6-1.2c0-0.5,0.8-0.8,2.3-0.9
		c-0.3-2.5-0.5-4.2-0.4-4.8c-0.7-0.3-1.2-0.5-1.2-0.7c0-0.5,0.2-1,0.6-1.4l0.6-0.6c0.1-0.3,0.3-1.3,0.6-3.3c0.3-1.4,0.6-2.5,0.9-3.4
		c0-0.2,0.1-0.5,0.2-0.9c-1.5,0.1-2.4,0.1-2.7,0c-0.6-0.2-0.7-0.5-0.4-1c0.2-0.6,1.1-1,2.7-1c2.3-0.2,5-0.3,8-0.4
		C124.2,13,125.5,13.1,127.1,13.2z"/>
	<path fill="#492727" d="M142.8,12c0.2-0.4,0.7-0.6,1.5-0.4c0.6,0.2,0.6,1,0.2,2.4c-0.1,0.8-0.2,1.8-0.3,2.9c0,0.6-0.2,1.1-0.5,1.3
		c-0.5,0-0.8-0.1-1-0.4c-0.1-0.3-0.2-0.7-0.3-1.3c0-0.5,0-0.8,0-0.9c0-0.2-0.1-0.3-0.1-0.5c-0.1-0.3-0.4-0.6-0.9-0.8
		c-0.9-0.4-1.6-0.6-2.1-0.6c-1.8,0-3,0.6-3.6,1.6c0.2,0.4,0.1,0.9-0.3,1.5c-0.6,0.9,0.2,1.9,2.3,3c3.1,1.1,5.2,2.3,6.4,3.5
		c1.1,1.5,1.3,3.2,0.7,5.1c-0.6,1.5-1.8,2.7-3.5,3.6c-1.3,0.7-2.8,1-4.7,1c-1.2,0-2.3-0.4-3.4-1.2c-0.7-0.7-1.2-1.5-1.4-2.3
		c-0.2-0.8-0.1-1.5,0.3-2.2c0.4-0.5,0.9-0.8,1.5-0.9c1.5,0,2.1,0.7,1.9,2.1c-0.3,0.9-0.8,1.1-1.6,0.7c-0.1,0.8,0.3,1.5,1.4,2
		c1.3,0.5,2.6,0.4,4-0.2c0.1-0.4,0.8-0.9,2-1.3c0.9-0.3,1.4-1.4,1.4-3.4c0-0.9-0.4-1.6-1.1-2.2c-0.8-0.7-1.9-1.3-3.1-1.7
		c-1.6-0.4-2.5-0.9-3-1.2c-1.5-0.9-2.3-2.1-2.6-3.7c-0.1-1.3,0.3-2.4,1.2-3.5c1-1.1,2.3-1.6,3.8-1.7c1.5-0.1,2.9,0.2,4.2,1
		c0.1,0.4,0.3,0.4,0.5,0C142.7,12.8,142.8,12.4,142.8,12z"/>
	<path fill="#492727" d="M167.1,12c0.2-0.4,0.7-0.6,1.5-0.4c0.6,0.2,0.6,1,0.2,2.4c-0.1,0.8-0.2,1.8-0.3,2.9c0,0.6-0.2,1.1-0.5,1.3
		c-0.5,0-0.8-0.1-1-0.4c-0.1-0.3-0.2-0.7-0.3-1.3c0-0.5,0-0.8,0-0.9c0-0.2-0.1-0.3-0.1-0.5c-0.1-0.3-0.4-0.6-0.9-0.8
		c-0.9-0.4-1.6-0.6-2.1-0.6c-1.8,0-3,0.6-3.6,1.6c0.2,0.4,0.1,0.9-0.3,1.5c-0.6,0.9,0.2,1.9,2.3,3c3.1,1.1,5.2,2.3,6.4,3.5
		c1.1,1.5,1.3,3.2,0.7,5.1c-0.6,1.5-1.8,2.7-3.5,3.6c-1.3,0.7-2.8,1-4.7,1c-1.2,0-2.3-0.4-3.4-1.2c-0.7-0.7-1.2-1.5-1.4-2.3
		c-0.2-0.8-0.1-1.5,0.3-2.2c0.4-0.5,0.9-0.8,1.5-0.9c1.5,0,2.1,0.7,1.9,2.1c-0.3,0.9-0.8,1.1-1.6,0.7c-0.1,0.8,0.3,1.5,1.4,2
		c1.3,0.5,2.6,0.4,4-0.2c0.1-0.4,0.8-0.9,2-1.3c0.9-0.3,1.4-1.4,1.4-3.4c0-0.9-0.4-1.6-1.1-2.2c-0.8-0.7-1.9-1.3-3.1-1.7
		c-1.6-0.4-2.5-0.9-3-1.2c-1.5-0.9-2.3-2.1-2.6-3.7c-0.1-1.3,0.3-2.4,1.2-3.5c1-1.1,2.3-1.6,3.8-1.7c1.5-0.1,2.9,0.2,4.2,1
		c0.1,0.4,0.3,0.4,0.5,0C167,12.8,167,12.4,167.1,12z"/>
	<path fill="#492727" d="M184.4,27.7c0.1-0.4,0.6-0.5,1.2-0.4c0.3,0.8,0.5,1.6,0.5,2.5c0,0-0.1,0.6-0.2,1.9c0,0.4-0.3,0.9-0.7,1.3
		c-0.1,0-0.4-0.1-0.6-0.4c-0.2-0.2-0.3-0.3-0.3-0.5c0,0-0.1,0.1-0.2,0.1c-0.3,0.1-0.5,0.2-0.7,0.2c-0.1,0-0.5-0.1-1-0.2
		c-0.6-0.2-1-0.2-1.1-0.2c-0.1,0-0.9,0.1-2.3,0.4c-1.4,0.3-2.2,0.4-2.3,0.4c-0.1,0-0.3,0-0.6-0.1c-0.3-0.1-0.5-0.1-0.6-0.1
		s-0.6,0.1-1.3,0.4s-1.2,0.4-1.3,0.4c-0.2,0-0.4-0.2-0.7-0.5c-0.3-0.4-0.5-0.6-0.5-0.7c0-0.2,0.7-1.4,2.2-3.8c1.5-2.4,2.8-4.4,4-6.2
		c0.7-1,2.7-3.3,6.2-7c0-0.3-0.1-0.4-0.4-0.5c-1.6-0.3-3.3-0.4-4.9-0.4c-0.1,0-0.4,0-0.9,0.1c-0.4,0.1-0.9,0.2-1.4,0.4l-1,0.5
		c-0.2-0.1-0.4-0.2-0.6-0.3c0,1.3,0,2.2-0.1,2.8c-0.2,0.4-0.6,0.6-1.4,0.4c-0.4-0.9-0.6-2-0.5-3.3c0-0.6,0.1-1.2,0.2-1.7
		c0.2-0.6,0.4-1,0.7-1.2c0.3,0,0.5,0.1,0.7,0.2s0.3,0.4,0.5,0.7v0.2c0.2-0.2,0.4-0.3,0.5-0.3l8.9,0.2c0.5,0,0.9,0.1,1.4,0.1
		c0.6,0.1,1,0.2,1.2,0.4c-0.1,0.4-0.5,1.1-1.2,1.9c-0.8,1-1.3,1.5-1.3,1.6c0,0.2-0.1,0.6-0.3,1c-0.3,0.1-0.6,0.4-1.1,0.7
		c-2.2,2.5-4.1,5.4-5.8,8.7c0,0.1-0.6,0.9-1.7,2.6c0.2,0.3,0.8,0.4,1.9,0.3c0.1,0,1.2,0,3.3,0h3.3c0.2,0,0.4,0,0.5,0.1
		C184.2,29.1,184.3,28.2,184.4,27.7z"/>
	<path fill="#492727" d="M208.9,23.5c0,1.5-0.5,3-1.5,4.7c-1,1.6-2.2,2.6-3.4,2.9c0,0.1-0.1,0.4-0.2,0.6c-0.8,0.3-1.5,0.6-2.3,0.9
		c-0.8,0.3-1.7,0.5-2.5,0.5c-0.9,0.1-1.9-0.1-3.1-0.4c-2-0.9-3.6-2-4.8-3.5c-1.7-2.2-2.6-4.1-2.6-5.5c0-2.4,0.7-4.6,2-6.6
		c0.5-0.9,1.5-1.9,3-3c1.7-1.3,3-2,4-2c0.3,0,0.6,0.1,0.9,0.3c1.5,0,3.1,0.5,4.8,1.4c1.9,1,3.4,2.4,4.6,4.1c0.3,0.4,0.5,1.2,0.9,2.6
		C208.7,21.9,208.9,22.8,208.9,23.5z M207,22.8c0-1.1-0.3-2.2-0.8-3.3c-0.6-1.4-1.6-2.5-2.8-3.3c-0.5-0.3-1.1-0.6-1.9-0.9
		c-0.5-0.2-0.9-0.3-1.3-0.3s-0.8,0.3-1.1,0.8l-0.6-0.4c-0.3-0.3-0.6-0.5-1-0.7c-1,0.8-1.7,1.2-2.1,1.2c-0.1,0-0.3,0-0.5,0
		c-0.2,0-0.4,0-0.5,0c-0.3,0-0.7,0.2-1.3,0.6c-0.7,0.5-1.2,1.2-1.6,2c-0.7,1.4-1.1,2.8-1.1,4.3c0,0.3,0.2,1,0.6,2.2
		c0.7,1.8,1.9,3.3,3.6,4.4c1.6,1.1,3.2,1.6,4.7,1.6c1,0,2.3-0.4,3.8-1.3c1.6-0.9,2.7-1.9,3.4-3c0.1-0.2,0.2-0.5,0.2-1
		c0-0.6,0-0.9,0-0.9c0-0.2,0.1-0.5,0.2-1C207,23.2,207,22.9,207,22.8z"/>
	<path fill="#492727" d="M227.6,32c-0.9,0.1-1.7,0.2-2.4,0.2c-0.7,0-1.7,0-3,0c-0.3-0.3-0.4-0.7-0.4-1.1c0-0.3,0.4-0.5,1.2-0.5
		c-0.2-0.4-0.4-0.9-0.6-1.5c-0.8-2-1.5-3.1-2-3.1c-0.3,0-1.1,0.2-2.4,0.6c-1.3,0.4-2.5,0.6-3.6,0.7c0.1,1.1,0.3,2.3,0.7,3.5
		c0.8,0.1,1.4,0.3,1.8,0.5c0.3,0.3,0.4,0.4,0.4,0.6c0,0.1-0.2,0.2-0.5,0.4c-1.3,0.1-2.3,0.1-3,0.2c-0.6,0-1.6,0-2.9,0
		c-0.4-0.2-0.6-0.5-0.5-1c0-0.4,0.9-0.7,2.5-0.8c-0.1-0.2-0.1-0.4-0.1-0.6l-0.3-2.6c-0.5-0.1-0.8-0.3-0.8-0.6
		c-0.1-0.3,0.2-0.6,0.9-0.8c0-1.2,0-3.1,0.2-5.6c0.1-1.6,0.1-2.9,0.1-3.9c0-1,0-1.5-0.2-1.7c-1.5,0-2.2-0.2-2.1-0.8
		c-0.3-0.5,0.4-0.8,2.2-1c1.1-0.1,2.5-0.1,4.1,0.1c2.1,0.1,3.9,0.6,5.6,1.5c2.6,1.4,3.8,2.9,3.8,4.5c0,1.2-1.2,3.1-3.6,5.7
		c0.3,0.4,0.8,1.2,1.4,2.4c0.3,0.6,0.6,1.3,0.8,2c0.1,0.5,0.3,0.8,0.3,1.1c1.2,0.1,2,0.2,2.6,0.5c0.1,0.1,0.1,0.1,0.2,0.2
		c0.1,0.1,0.1,0.2,0.2,0.3s0,0.2-0.1,0.3C228.1,31.8,227.9,31.9,227.6,32z M223.5,18.9c0-1-0.8-1.9-2.4-2.9
		c-1.8-0.8-3.7-1.3-5.8-1.4c-0.3,0-0.5,0.4-0.6,1.2c-0.2,0.7-0.3,1.4-0.3,2c0,0.1,0,0.2,0.1,0.4c0.1,0.1,0.1,0.4,0.1,0.6l-0.1,3
		c0,1.2-0.1,2.2-0.2,2.9c0,0,0,0.1,0,0.3s-0.1,0.3-0.1,0.4c0,0.1,0,0.2,0.1,0.3l1.7-0.4c1.8-0.6,3.2-1.2,4.2-1.8
		C222.4,22.1,223.5,20.5,223.5,18.9z"/>
	<path fill="#492727" d="M231.3,32.5c-0.3-0.1-0.4-0.1-0.5-0.2c-0.1-0.1-0.1-0.1-0.1-0.2c0-0.1,0.1-0.1,0.1-0.2
		c0.1-0.1,0.1-0.1,0.2-0.2c0.5-0.2,1.2-0.4,1.9-0.5h0.1c-0.1-0.3-0.2-0.7-0.3-1.2c-0.1-0.6-0.2-1.5-0.5-2.6c-0.1,0-0.3-0.1-0.4-0.2
		c-0.3-0.2-0.4-0.4-0.4-0.7c0.3-0.6,0.4-1,0.4-1.2c0-0.3-0.1-0.9-0.2-1.7c-0.1-0.8-0.2-1.2-0.2-1.3c0-2.6,0.1-4.4,0.2-5.3l0.4-2.6
		c-0.6,0-1.3,0-2.1-0.1c-0.4-0.2-0.5-0.5-0.4-0.8c0.2-0.5,1.2-0.8,3-0.9c1.1-0.1,2.4-0.1,3.7-0.1c3.8,0,6.5,1,8.3,3.1
		c0.3,0.3,0.5,0.8,0.8,1.3c0.2,0.6,0.3,1,0.3,1.3c0,0.3-0.3,1.1-0.8,2.3c-0.5,1.2-1,2.1-1.6,2.5c-0.4,0.2-0.8,0.7-1.4,1.3
		c-0.5,0.6-1,1-1.3,1.2c-0.5,0.3-1.7,0.7-3.5,1.3c-1.5,0.6-2.3,0.9-2.3,1c0,0.2,0,0.5,0.1,0.8c0.3,0.9,0.4,1.6,0.4,2.2v0.1
		c1.7,0,2.5,0.2,2.6,0.4c0.1,0.4-0.1,0.8-0.4,1c-1.9,0.1-3.2,0.1-4.1,0.1C232.6,32.7,231.9,32.6,231.3,32.5z M243.5,19
		c0-1.3-0.8-2.4-2.5-3.5c-1.5-0.9-3-1.4-4.3-1.4c-0.1,0-0.5,0-1.2,0c-0.7,0-1.3,0.1-1.8,0.1c-0.1,0.7-0.2,1.6-0.2,2.7
		c0,1.4,0.1,3,0.3,4.9c0.3,2.6,0.6,3.9,1,3.9c1.6,0,3.4-0.5,5.2-1.8c0.8-0.5,1.6-1.3,2.4-2.4C243.1,20.5,243.5,19.6,243.5,19z"/>
	<path fill="#492727" d="M267.5,23.5c0,1.5-0.5,3-1.5,4.7c-1,1.6-2.2,2.6-3.4,2.9c0,0.1-0.1,0.4-0.2,0.6c-0.8,0.3-1.5,0.6-2.3,0.9
		c-0.8,0.3-1.7,0.5-2.5,0.5c-0.9,0.1-1.9-0.1-3.1-0.4c-2-0.9-3.6-2-4.8-3.5c-1.8-2.2-2.6-4.1-2.6-5.5c0-2.4,0.7-4.6,2-6.6
		c0.5-0.9,1.5-1.9,3-3c1.7-1.3,3-2,4-2c0.3,0,0.6,0.1,0.9,0.3c1.5,0,3.1,0.5,4.8,1.4c1.9,1,3.4,2.4,4.6,4.1c0.3,0.4,0.5,1.2,0.9,2.6
		C267.3,21.9,267.5,22.8,267.5,23.5z M265.6,22.8c0-1.1-0.3-2.2-0.8-3.3c-0.6-1.4-1.6-2.5-2.8-3.3c-0.5-0.3-1.1-0.6-1.9-0.9
		c-0.5-0.2-0.9-0.3-1.3-0.3s-0.8,0.3-1.1,0.8l-0.6-0.4c-0.3-0.3-0.6-0.5-1-0.7c-1,0.8-1.7,1.2-2.1,1.2c-0.1,0-0.3,0-0.5,0
		c-0.2,0-0.4,0-0.5,0c-0.3,0-0.7,0.2-1.3,0.6c-0.7,0.5-1.2,1.2-1.6,2c-0.7,1.4-1.1,2.8-1.1,4.3c0,0.3,0.2,1,0.6,2.2
		c0.7,1.8,1.9,3.3,3.6,4.4c1.6,1.1,3.2,1.6,4.7,1.6c1,0,2.3-0.4,3.8-1.3c1.6-0.9,2.7-1.9,3.4-3c0.1-0.2,0.2-0.5,0.2-1
		c0-0.6,0-0.9,0-0.9c0-0.2,0.1-0.5,0.2-1C265.6,23.2,265.6,22.9,265.6,22.8z"/>
	<path fill="#492727" d="M275,32.5c-1.2,0.3-2.1,0.4-2.8,0.5c-0.7,0.1-1.6,0.1-2.9,0c-0.4-0.2-0.6-0.5-0.5-1c0-0.4,0.6-0.6,1.9-0.7
		c0-0.2,0-0.4,0-0.6c0-0.6,0.1-1.4,0.2-2.3c0.1-0.9,0.2-1.6,0.2-2c0,0-0.2-0.2-0.5-0.4c-0.3-0.3-0.4-0.5-0.4-0.7
		c0-0.4,0.1-0.7,0.4-0.9c0.3-0.2,0.5-0.4,0.7-0.6c0.1-3.2,0.2-5.1,0.2-5.7c0-0.1-0.1-0.6-0.2-1.3s-0.2-1.4-0.2-1.9
		c0-0.2,0-0.5,0-0.7c-0.6-0.1-1.3-0.2-2.1-0.4c-0.3-0.1-0.4-0.2-0.5-0.3c-0.1-0.1-0.1-0.2,0-0.2c0-0.1,0.1-0.1,0.2-0.2
		s0.2-0.1,0.2-0.2c0.6-0.3,1.6-0.5,3.1-0.4c2,0.1,3.1,0.3,3.1,0.8c0,0.4-0.1,0.7-0.5,1c-0.7,0-1.1,0-1.3,0c0,0.6,0,1.4,0,2.2
		c0,2.3,0.1,3.7,0.1,4.1c0,0.5,0,0.9-0.1,1.3c0.6,0,1.2-0.2,1.9-0.6c0.5-0.2,1.2-0.6,2.1-1.2c1.2-0.6,3.2-2.3,6.3-5.2
		c-0.4,0-0.8-0.1-1.3-0.1c-0.8-0.4-1-0.7-0.5-1.1c0.4-0.4,1.6-0.6,3.6-0.7c1.6,0,2.5,0.1,2.8,0.5c0.1,0.2,0.1,0.3,0.1,0.3
		c0,0-0.1,0.2-0.3,0.4c-0.9,0.2-1.7,0.4-2.4,0.5l0,0c-0.1,0.2-0.3,0.5-0.7,0.8c-1.7,1.5-3.5,3.2-5.4,5.1c0.2,0.4,0.6,1.1,1.2,2
		c0.3,0.5,0.7,1.1,1.3,1.9c2.9,3.3,4.5,5.4,4.8,6.2c1,0,1.8,0.2,2.2,0.4c0.1,0,0.1,0.1,0.2,0.2s0.1,0.1,0.2,0.2c0,0.1,0,0.1,0,0.2
		c-0.1,0.1-0.2,0.2-0.5,0.3c-1.2,0.3-2.1,0.4-2.8,0.5c-0.7,0.1-1.6,0.1-2.9,0c-0.4-0.2-0.6-0.5-0.5-1c0-0.3,0.4-0.5,1.1-0.6
		c-0.7-0.9-1.7-2.1-2.9-3.8c-2.3-3.2-3.6-4.9-3.8-4.9c-0.3,0-0.9,0.3-1.9,0.9c-1.1,0.7-1.9,1.4-2.3,2c-0.2,0.3-0.4,1.2-0.6,2.8
		c0,0.1,0,0.2,0.2,0.4c0.1,0.2,0.2,0.4,0.3,0.5c0.1,0.4,0.1,1,0,1.8c0,0.2,0,0.4,0,0.5c1.3,0.1,2,0.3,2.2,0.6c0,0,0,0.1,0,0.1
		c0,0,0,0.1,0,0.1c0,0,0,0.1,0,0.2C275.1,32.4,275.1,32.5,275,32.5z"/>
</g>
<path fill="#492727" d="M85.7,4.4c-0.1,0.7-0.3,1.7-0.5,2.9c-0.3,1.2-0.5,2.2-0.7,3.1h1.5c0.4-0.9,0.8-1.9,1.2-3
	c0.4-1.1,0.7-2,0.9-2.8l-0.2-0.3H85.7z"/>
<g>
	<path fill-rule="evenodd" clip-rule="evenodd" fill="#492727" d="M39.4,11.8c-0.8-0.1-1.4,0.1-2,0c0,0,0,0,0.1,0
		c1.5-0.5,4.4-1.7,3.7-3.8c-0.3-0.9-0.7-1.3-1.5-1.6c-4.1-1.4-8,2.4-9,4.8c-0.2,0.5-0.2,1-0.4,1.5c-0.7-0.4-1.4-1-2.5-0.8
		c-0.9-0.8-2.4-1.4-4.3-1.1c0.2-0.7,0.2-1.4,0.2-2.2c0.7,0.5,0.9,1.5,1.9,1.6c1.9,0.1,1.4-3.1,1.1-4.6c1-0.3,1.8,0.9,1.9,1.7
		c0,0.6-0.3,2.1,0.6,2c0.4,0,0.5-0.9,0.4-1.5c-0.1-0.3-0.3-0.4-0.5-0.7c-0.7-1.2-1.2-2.4-2.6-1.9c1.1-1.2,3.1,0.1,3.5,1.3
		c0.2,0.6-0.1,1,0.4,1.3c0.3,0.3,1.1,0.3,1.4,0.1c0.1-0.5-0.2-1.3-0.6-1.6c-0.2-0.2-0.5-0.2-0.7-0.4c-0.3-0.3-0.5-0.8-0.8-1.1
		c-1-0.9-2.4-1.2-3.5-0.2c-0.6-2.2-4.8-1.4-4.5,1.1c-0.9-0.2-1.7-0.3-2.5-0.2c-1,0.1-1.5,0.8-2.2,1c-0.2,0.1-0.5,0-0.8,0
		c-0.8,0.1-1.7,0.3-2.7,0.4C10.6,7.2,7.3,7.6,5,7.9C3.8,8.1,2.6,8.5,1.9,9.1c-0.5,0.4-1.3,1.4-1.1,2.4c0.2,0.7,1.1,1.1,1.9,1.1
		c1.6,0,2.9-0.4,4.2-0.8c2.7-0.8,5.5-1.5,8-2.3c-0.1,0.8,0,1.7,0.1,2.4c-3,0.8-5.2,1.8-6.6,4.5c-1.2,2.4-1.2,8.3-0.2,10.8
		c0.2,0.4,0.7,1.3,1.3,1.3c1.3,0.2,1.7-1,2.7-1.3c0.4-0.1,0.7,0,1.1-0.2c-0.5,0.8-1.3,1.6-1.5,2.9c-0.2,1.7,1.3,3.7,2.3,3.9
		c1.6,0.3,2.4-1.3,3-2c-0.4,3.4,1.5,6.1,4.7,4.9c0.8-0.9,0.9-2.7,0.6-4c0.6,2,2.3,5.1,4.9,3.9c0.7-0.5,0.9-1.9,0.5-2.9
		c1.1,0.9,3,3.1,5,2.4c0.5-0.2,1.3-0.9,1.5-1.4c0.7-1.7-1.2-3-1.8-3.9c1.2,0.6,3.1,1.8,4.7,1.2c0.4-0.1,0.7-0.5,1-0.8
		c0.7-0.6,1.1-1,1.2-2.1c0.1-1.7-1.1-3.2-2-3.9c2.4,1,5.4,0.2,5.3-2.4c-0.1-1.3-0.9-2.5-1.6-3.3c-1-1-2.4-1.4-3.7-1.8
		c1.2-0.1,2.5,0.1,3.6,0c1-0.1,2.2-0.8,2.5-1.5c0.3-0.7,0.1-1.6-0.3-2.1C42.6,13,40.6,11.9,39.4,11.8z"/>
	<path fill-rule="evenodd" clip-rule="evenodd" fill="#FFA31D" d="M24.6,4.2c-1.1,1.7,0.5,3.4,1.7,4C26.2,8.6,26.1,9,26,9.4
		c-0.6,0-0.9-0.5-1.3-0.9c-0.8-0.8-2.1-1.2-2.2-2.2C22.4,5.4,23.5,3.5,24.6,4.2z"/>
	<path fill-rule="evenodd" clip-rule="evenodd" fill="#7A4141" d="M18.3,13.3c0.4-1.7,1-3.2,1.5-4.9c0.1-0.1,0.4-0.1,0.5-0.2
		c-0.3-1.2-2.4-0.4-2.6,0.3c0,0.2,0.2,0.2,0.4,0.2c-0.6,1-1.5,1.7-2,2.8c-1-3.2,2-5.4,4.7-5.2c1.2,0.1,1.5,0.9,2.2,1.6
		C23.2,11.4,21.6,13.4,18.3,13.3z M19.2,7.2c0.3,0.1,0.9,0,1.1-0.2C20,6.7,19.1,6.7,19.2,7.2z M20.8,7.6c0.2,0.1,1,0.1,1-0.4
		C21.5,7.1,20.8,7.1,20.8,7.6z M16.6,9.5c0.5,0,0.6-0.6,0.6-0.9C16.7,8.3,16.5,9.1,16.6,9.5z M20.5,9c0.4,0.2,0.9,0,0.9-0.4
		C21,8.5,20.5,8.6,20.5,9z M22.1,9.7c0.4,0,0.4-0.7,0.3-1C21.8,8.7,21.8,9.5,22.1,9.7z M20.6,10.7c0.4-0.1,0.4-0.7,0.6-1.1
		C20.8,9.4,20.5,10.2,20.6,10.7z M21.3,11.4c0.5,0.2,0.7-0.4,0.8-0.9C21.5,10.2,21.3,10.8,21.3,11.4z M19.4,11.8
		c0.5-0.1,0.8-0.6,0.7-1C19.6,10.9,19.4,11.2,19.4,11.8z M20.1,12.3c0.4,0.3,0.8-0.2,0.9-0.6C20.6,11.6,20.1,11.8,20.1,12.3z
		 M18.9,12.9c0.3,0.2,0.6-0.1,0.6-0.5C19.2,12.3,18.8,12.6,18.9,12.9z"/>
	<path fill-rule="evenodd" clip-rule="evenodd" fill="#FFFFFF" d="M31.8,14.3c0-0.4-0.5-0.5-0.5-0.9c0-0.6,1-1.5,1.5-1.9
		c0.9-0.9,2.3-1.4,2.9-2c-2.1,0.1-3.6,1.6-4.5,3.1c-0.1,0.2-0.2,0.4-0.4,0.5c-0.3-0.3,0.1-0.7,0.2-0.9c0.8-2.2,3.2-4.5,5.5-5.1
		c0.9-0.2,2.2-0.2,2.9,0.2c0.6,0.3,1.2,1,0.8,1.8c-0.7,1.6-3.1,1.8-4.9,2.6C33.7,12.3,32.9,13.5,31.8,14.3z M36.7,9.1
		c0.5,0,1-0.1,1.2-0.5C37.5,8.3,36.5,8.6,36.7,9.1z"/>
	<path fill-rule="evenodd" clip-rule="evenodd" fill="#FFFFFF" d="M16,7.4c-0.5,0.6-1.5,0.5-2.2,0.6C11.4,8.5,9.3,9.3,7.1,10
		c3.1,0,5.5-1.2,8.3-1.8c-0.2,0.5-0.8,0.5-1.2,0.6c-1.4,0.4-2.8,0.9-4.3,1.3c-1.9,0.6-3.9,1.3-5.9,1.6c-0.9,0.1-2,0.3-2.6-0.3
		c-0.2-1.6,1.6-2.2,3-2.6c1.5-0.4,3.5-0.5,5.4-0.8C12.1,7.8,14.1,7.6,16,7.4z"/>
	<path fill-rule="evenodd" clip-rule="evenodd" fill="#FFFFFF" d="M26.9,12.2c-0.9,0-1.8-0.1-2.6-0.3c-0.4-0.1-1-0.1-1.1-0.5
		C24.6,11.1,26.3,11.4,26.9,12.2z"/>
	<path fill-rule="evenodd" clip-rule="evenodd" fill="#FFFFFF" d="M22.9,12.1c0.4,0.4,1,0.6,1.7,0.7C24,13.1,23.4,13.5,23,14
		c-0.6-0.1-1.1-0.3-1.8-0.3C21.9,13.2,22.5,12.8,22.9,12.1z"/>
	<path fill-rule="evenodd" clip-rule="evenodd" fill="#FFFFFF" d="M29.5,12.8c-0.6,0.4-1.4,0-1.6-0.4C28.5,12.2,28.9,12.8,29.5,12.8
		z"/>
	<path fill-rule="evenodd" clip-rule="evenodd" fill="#FFFFFF" d="M32.4,17.7c-0.2-0.4,0.1-0.8,0-1.3c1.3-1.3,3.5-1.6,5.5-2.2
		c-1.5-0.4-3.4,0-4.6,0.8c-0.4,0.3-0.6,0.7-1.1,0.8c-0.6-0.8,0.2-1.2,0.9-1.6c0.4-0.3,0.8-0.5,1.3-0.7c1.1-0.5,2.3-0.7,3.4-0.8
		c1.6-0.1,2.4,0.3,3.3,0.9c0.7,0.4,1.9,0.9,1.6,2.1c-0.2,0.6-1.4,1.2-2.2,1.2C37.7,17,34.5,16.7,32.4,17.7z M38.9,14.3
		c0.4,0.2,1.2,0.3,1.7,0.2C40.3,14.2,39.2,13.8,38.9,14.3z"/>
	<path fill-rule="evenodd" clip-rule="evenodd" fill="#7A4141" d="M14.9,12.8c-0.3,0.5-0.8,1.4-1.1,0.2
		C14.1,12.9,14.5,12.8,14.9,12.8z"/>
	<path fill-rule="evenodd" clip-rule="evenodd" fill="#FFC440" d="M19.9,21.9c0.1,0.9,0.9,1.7,1.6,2.3c0.6,0.5,1,1.2,1.7,1.3
		c0.3,0.1,0.6,0,0.8,0.1c0.3,0,1.4,0.4,1.5-0.2c0-0.4-0.3-0.4-0.8-0.4c-1.1-1.4-2-3-3.4-4c0.4-0.8-0.3-1.4-0.3-2.1
		c0-0.9,0.8-1.9,1.1-2.6c1.8,0.4,4,0,5.3-0.8c0.1,0.4,0.7,0.6,0.9,0.2c0.1-0.4-0.3-0.5-0.3-0.8c0.2-0.6,1,0.2,1.2-0.2
		c0-0.7-0.6-0.6-1.2-0.6c-0.4,0-0.6-0.2-1-0.1c-0.8,0.1-1.4,0.6-1.9,0.9c-0.3-0.4-0.8-0.6-1.4-0.7c0.7-1,2.4-1,3.8-1.3
		c0.7,1.4,2.6,0.3,3.6,1.3c0.4,0.5,0.6,2.1,0.4,3c-0.1,0.4-0.3,1-0.4,1.6c-0.6,2.3-1.9,4-3.7,5.6c-1.2,1.1-2.6,2.3-4.2,2.5
		c-0.6,0.1-1.4,0-1.9-0.2c-0.3-0.2-0.9-0.7-1.1-1.1C19.6,24.6,19.6,23.2,19.9,21.9z M30.2,14.9c-1.4-0.3-1.4,1.3-0.7,1.8
		C30.7,17,31,15.3,30.2,14.9z M26.7,17.9c0.3-1-1.2-1.6-1.3-0.5c0,0.2,0.1,0.6,0.2,0.8C26.2,18.4,26.6,18.2,26.7,17.9z M27.3,17.7
		c0,0.4,0.1,0.8,0.5,0.8C28.4,18.1,27.8,17.1,27.3,17.7z M24.2,19.3c0.9,0.1,1.1-0.4,0.9-1.2C24.3,17.1,23.2,18.6,24.2,19.3z
		 M28.8,17.9c-0.1,0.3,0,0.6,0.4,0.6c0.2,0,0.3-0.4,0.2-0.6C29.2,17.7,28.9,17.8,28.8,17.9z M23,19.3c0.2-0.2,0.3-0.8,0.1-1.1
		C21.7,17.4,21.7,20,23,19.3z M27.1,20.8c0.3-0.3,0.2-1.1-0.1-1.3C25.8,19.3,26,21.3,27.1,20.8z M22.5,20.7
		c-0.1,0.6,0.9,0.9,0.8-0.1C23,20.2,22.6,20.3,22.5,20.7z M23.8,22.6c0.1,0.1,0.2,0.1,0.2,0.2c0.3,0,0.5-0.2,0.5-0.6
		C24.3,21.9,23.7,22.1,23.8,22.6z M27.6,23.1c0.5,0,0.8-1.1,0-1C27,22.2,27,23,27.6,23.1z M25.9,24.8c1.1-1.7-1.9-1.8-0.9-0.1
		C25.2,24.9,25.6,25,25.9,24.8z M20.5,25.5c0,0.7,1.2,0.3,0.9-0.5C20.9,24.9,20.5,25.2,20.5,25.5z"/>
	<path fill-rule="evenodd" clip-rule="evenodd" fill="#FFA31D" d="M13.8,14.1c-0.2,0.4-0.4,0.6-0.6,1c-0.4-0.4-0.9-0.7-0.9-1.4
		c0.4-0.1,0.6-0.3,1.1-0.4C13.4,13.6,13.6,13.9,13.8,14.1z"/>
	<path fill-rule="evenodd" clip-rule="evenodd" fill="#7A4141" d="M11.8,14c0.3,0.6,0.6,1.1,1.1,1.6c-0.3,0.4-0.5,0.7-0.8,1.1
		c-0.5-0.5-0.9-1.1-1.2-1.8C11,14.5,11.5,14.4,11.8,14z"/>
	<path fill-rule="evenodd" clip-rule="evenodd" fill="#FFFFFF" d="M18,14.3c0.5,0.1,1.2-0.1,1.6,0c0.6,0.2,1.3,1.3,1.9,1.6
		c-0.3,0.6-0.7,1.2-0.8,2C19.9,16.6,19,15.4,18,14.3z"/>
	<path fill-rule="evenodd" clip-rule="evenodd" fill="#FFFFFF" d="M20.7,14.2c1.5,0.2,2.9,0.5,3.7,1.2C22.9,16,21.5,15,20.7,14.2z"
		/>
	<path fill-rule="evenodd" clip-rule="evenodd" fill="#FFFFFF" d="M27.1,14.7c-0.5,0.5-1.1,0.8-1.8,1.1c-0.1,0,0-0.3-0.1-0.4
		C25.9,15.1,26.3,14.7,27.1,14.7z"/>
	<path fill-rule="evenodd" clip-rule="evenodd" fill="#FFFFFF" d="M17.8,14.8c0.1,0,0.1,0.1,0.2,0.1c0.8,1.8,3.2,3.6,2.3,6.3
		c-0.4-0.5-0.3-1.1-0.4-1.6c-0.2-1-0.7-1.9-1.2-2.8c-0.3-0.6-0.7-1-0.9-1.8C17.8,14.9,17.8,14.8,17.8,14.8z"/>
	<path fill-rule="evenodd" clip-rule="evenodd" fill="#FFA31D" d="M10.3,15.2c0.4,0.7,0.8,1.5,1.4,1.9c-0.2,0.5-0.5,0.9-0.7,1.5
		C10.2,18,9.5,16.3,10.3,15.2z"/>
	<path fill-rule="evenodd" clip-rule="evenodd" fill="#FFFFFF" d="M30,15.6c0.2,0.2,0,0.6-0.2,0.6c-0.1,0-0.2-0.1-0.3-0.2
		C29.6,15.8,29.7,15.4,30,15.6z"/>
	<path fill-rule="evenodd" clip-rule="evenodd" fill="#FFA31D" d="M17.3,16.2c0.2,0.6,0.2,1.5,0.2,2.2c-0.3,0-0.6,0-0.9,0
		C16.8,17.6,17.1,17,17.3,16.2z"/>
	<path fill-rule="evenodd" clip-rule="evenodd" fill="#7A4141" d="M9.3,16.7c0.4,0.9,0.7,1.9,1.6,2.4c-0.1,0.5-0.3,0.9-0.3,1.5
		c-0.8-0.4-1.3-1.2-1.8-1.8C8.8,18,9,17.3,9.3,16.7z"/>
	<path fill-rule="evenodd" clip-rule="evenodd" fill="#FFFFFF" d="M26,17.2c0.2,0,0.3,0.2,0.2,0.5c-0.1,0.1-0.4,0.2-0.5,0.1
		C25.8,17.5,25.9,17.4,26,17.2z"/>
	<path fill-rule="evenodd" clip-rule="evenodd" fill="#FFFFFF" d="M31,21.7c0.2-0.7,0.6-1.3,0.9-1.9c3.2-0.1,5,1.3,7.1,2.3
		c-1.2-1.9-3.7-2.9-6.9-2.9c0.1-0.3,0.1-0.7,0.2-0.9c1.6-0.4,3.5-0.6,5.3,0.2c0.4,0.2,0.9,0.5,1.3,0.7c0.5,0.3,1,0.4,1.3,0.6
		c1,0.7,2.4,3.1,1,4.2c-0.7,0.6-2,0.6-2.9,0.3C35.8,23.7,33.9,21.8,31,21.7z M39.7,22.7c0,0.4,0.4,0.7,0.8,0.5
		C40.5,22.8,40.1,22.6,39.7,22.7z"/>
	<path fill-rule="evenodd" clip-rule="evenodd" fill="#FFFFFF" d="M24.4,18.2c0.3,0,0.4,0.4,0.2,0.6c-0.1,0-0.2,0-0.3,0
		C24.1,18.6,24.3,18.3,24.4,18.2z"/>
	<path fill-rule="evenodd" clip-rule="evenodd" fill="#FFFFFF" d="M22.5,18.6c0.1,0,0.2,0,0.2,0c0,0.2,0,0.4-0.2,0.4
		C22.5,18.8,22.5,18.7,22.5,18.6z"/>
	<path fill-rule="evenodd" clip-rule="evenodd" fill="#7A4141" d="M16.4,18.8c0.4,0.1,0.7,0.3,1.2,0.2c0,0.3,0,0.5-0.1,0.8
		c-0.5,0.1-0.9-0.1-1.3-0.1C16.1,19.4,16.3,19.1,16.4,18.8z"/>
	<path fill-rule="evenodd" clip-rule="evenodd" fill="#FFA31D" d="M15.9,20.1c0.4,0.2,0.8,0.4,1.4,0.4c0,1-1,1.5-2,1.1
		C15.4,21,15.7,20.6,15.9,20.1z"/>
	<path fill-rule="evenodd" clip-rule="evenodd" fill="#FFFFFF" d="M26.7,20.1c0.2,0,0.1,0.5-0.1,0.4C26.6,20.3,26.8,20.3,26.7,20.1z
		"/>
	<path fill-rule="evenodd" clip-rule="evenodd" fill="#FFFFFF" d="M23.6,24.8c-1.4-0.6-2.5-1.5-3-3c0.1-0.1,0.2-0.1,0.2-0.2
		C22,22.4,22.7,24,23.6,24.8z"/>
	<path fill-rule="evenodd" clip-rule="evenodd" fill="#7A4141" d="M15.1,21.9c0.4,0.2,0.8,0.4,1.5,0.4c-0.1,0.4-0.4,0.6-0.5,0.9
		c-0.6,0-1.1,0-1.6-0.2C14.6,22.6,14.9,22.3,15.1,21.9z"/>
	<path fill-rule="evenodd" clip-rule="evenodd" fill="#7A4141" d="M8.5,22c1.2,1.7,2.6,3.1,5.6,3c-0.6,0.3-1.1,1-1.8,1.1
		c-1.5,0.1-3.2-2-3.8-2.9C8.5,22.8,8.5,22.4,8.5,22z"/>
	<path fill-rule="evenodd" clip-rule="evenodd" fill="#FFC440" d="M28.9,24c1.7,1.9,3.7,3.8,6.7,4.2c-1-0.9-2.4-1.3-3.5-2
		c-1.1-0.7-2-1.7-3-2.5c0.2-0.2,0.8-1.3,1.3-1.2c2.3,0.6,5.8,2.1,7.4,4c0.6,0.7,1.1,2.1,0.7,2.9c-0.2,0.4-0.7,0.6-0.9,1.1
		c-3.5,0.6-6.9-1.5-8.7-3.3c-0.5-0.5-1.2-1.2-1-2.1C28,24.6,28.5,24.3,28.9,24z M36.3,28.5c0.1,0.4,0.6,0.3,1.1,0.4
		C37.4,28.4,36.6,28.4,36.3,28.5z"/>
	<path fill-rule="evenodd" clip-rule="evenodd" fill="#FFA31D" d="M14.1,23.3c0.4,0.1,0.8,0.3,1.3,0.4c-0.1,0.4-0.4,0.5-0.6,0.8
		c-0.5-0.1-1-0.1-1.7-0.2C13.5,24,13.9,23.7,14.1,23.3z"/>
	<path fill-rule="evenodd" clip-rule="evenodd" fill="#FFFFFF" d="M25.6,24.1c0,0.1,0,0.2,0,0.3c-0.2,0.1-0.2,0.1-0.4,0
		C25.3,24.2,25.4,24.2,25.6,24.1z"/>
	<path fill-rule="evenodd" clip-rule="evenodd" fill="#FFA31D" d="M8.6,24.4c0.8,0.8,1.5,1.8,2.8,2.2c-0.6,0.8-1.6,1.4-2.2,0.3
		C8.8,26.2,8.8,25.1,8.6,24.4z"/>
	<path fill-rule="evenodd" clip-rule="evenodd" fill="#FFFFFF" d="M19.2,25.1c-0.2,0.3-0.5,0.3-0.8,0.4c-0.8,0.4-1.5,1.2-2,1.9
		c-0.9,1.1-1.9,2.2-2.2,3.7c1.3-2.3,2.8-4.3,5.3-5.4c0.1,0.2,0.1,0.4,0.3,0.5c-1.1,1-2,2.2-2.8,4c-0.4,1-1.2,2.9-2.4,2.9
		c-0.8,0-1.9-1.9-1.8-3.1c0.2-2.2,3.3-4.8,5.5-5.1C18.5,24.8,19.1,24.6,19.2,25.1z"/>
	<path fill-rule="evenodd" clip-rule="evenodd" fill="#FFFFFF" d="M25.9,26.5c0.6,1.5,1.4,2.8,2.6,3.7c-0.5-1.2-1.8-2.2-2.2-3.9
		c0.2-0.3,0.5-0.4,0.8-0.6c0,0,0.1,0,0.1,0.1c0.6,1.5,1.8,2.6,3.2,3.7c1.3,1,2.8,2.2,3.3,3.6c0.3,0.9-0.3,2-1.1,2.1
		c-1.1,0.2-2.5-0.7-3.1-1.2c-1.5-1.2-2.9-3.1-3.7-5.3C25.5,28,25,26.9,25.9,26.5z M32,33.4c-0.5-1.2-1.6-1.7-2.5-2.3
		c0,0-0.1,0-0.1,0C30,32,31,32.7,32,33.4z"/>
	<path fill-rule="evenodd" clip-rule="evenodd" fill="#FFC440" d="M20.4,27c0.2,0.4-0.2,0.7-0.4,1.2c-0.5,1.2-0.5,3.5,0.2,4.6
		c-0.1-1.8-0.3-4.1,0.6-5.4c0.2,0.1,0.5,0.1,0.8,0.2c-0.7,2.7,1.7,7-0.8,8.3c-2.3,0.2-2.8-2-2.8-4.2c0-2.2,1.3-3.7,2.2-4.7
		C20.2,27,20.3,27,20.4,27z"/>
	<path fill-rule="evenodd" clip-rule="evenodd" fill="#FFFFFF" d="M24.8,27.1C24.9,27.1,24.9,27.1,24.8,27.1
		c-0.1,2.1,1.2,3.6,1.9,5.1c0.4,0.9,1.1,3.4-0.4,3.6c-0.7,0.1-1.5-0.7-1.8-1c-1.5-1.5-2.1-4.2-2.2-7c0.3,0.1,0.7-0.1,0.9,0
		c-0.1,1.6,0.4,2.7,1.1,3.6c-0.1-1.1-0.7-2.2-0.6-3.7C24.1,27.5,24.5,27.4,24.8,27.1z"/>
	<path fill-rule="evenodd" clip-rule="evenodd" fill="#FFFFFF" d="M25.2,4.6c-0.1,0.7,0,1.8,0.4,2.3C25.1,6.8,24.2,5,25.2,4.6z"/>
	<path fill-rule="evenodd" clip-rule="evenodd" fill="#FFFFFF" d="M12,22.9c-0.5-0.4-0.6-1-0.5-1.9c0.3-2.6,2-4.7,3.3-6.7
		c0.7-1,1.3-2,2-3c0.7-1,1.4-2,2.1-2.9c0.1,0.3-0.2,0.4-0.4,0.6c-0.5,0.7-0.9,1.6-1.3,2.4c-0.6,1.1-1.3,2.1-1.5,3.4
		c0.4-0.2,0.6-0.7,0.8-1.2c0.7-1.3,1.4-2.9,2.2-4.1c0-0.1,0.1-0.1,0.1,0c-1,2.9-2.3,6.9-3.5,10c-0.4,1-0.9,2.3-1.6,2.9
		C13.2,22.9,12.5,23.1,12,22.9z M14.7,17.7c0.2-0.5,0.7-1.3,0.5-1.8C15.1,16.4,14.5,17.1,14.7,17.7z M12.7,21.9
		c0.2-0.6,0.6-1.5,0.6-2.1C12.8,20.2,12.3,21.3,12.7,21.9z"/>
	<path fill-rule="evenodd" clip-rule="evenodd" fill="#FFFFFF" d="M19.4,21.2c-0.2,0.1-1-0.2-1.4,0c0.3-1,0.6-2.4,0.3-3.6
		c0.2-0.1,0.2,0.4,0.4,0.7C19,19.2,19.4,20.4,19.4,21.2z"/>
	<path fill-rule="evenodd" clip-rule="evenodd" fill="#FFA31D" d="M8.6,19.6c0.6,0.6,1.1,1.3,1.9,1.7c-0.1,1.1,0.1,2,0.8,2.4
		c-0.9-0.1-1.5-1.2-2.2-1.9c-0.2-0.2-0.5-0.5-0.6-0.8C8.4,20.6,8.7,20.1,8.6,19.6z"/>
	<path fill-rule="evenodd" clip-rule="evenodd" fill="#FFFFFF" d="M17.8,21.8c0.6,0,1,0.1,1.5,0.1c0,0.3-0.1,0.5-0.1,0.8
		c-0.5,0.1-1.3,0-1.7,0.2c0.4,0.2,1.1,0,1.6,0c0,0.4,0,0.8,0,1.2c-1.8-0.1-2.8,0.7-4,1.3c-0.1,0.1,0,0,0-0.1
		C16.2,24.3,17.2,23.3,17.8,21.8z"/>
</g>
<path fill="#492727" d="M195.9,10.7L195.9,10.7c-0.9,0-1.6-0.7-1.6-1.6l0,0c0-0.9,0.7-1.6,1.6-1.6l0,0c0.9,0,1.6,0.7,1.6,1.6l0,0
	C197.5,10,196.8,10.7,195.9,10.7z"/>
<path fill="#492727" d="M202.4,10.7L202.4,10.7c-0.9,0-1.6-0.7-1.6-1.6l0,0c0-0.9,0.7-1.6,1.6-1.6l0,0c0.9,0,1.6,0.7,1.6,1.6l0,0
	C203.9,10,203.2,10.7,202.4,10.7z"/>
<path fill="#492727" d="M252.7,10.7L252.7,10.7c-0.9,0-1.6-0.7-1.6-1.6l0,0c0-0.9,0.7-1.6,1.6-1.6l0,0c0.9,0,1.6,0.7,1.6,1.6l0,0
	C254.3,10,253.6,10.7,252.7,10.7z"/>
<path fill="#492727" d="M259.2,10.7L259.2,10.7c-0.9,0-1.6-0.7-1.6-1.6l0,0c0-0.9,0.7-1.6,1.6-1.6l0,0c0.9,0,1.6,0.7,1.6,1.6l0,0
	C260.7,10,260,10.7,259.2,10.7z"/>
</svg>
