<?xml version="1.0" encoding="utf-8"?>
<!-- Generator: Adobe Illustrator 19.0.0, SVG Export Plug-In . SVG Version: 6.00 Build 0)  -->
<svg version="1.1" id="Layer_2" xmlns="http://www.w3.org/2000/svg" xmlns:xlink="http://www.w3.org/1999/xlink" x="0px" y="0px"
	 viewBox="-93 377 425 40" style="enable-background:new -93 377 425 40;" xml:space="preserve">
<style type="text/css">
	.st0{fill:#492727;}
	.st1{fill:#FFC440;}
	.st2{fill:#FFFFFF;}
	.st3{fill:#FFA31D;}
</style>
<g>
	<path class="st0" d="M-35.4,409.5c-1.2,0.3-2.1,0.4-2.8,0.5s-1.6,0.1-2.9,0c-0.4-0.2-0.6-0.5-0.5-1c0-0.4,0.6-0.6,1.9-0.7
		c0-0.2,0-0.4,0-0.6c0-0.6,0.1-1.4,0.2-2.3c0.1-0.9,0.2-1.6,0.2-2c0,0-0.2-0.2-0.5-0.4s-0.4-0.5-0.4-0.7c0-0.4,0.1-0.7,0.4-0.9
		c0.3-0.2,0.5-0.4,0.7-0.6c0.1-3.2,0.2-5.1,0.2-5.7c0-0.1-0.1-0.6-0.2-1.3c-0.1-0.7-0.2-1.4-0.2-1.9c0-0.2,0-0.5,0-0.7
		c-0.6-0.1-1.3-0.2-2.1-0.4c-0.3-0.1-0.4-0.2-0.5-0.3s-0.1-0.2,0-0.2c0-0.1,0.1-0.1,0.2-0.2c0.1-0.1,0.2-0.1,0.2-0.2
		c0.6-0.3,1.6-0.5,3.1-0.4c2,0.1,3.1,0.3,3.1,0.8c0,0.4-0.1,0.7-0.5,1c-0.7,0-1.1,0-1.3,0c0,0.6,0,1.4,0,2.2c0,2.3,0.1,3.7,0.1,4.1
		c0,0.5,0,0.9-0.1,1.3c0.6,0,1.2-0.2,1.9-0.6c0.5-0.2,1.2-0.6,2.1-1.2c1.2-0.6,3.2-2.3,6.3-5.2c-0.4,0-0.8-0.1-1.3-0.1
		c-0.8-0.4-1-0.7-0.5-1.1c0.4-0.4,1.6-0.6,3.6-0.7c1.6,0,2.5,0.1,2.8,0.5c0.1,0.2,0.1,0.3,0.1,0.3s-0.1,0.2-0.3,0.4
		c-0.9,0.2-1.7,0.4-2.4,0.5l0,0c-0.1,0.2-0.3,0.5-0.7,0.8c-1.7,1.5-3.5,3.2-5.4,5.1c0.2,0.4,0.6,1.1,1.2,2c0.3,0.5,0.7,1.1,1.3,1.9
		c2.9,3.3,4.5,5.4,4.8,6.2c1,0,1.8,0.2,2.2,0.4c0.1,0,0.1,0.1,0.2,0.2c0.1,0.1,0.1,0.1,0.2,0.2c0,0.1,0,0.1,0,0.2
		c0,0.1-0.2,0.2-0.5,0.3c-1.2,0.3-2.1,0.4-2.8,0.5c-0.7,0.1-1.6,0.1-2.9,0c-0.4-0.2-0.6-0.5-0.5-1c0-0.3,0.4-0.5,1.1-0.6
		c-0.7-0.9-1.7-2.1-2.9-3.8c-2.3-3.2-3.6-4.9-3.8-4.9c-0.3,0-0.9,0.3-1.9,0.9c-1.1,0.7-1.9,1.4-2.3,2c-0.2,0.3-0.4,1.2-0.6,2.8
		c0,0.1,0,0.2,0.2,0.4c0.1,0.2,0.2,0.4,0.3,0.5c0.1,0.4,0.1,1,0,1.8c0,0.2,0,0.4,0,0.5c1.3,0.1,2,0.3,2.2,0.6v0.1v0.1
		c0,0,0,0.1,0,0.2C-35.3,409.4-35.3,409.5-35.4,409.5z"/>
	<path class="st0" d="M-0.6,408.7c-0.2,0.3-0.7,0.5-1.4,0.5c0,0-0.6,0-1.8,0.1c-0.2,0-0.8,0.1-1.9,0.3c-0.8,0.1-1.3,0.1-1.4,0.1
		c-0.2-0.1-0.3-0.4-0.4-0.8s0-0.7,0.1-0.8c0.2-0.3,0.7-0.4,1.4-0.5v-0.3c0-0.7-0.4-2.2-1.2-4.6c-0.9,0.2-2.4,0.6-4.3,1.4
		c-1.7,0.7-3.2,1.2-4.4,1.5c-0.1,0.7-0.3,1.4-0.5,2.2c1.2,0.1,1.9,0.3,2.1,0.6c0,0.1,0,0.2,0.1,0.3c0.1,0.1,0,0.2-0.2,0.4
		c-1.1,0.3-2,0.5-2.6,0.5c-0.7,0-1.6,0-2.8,0c-0.4-0.2-0.5-0.6-0.5-1c0-0.3,0.6-0.6,1.5-0.7c0-0.4,0.2-0.8,0.5-1.4
		c-0.4,0.2-0.8,0.2-1.2,0.2c-0.8-0.1-1.1-0.4-0.9-0.9c0.2-0.3,0.7-0.5,1.5-0.9c0.8-0.3,1.2-0.5,1.2-0.6c1.1-3.3,3.1-8.2,5.9-14.5
		c0.7-0.9,1.6-0.3,2.8,1.9c1.4,3.1,2.5,5.8,3.3,8.1c0.2,0.7,0.4,1,0.5,1c0.5-0.1,1.1-0.1,1.6-0.2c0.9,0,1.3,0.2,1.2,0.6
		c-0.3,0.2-0.8,0.4-1.5,0.6c-0.6,0.2-0.9,0.4-0.9,0.5c0,0.2,0.3,1,0.8,2.4c0.5,1.2,0.9,2.3,1.2,3.1c1,0.1,1.5,0.2,1.7,0.4
		C-0.8,408.3-0.6,408.5-0.6,408.7z M-7.7,401.2c-0.3-1-0.8-2.3-1.5-3.9c-0.9-2-1.4-3.3-1.6-3.9c-0.2-0.2-0.4-0.4-0.5-0.4
		c-0.1,0-0.2,0.1-0.4,0.2c-0.2,0.6-0.5,1.2-1,2c-0.6,0.9-0.9,1.5-1.1,1.9c0.1,0.3,0.1,0.6,0.1,1.1c-0.1,0.2-0.3,0.5-0.5,0.8
		c-0.3,0.3-0.4,0.6-0.5,0.7c-0.1,0.5-0.3,1.2-0.4,2c-0.1,1-0.2,1.7-0.2,1.9l1.1-0.3C-12,402.5-9.9,401.8-7.7,401.2z"/>
	<path class="st0" d="M2.1,409.5c-0.3-0.1-0.4-0.1-0.5-0.2c-0.1-0.1-0.1-0.1-0.1-0.2s0.1-0.1,0.1-0.2c0.1-0.1,0.1-0.1,0.2-0.2
		c0.5-0.2,1.2-0.4,1.9-0.5h0.1c-0.1-0.3-0.2-0.7-0.3-1.2c-0.1-0.6-0.2-1.5-0.5-2.6c-0.1,0-0.3-0.1-0.4-0.2c-0.3-0.2-0.4-0.4-0.4-0.7
		c0.3-0.6,0.4-1,0.4-1.2c0-0.3-0.1-0.9-0.2-1.7c-0.1-0.8-0.2-1.2-0.2-1.3c0-2.6,0.1-4.4,0.2-5.3l0.4-2.6c-0.6,0-1.3,0-2.1-0.1
		c-0.4-0.2-0.5-0.5-0.4-0.8c0.2-0.5,1.2-0.8,3-0.9c1.1-0.1,2.4-0.1,3.7-0.1c3.8,0,6.5,1,8.3,3.1c0.3,0.3,0.5,0.8,0.8,1.3
		c0.2,0.6,0.3,1,0.3,1.3c0,0.3-0.3,1.1-0.8,2.3c-0.5,1.2-1,2.1-1.6,2.5c-0.4,0.2-0.8,0.7-1.4,1.3c-0.5,0.6-1,1-1.3,1.2
		c-0.5,0.3-1.7,0.7-3.5,1.3c-1.5,0.6-2.3,0.9-2.3,1c0,0.2,0,0.5,0.1,0.8c0.3,0.9,0.4,1.6,0.4,2.2v0.1c1.7,0,2.5,0.2,2.6,0.4
		c0.1,0.4-0.1,0.8-0.4,1c-1.9,0.1-3.2,0.1-4.1,0.1C3.4,409.7,2.7,409.6,2.1,409.5z M14.3,396c0-1.3-0.8-2.4-2.5-3.5
		c-1.5-0.9-3-1.4-4.3-1.4c-0.1,0-0.5,0-1.2,0s-1.3,0.1-1.8,0.1c-0.1,0.7-0.2,1.6-0.2,2.7c0,1.4,0.1,3,0.3,4.9c0.3,2.6,0.6,3.9,1,3.9
		c1.6,0,3.4-0.5,5.2-1.8c0.8-0.5,1.6-1.3,2.4-2.4C13.9,397.5,14.3,396.6,14.3,396z"/>
	<path class="st0" d="M34.3,390.8c0,0.1-0.1,0.8-0.2,2.1c-0.2,1.5-0.3,2.5-0.4,3c-0.1,0.4-0.2,0.6-0.5,0.7c-0.4,0-0.7-0.2-0.8-0.4
		c-0.2-0.3-0.2-0.5-0.2-0.7v-1c-0.1,0-0.1,0-0.2,0c-0.2-0.1-0.3-0.2-0.4-0.3c-0.1-0.1-0.1-0.2-0.2-0.2s-0.2-0.7-0.5-2
		c-0.2-0.9-0.6-1.3-1.1-1.3c-1.6-0.1-3.2,0.4-4.7,1.5c-3,3-4.5,5.7-4.5,7.9c0,2.6,0.8,4.5,2.5,5.8c1.6,1.2,3.7,1.9,6.4,1.9
		c0.6,0,1.5-0.2,2.6-0.6c1-0.4,2-0.7,2.9-1.1l0.4,0.1l0.1,0.4c-0.1,0.4-0.8,1-1.9,1.7c-1.1,0.7-2.2,1.2-3.1,1.5
		c-0.7,0.2-1.5,0.3-2.5,0.3c-1.9,0.1-3.7-0.4-5.5-1.4c-1.3-0.8-2.5-2.1-3.3-3.8c-0.4-1.3-0.7-2.5-0.7-3.6c0-1.4,0.5-3.1,1.4-5
		c1-2,2.3-3.7,3.8-5.1c1.7-1.5,3.5-2.3,5.3-2.3c1.3,0,2.4,0.7,3.4,2.1c0.1-0.4,0.1-0.8,0.3-1c0.3-0.8,0.6-1.2,0.8-1.3
		c0.3,0,0.6,0.1,0.8,0.4C34.3,389.5,34.3,390,34.3,390.8z"/>
	<path class="st0" d="M48.6,389c0.2-0.4,0.7-0.6,1.5-0.4c0.6,0.2,0.6,1,0.2,2.4c-0.1,0.8-0.2,1.8-0.3,2.9c0,0.6-0.2,1.1-0.5,1.3
		c-0.5,0-0.8-0.1-1-0.4c-0.1-0.3-0.2-0.7-0.3-1.3c0-0.5,0-0.8,0-0.9c0-0.2-0.1-0.3-0.1-0.5c-0.1-0.3-0.4-0.6-0.9-0.8
		c-0.9-0.4-1.6-0.6-2.1-0.6c-1.8,0-3,0.6-3.6,1.6c0.2,0.4,0.1,0.9-0.3,1.5c-0.6,0.9,0.2,1.9,2.3,3c3.1,1.1,5.2,2.3,6.4,3.5
		c1.1,1.5,1.3,3.2,0.7,5.1c-0.6,1.5-1.8,2.7-3.5,3.6c-1.3,0.7-2.8,1-4.7,1c-1.2,0-2.3-0.4-3.4-1.2c-0.7-0.7-1.2-1.5-1.4-2.3
		s-0.1-1.5,0.3-2.2c0.4-0.5,0.9-0.8,1.5-0.9c1.5,0,2.1,0.7,1.9,2.1c-0.3,0.9-0.8,1.1-1.6,0.7c-0.1,0.8,0.3,1.5,1.4,2
		c1.3,0.5,2.6,0.4,4-0.2c0.1-0.4,0.8-0.9,2-1.3c0.9-0.3,1.4-1.4,1.4-3.4c0-0.9-0.4-1.6-1.1-2.2c-0.8-0.7-1.9-1.3-3.1-1.7
		c-1.6-0.4-2.5-0.9-3-1.2c-1.5-0.9-2.3-2.1-2.6-3.7c-0.1-1.3,0.3-2.4,1.2-3.5c1-1.1,2.3-1.6,3.8-1.7c1.5-0.1,2.9,0.2,4.2,1
		c0.1,0.4,0.3,0.4,0.5,0C48.5,389.8,48.5,389.4,48.6,389z"/>
	<path class="st0" d="M73.8,400.5c0,1.5-0.5,3-1.5,4.7c-1,1.6-2.2,2.6-3.4,2.9c0,0.1-0.1,0.4-0.2,0.6c-0.8,0.3-1.5,0.6-2.3,0.9
		c-0.8,0.3-1.7,0.5-2.5,0.5c-0.9,0.1-1.9-0.1-3.1-0.4c-2-0.9-3.6-2-4.8-3.5c-1.7-2.2-2.6-4.1-2.6-5.5c0-2.4,0.7-4.6,2-6.6
		c0.5-0.9,1.5-1.9,3-3c1.7-1.3,3-2,4-2c0.3,0,0.6,0.1,0.9,0.3c1.5,0,3.1,0.5,4.8,1.4c1.9,1,3.4,2.4,4.6,4.1c0.3,0.4,0.5,1.2,0.9,2.6
		C73.6,398.9,73.8,399.8,73.8,400.5z M71.9,399.8c0-1.1-0.3-2.2-0.8-3.3c-0.6-1.4-1.6-2.5-2.8-3.3c-0.5-0.3-1.1-0.6-1.9-0.9
		c-0.5-0.2-0.9-0.3-1.3-0.3s-0.8,0.3-1.1,0.8l-0.6-0.4c-0.3-0.3-0.6-0.5-1-0.7c-1,0.8-1.7,1.2-2.1,1.2c-0.1,0-0.3,0-0.5,0
		s-0.4,0-0.5,0c-0.3,0-0.7,0.2-1.3,0.6c-0.7,0.5-1.2,1.2-1.6,2c-0.7,1.4-1.1,2.8-1.1,4.3c0,0.3,0.2,1,0.6,2.2
		c0.7,1.8,1.9,3.3,3.6,4.4c1.6,1.1,3.2,1.6,4.7,1.6c1,0,2.3-0.4,3.8-1.3c1.6-0.9,2.7-1.9,3.4-3c0.1-0.2,0.2-0.5,0.2-1
		c0-0.6,0-0.9,0-0.9c0-0.2,0.1-0.5,0.2-1C71.9,400.2,71.9,399.9,71.9,399.8z"/>
	<path class="st0" d="M81.7,390c-0.7,0.2-1.2,0.3-1.8,0.4c0.2,0.7,0.3,1.9,0.2,3.8c-0.1,1.3-0.4,3.6-0.8,6.9
		c-0.1,0.7-0.2,1.5-0.4,2.5c-0.1,1.2-0.1,2.2,0.3,3c0.1,0.3,0.1,0.6,0.2,0.8c0.1,0.1,0.6,0.2,1.3,0.2c0.1,0,0.6,0,1.5-0.1
		s1.5-0.1,1.8-0.1c0.6,0,1.6,0.1,2.9,0.2c1.3,0.1,1.9,0.1,2,0.1c-0.1,0,0.2,0,0.9-0.1c0-1.5,0-2.6,0.2-3.2c0.1-0.4,0.6-0.5,1.2-0.4
		c0.3,0.8,0.5,1.6,0.5,2.5c0,0-0.1,0.6-0.2,1.9c0,0.4-0.3,0.9-0.7,1.3c-0.1,0-0.4-0.1-0.6-0.4c-0.1-0.1-0.2-0.3-0.3-0.4
		c-0.9,0.2-2,0.3-3.2,0.3c-1.9,0.1-3.4,0.1-4.7,0.1c-2.3,0.1-3.5,0.2-3.7,0.2h-0.1c-0.1,0-0.5,0-1.1,0s-0.9,0-1.1,0
		c-0.3,0-0.6-0.1-0.9-0.4v-0.6c0-0.6,0.6-1,1.8-1.1c-0.1-0.7-0.1-1.5-0.1-2.2c0-0.2,0.2-1.7,0.6-4.6c0.4-2.9,0.6-4.5,0.6-4.7
		c0.1-1.7,0.1-3.1,0-4.1c-0.1-0.7-0.1-1.1-0.2-1.4c-0.5,0-1.1,0-1.7-0.1c-0.4-0.2-0.6-0.5-0.5-1c0-0.5,1.1-0.7,3.1-0.8
		c1.8,0.1,2.9,0.3,3.1,0.6v0.1v0.1c0,0,0,0.1,0,0.2C81.8,389.9,81.7,389.9,81.7,390z"/>
	<path class="st0" d="M112.5,408.7c-0.2,0.3-0.7,0.5-1.4,0.5c0,0-0.6,0-1.8,0.1c-0.2,0-0.8,0.1-1.9,0.3c-0.8,0.1-1.3,0.1-1.4,0.1
		c-0.2-0.1-0.3-0.4-0.4-0.8c-0.1-0.4,0-0.7,0.1-0.8c0.2-0.3,0.7-0.4,1.4-0.5v-0.3c0-0.7-0.4-2.2-1.2-4.6c-0.9,0.2-2.4,0.6-4.3,1.4
		c-1.7,0.7-3.2,1.2-4.4,1.5c-0.1,0.7-0.3,1.4-0.5,2.2c1.2,0.1,1.9,0.3,2.1,0.6c0,0.1,0,0.2,0.1,0.3c0.1,0.1,0,0.2-0.2,0.4
		c-1.1,0.3-2,0.5-2.6,0.5c-0.7,0-1.6,0-2.8,0c-0.4-0.2-0.5-0.6-0.5-1c0-0.3,0.6-0.6,1.5-0.7c0-0.4,0.2-0.8,0.5-1.4
		c-0.4,0.2-0.8,0.2-1.2,0.2c-0.8-0.1-1.1-0.4-0.9-0.9c0.2-0.3,0.7-0.5,1.5-0.9c0.8-0.3,1.2-0.5,1.2-0.6c1.1-3.3,3.1-8.2,5.9-14.5
		c0.7-0.9,1.6-0.3,2.8,1.9c1.4,3.1,2.5,5.8,3.3,8.1c0.2,0.7,0.4,1,0.5,1c0.5-0.1,1.1-0.1,1.6-0.2c0.9,0,1.3,0.2,1.2,0.6
		c-0.3,0.2-0.8,0.4-1.5,0.6c-0.6,0.2-0.9,0.4-0.9,0.5c0,0.2,0.3,1,0.8,2.4c0.5,1.2,0.9,2.3,1.2,3.1c1,0.1,1.5,0.2,1.7,0.4
		C112.3,408.3,112.5,408.5,112.5,408.7z M105.4,401.2c-0.3-1-0.8-2.3-1.5-3.9c-0.9-2-1.4-3.3-1.6-3.9c-0.2-0.3-0.4-0.4-0.5-0.4
		s-0.2,0.1-0.4,0.2c-0.2,0.6-0.5,1.2-1,2c-0.6,0.9-0.9,1.5-1.1,1.9c0.1,0.3,0.1,0.6,0.1,1.1c-0.1,0.2-0.3,0.5-0.5,0.8
		c-0.3,0.3-0.4,0.6-0.5,0.7c-0.1,0.5-0.3,1.2-0.4,2c-0.1,1-0.2,1.7-0.2,1.9l1.1-0.3C101,402.5,103.2,401.8,105.4,401.2z"/>
	<path class="st0" d="M123.5,408.8c-1.1,0.4-2.2,0.5-3.4,0.5c-0.9,0-1.6,0.1-2.3,0.2s-1,0.2-1.2,0.2c-0.3,0-0.7-0.4-1-1.1
		c0-0.7,0.8-1.1,2.5-1.1c-0.2-1.1-0.2-2.7-0.2-4.9c0.1-2.3,0.2-5.5,0.3-9.7c-0.1-0.1-0.2-0.4-0.3-0.8c-2.2-0.2-4-0.4-5.3-0.5
		c0,1.8,0,2.9-0.1,3.5c-0.1,0.4-0.6,0.5-1.3,0.4c-0.4-0.8-0.6-1.6-0.6-2.5c0.1-2.4,0.4-3.6,1-3.6c0.3-0.1,0.6,0.1,0.9,0.5
		c2,0.1,4,0.2,6,0.3c0.1,0,0.2-0.1,0.4-0.2c0.1-0.2,0.4-0.3,0.6-0.3c0.4,0,0.8,0.2,1.3,0.5c0.6,0.2,1.3,0.3,2.1,0.3
		c1,0,1.9,0,2.6,0.1c0-0.3,0-0.6,0.1-0.8c0.5-0.1,0.8-0.1,1-0.1c0.2,0.1,0.4,0.4,0.6,0.8l0.1,1.4c0.1,0.7,0,1.5-0.2,2.3
		c-0.2,0.8-0.5,1.2-0.7,1.3c-0.4,0-0.6-0.1-0.8-0.4c-0.1-0.2-0.1-1.3-0.2-3.3c-0.4,0.3-1.2,0.4-2.1,0.4c-1.2,0-2.1,0.1-2.8,0.1
		c0,0.3-0.1,0.7-0.4,1.2c-0.2,0.5-0.3,0.8-0.3,1.1c0.1,2.6,0,4.4-0.2,5.4c-0.1,0.4-0.1,0.8-0.1,1.2c0,0.4,0,0.9,0.1,1.6
		c0.1,0.7,0.1,1.2,0.1,1.5c0,0.1-0.1,0.3-0.2,0.5c-0.1,0.2-0.2,0.4-0.2,0.5c0,0.1,0.1,0.3,0.3,0.5c0.2,0.3,0.3,0.5,0.3,0.6
		s0.1,0.4,0.2,0.7c0,0.2,0.1,0.4,0.1,0.6c1.7,0.1,2.6,0.2,2.9,0.5c0,0.1,0,0.2,0.1,0.3S123.7,408.6,123.5,408.8z"/>
	<path class="st0" d="M152,390.2c0.1-0.4,0.6-0.5,1.2-0.4c0.4,0.2,0.5,1,0.5,2.5c0,0-0.1,0.6-0.2,1.9c0,0.4-0.3,0.9-0.7,1.3
		c-0.1,0-0.3-0.1-0.6-0.4c-0.2-0.2-0.4-0.5-0.3-0.8c0-1-0.1-1.9,0-2.6h-1c-4.5,0-7.1,0.2-7.9,0.5c-1,1.6-1.5,4.1-1.6,7.5
		c3.1-0.1,5.1-0.1,6.1-0.1c0-0.4,0.1-0.9,0.1-1.6c0-0.4,0.3-0.9,0.7-1.3c0.1,0,0.3,0,0.6,0.1c0.2,0.1,0.4,0.4,0.4,1
		c0.1,2.6,0,4.2-0.1,5c-0.1,0.5-0.5,0.6-1.2,0.2c-0.3-0.5-0.5-1.1-0.6-1.7h-0.2c-1.3,0.1-2.4,0.2-3.3,0.2c-0.9,0.1-1.7,0.2-2.4,0.3
		c0.1,2.2,0.2,3.9,0.4,5.3c2.5,0,5.2-0.1,8.2-0.2c1.1-0.1,2.1-0.2,2.8-0.5c0-0.3,0.1-1.1,0.2-2.4c0.2-0.6,0.4-1,0.7-1.2
		c0.3,0,0.5,0.1,0.7,0.2c0.1,0.1,0.3,0.4,0.5,0.7c0.1,2.4,0.1,4-0.1,4.9c-0.2,0.4-0.6,0.6-1.4,0.4c-0.2-0.3-0.3-0.6-0.4-1
		c-0.4,0.2-1,0.4-1.7,0.6c-1.3,0.3-3.3,0.6-6,0.8c-3.8,0.1-6.3,0.1-7.6,0c-0.4-0.3-0.6-0.7-0.6-1.2s0.8-0.8,2.3-0.9
		c-0.3-2.5-0.5-4.2-0.4-4.8c-0.7-0.3-1.2-0.5-1.2-0.7c0-0.5,0.2-1,0.6-1.4l0.6-0.6c0.1-0.3,0.3-1.3,0.6-3.3c0.3-1.4,0.6-2.5,0.9-3.4
		c0-0.2,0.1-0.5,0.2-0.9c-1.5,0.1-2.4,0.1-2.7,0c-0.6-0.2-0.7-0.5-0.4-1c0.2-0.6,1.1-1,2.7-1c2.3-0.2,5-0.3,8-0.4
		C149.1,390,150.4,390.1,152,390.2z"/>
	<path class="st0" d="M167.7,389c0.2-0.4,0.7-0.6,1.5-0.4c0.6,0.2,0.6,1,0.2,2.4c-0.1,0.8-0.2,1.8-0.3,2.9c0,0.6-0.2,1.1-0.5,1.3
		c-0.5,0-0.8-0.1-1-0.4c-0.1-0.3-0.2-0.7-0.3-1.3c0-0.5,0-0.8,0-0.9c0-0.2-0.1-0.3-0.1-0.5c-0.1-0.3-0.4-0.6-0.9-0.8
		c-0.9-0.4-1.6-0.6-2.1-0.6c-1.8,0-3,0.6-3.6,1.6c0.2,0.4,0.1,0.9-0.3,1.5c-0.6,0.9,0.2,1.9,2.3,3c3.1,1.1,5.2,2.3,6.4,3.5
		c1.1,1.5,1.3,3.2,0.7,5.1c-0.6,1.5-1.8,2.7-3.5,3.6c-1.3,0.7-2.8,1-4.7,1c-1.2,0-2.3-0.4-3.4-1.2c-0.7-0.7-1.2-1.5-1.4-2.3
		s-0.1-1.5,0.3-2.2c0.4-0.5,0.9-0.8,1.5-0.9c1.5,0,2.1,0.7,1.9,2.1c-0.3,0.9-0.8,1.1-1.6,0.7c-0.1,0.8,0.3,1.5,1.4,2
		c1.3,0.5,2.6,0.4,4-0.2c0.1-0.4,0.8-0.9,2-1.3c0.9-0.3,1.4-1.4,1.4-3.4c0-0.9-0.4-1.6-1.1-2.2c-0.8-0.7-1.9-1.3-3.1-1.7
		c-1.6-0.4-2.5-0.9-3-1.2c-1.5-0.9-2.3-2.1-2.6-3.7c-0.1-1.3,0.3-2.4,1.2-3.5c1-1.1,2.3-1.6,3.8-1.7c1.5-0.1,2.9,0.2,4.2,1
		c0.1,0.4,0.3,0.4,0.5,0C167.6,389.8,167.6,389.4,167.7,389z"/>
	<path class="st0" d="M197.8,409c-0.9,0.1-1.7,0.2-2.4,0.2c-0.7,0-1.7,0-3,0c-0.3-0.3-0.4-0.7-0.4-1.1c0-0.3,0.4-0.5,1.2-0.5
		c-0.2-0.4-0.4-0.9-0.6-1.5c-0.8-2-1.5-3.1-2-3.1c-0.3,0-1.1,0.2-2.4,0.6s-2.5,0.6-3.6,0.7c0.1,1.1,0.3,2.3,0.7,3.5
		c0.8,0.1,1.4,0.3,1.8,0.5c0.3,0.3,0.4,0.4,0.4,0.6c0,0.2-0.2,0.2-0.5,0.4c-1.3,0.1-2.3,0.1-3,0.2c-0.6,0-1.6,0-2.9,0
		c-0.4-0.2-0.6-0.5-0.5-1c0-0.4,0.9-0.7,2.5-0.8c-0.1-0.2-0.1-0.4-0.1-0.6l-0.3-2.6c-0.5-0.1-0.8-0.3-0.8-0.6
		c-0.1-0.3,0.2-0.6,0.9-0.8c0-1.2,0-3.1,0.2-5.6c0.1-1.6,0.1-2.9,0.1-3.9s0-1.5-0.2-1.7c-1.5,0-2.2-0.2-2.1-0.8
		c-0.3-0.5,0.4-0.8,2.2-1c1.1-0.1,2.5-0.1,4.1,0.1c2.1,0.1,3.9,0.6,5.6,1.5c2.6,1.4,3.8,2.9,3.8,4.5c0,1.2-1.2,3.1-3.6,5.7
		c0.3,0.4,0.8,1.2,1.4,2.4c0.3,0.6,0.6,1.3,0.8,2c0.1,0.5,0.3,0.8,0.3,1.1c1.2,0.1,2,0.2,2.6,0.5c0.1,0.1,0.1,0.1,0.2,0.2
		s0.1,0.2,0.2,0.3c0.1,0.1,0,0.2-0.1,0.3C198.3,408.8,198.1,408.9,197.8,409z M193.7,395.9c0-1-0.8-1.9-2.4-2.9
		c-1.8-0.8-3.7-1.3-5.8-1.4c-0.3,0-0.5,0.4-0.6,1.2c-0.2,0.7-0.3,1.4-0.3,2c0,0.1,0,0.2,0.1,0.4c0.1,0.1,0.1,0.4,0.1,0.6l-0.1,3
		c0,1.2-0.1,2.2-0.2,2.9c0,0,0,0.1,0,0.3c-0.1,0.1-0.1,0.3-0.1,0.4s0,0.2,0.1,0.3l1.7-0.4c1.8-0.6,3.2-1.2,4.2-1.8
		C192.6,399.1,193.7,397.5,193.7,395.9z"/>
	<path class="st0" d="M214.3,390.2c0.1-0.4,0.6-0.5,1.2-0.4c0.4,0.2,0.5,1,0.5,2.5c0,0-0.1,0.6-0.2,1.9c0,0.4-0.3,0.9-0.7,1.3
		c-0.1,0-0.3-0.1-0.6-0.4c-0.2-0.2-0.4-0.5-0.3-0.8c0-1-0.1-1.9,0-2.6h-1c-4.5,0-7.1,0.2-7.9,0.5c-1,1.6-1.5,4.1-1.6,7.5
		c3.1-0.1,5.1-0.1,6.1-0.1c0-0.4,0.1-0.9,0.1-1.6c0-0.4,0.3-0.9,0.7-1.3c0.1,0,0.3,0,0.6,0.1c0.2,0.1,0.4,0.4,0.4,1
		c0.1,2.6,0,4.2-0.1,5c-0.1,0.5-0.5,0.6-1.2,0.2c-0.3-0.5-0.5-1.1-0.6-1.7h-0.2c-1.3,0.1-2.4,0.2-3.3,0.2c-0.9,0.1-1.7,0.2-2.4,0.3
		c0.1,2.2,0.2,3.9,0.4,5.3c2.5,0,5.2-0.1,8.2-0.2c1.1-0.1,2.1-0.2,2.8-0.5c0-0.3,0.1-1.1,0.2-2.4c0.2-0.6,0.4-1,0.7-1.2
		c0.3,0,0.5,0.1,0.7,0.2c0.1,0.1,0.3,0.4,0.5,0.7c0.1,2.4,0.1,4-0.1,4.9c-0.2,0.4-0.6,0.6-1.4,0.4c-0.2-0.3-0.3-0.6-0.4-1
		c-0.4,0.2-1,0.4-1.7,0.6c-1.3,0.3-3.3,0.6-6,0.8c-3.8,0.1-6.3,0.1-7.6,0c-0.4-0.3-0.6-0.7-0.6-1.2s0.8-0.8,2.3-0.9
		c-0.3-2.5-0.5-4.2-0.4-4.8c-0.7-0.3-1.2-0.5-1.2-0.7c0-0.5,0.2-1,0.6-1.4l0.6-0.6c0.1-0.3,0.3-1.3,0.6-3.3c0.3-1.4,0.6-2.5,0.9-3.4
		c0-0.2,0.1-0.5,0.2-0.9c-1.5,0.1-2.4,0.1-2.7,0c-0.6-0.2-0.7-0.5-0.4-1c0.2-0.6,1.1-1,2.7-1c2.3-0.2,5-0.3,8-0.4
		C211.4,390,212.7,390.1,214.3,390.2z"/>
	<path class="st0" d="M225.4,409c-1.4,0-2.4,0-3.1,0c-0.7,0.1-1.6,0.1-2.9,0c-0.4-0.2-0.6-0.5-0.5-1c0-0.4,0.9-0.7,2.6-0.8
		c0-0.2,0-0.3,0-0.5c0-1.2-0.1-2.4-0.1-3.6l-0.8-7.1c0-1,0.1-2,0.3-2.9c0-0.1,0.1-0.3,0.2-0.5c-0.7-0.1-1.4-0.4-2-0.7
		c-0.4-0.1-0.7-0.5-0.7-1.1c0-0.3,1.4-0.2,4.1,0.4c1.4,0.5,2.4,1.1,2.9,1.8c0.6,0.7,1.1,1.3,1.5,1.9c1.6,2.4,2.6,4,2.9,4.9
		c0.2,0.6,0.6,1.2,1.2,1.9c0.8,0.9,1.3,1.5,1.4,1.8c0.2-0.3,0.3-0.6,0.3-1c0-0.3,0-0.7,0-1c0-0.6,0.1-1.7,0.2-3.4
		c-0.1-0.9-0.1-2-0.2-3.3c0-0.9,0-1.6-0.1-2.2c0-0.1-0.1-0.3-0.3-0.4c-0.2-0.2-0.2-0.4-0.2-0.5c0-0.1,0-0.2,0.1-0.4
		c-0.4-0.1-0.8-0.1-1.2-0.3c-0.3-0.1-0.4-0.1-0.5-0.2c-0.1-0.1-0.1-0.1-0.1-0.2s0.1-0.1,0.1-0.2c0.1-0.1,0.1-0.1,0.2-0.2
		c0.5-0.2,1.2-0.4,1.9-0.5c2.6-0.1,4,0,4.1,0.4s-0.1,0.8-0.4,1c-0.6,0.1-1.2,0.1-1.7,0.2c0,0.4,0.1,1,0.1,1.6c0,0.8-0.1,1.9-0.2,3.3
		c-0.2,1.5-0.1,4.9,0.2,10c0,0.4,0,0.8,0,1.2s0.1,0.8,0.1,1.2c0,0.6-0.3,1-0.9,1s-1-0.2-1.2-0.6c0-0.1-0.2-0.4-0.4-1.1
		c-0.3-0.3-0.7-0.7-1.1-1.2c-1.3-2.3-2.6-4.6-3.9-7c-2-3.4-3.6-5.6-4.7-6.6c-0.3,0.4-0.4,1.1-0.3,1.9c0,0.3,0,0.9,0.1,1.9
		c0,0.9,0.1,1.5,0,1.9c0.3,1.1,0.4,2.1,0.3,3c0,0.1,0.1,0.3,0.2,0.5c0.1,0.2,0.1,0.5,0.1,0.7c0,0.3-0.1,0.5-0.2,0.8
		c-0.1,0.3-0.2,0.4-0.2,0.5c0,0.1,0.1,0.7,0.4,1.5c0.1,0.6,0.3,1,0.3,1.3c1,0.1,1.7,0.2,2.1,0.4c0.3,0.1,0.5,0.3,0.5,0.5
		C226,408.6,225.8,408.8,225.4,409z"/>
	<path class="st0" d="M240.2,389.3c0.4-0.2,1.8-0.2,4.3-0.1c1.9,0.2,3.7,0.7,5.5,1.4c2.5,1.1,4.4,2.7,5.7,4.9c0.6,1,0.9,2.1,1,3.3
		c-0.1,1.4-0.5,2.6-1.2,3.7c-1,1.5-2.1,2.7-3.3,3.6c-1.3,1-2.8,1.8-4.4,2.4c-1.3,0.5-2.8,0.8-4.3,0.9c-0.9,0.1-2.6,0.1-4.9-0.1
		c-0.4-0.2-0.6-0.6-0.5-1.1s0.9-0.8,2.7-0.9c0-0.4-0.1-0.9-0.2-1.8c-0.1-0.8-0.2-1.5-0.2-2.2c0-1.8,0.2-3.9,0.6-6.3s0.8-4.2,1.3-5.4
		c0.2-0.1,0.5-0.1,0.7,0c0.1,0.3,0.2,0.8,0.2,1.5c0,0-0.2,1.4-0.5,4.2c-0.3,2.8-0.5,4.6-0.5,5.2c0.1,1.2,0.2,2.1,0.3,2.8
		c0.1,0.7,0.2,1.3,0.2,1.8c0.2,0.1,0.5,0.2,1,0.2c1.8,0.2,3.9-0.5,6.3-2c2.8-2.1,4.2-4.2,4.3-6.2c0-1-0.4-2.2-1.3-3.6
		c-1-1.5-2.1-2.5-3.4-3.1c-1.4-0.8-3.3-1.4-5.8-1.8c-0.9-0.1-1.8-0.1-2.7-0.1C239.5,390.5,239.2,390,240.2,389.3z"/>
	<path class="st0" d="M273.3,390.2c0.1-0.4,0.6-0.5,1.2-0.4c0.4,0.2,0.5,1,0.5,2.5c0,0-0.1,0.6-0.2,1.9c0,0.4-0.3,0.9-0.7,1.3
		c-0.1,0-0.3-0.1-0.6-0.4c-0.2-0.2-0.4-0.5-0.3-0.8c0-1-0.1-1.9,0-2.6h-1c-4.5,0-7.1,0.2-7.9,0.5c-1,1.6-1.5,4.1-1.6,7.5
		c3.1-0.1,5.1-0.1,6.1-0.1c0-0.4,0.1-0.9,0.1-1.6c0-0.4,0.3-0.9,0.7-1.3c0.1,0,0.3,0,0.6,0.1c0.2,0.1,0.4,0.4,0.4,1
		c0.1,2.6,0,4.2-0.1,5c-0.1,0.5-0.5,0.6-1.2,0.2c-0.3-0.5-0.5-1.1-0.6-1.7h-0.2c-1.3,0.1-2.4,0.2-3.3,0.2c-0.9,0.1-1.7,0.2-2.4,0.3
		c0.1,2.2,0.2,3.9,0.4,5.3c2.5,0,5.2-0.1,8.2-0.2c1.1-0.1,2.1-0.2,2.8-0.5c0-0.3,0.1-1.1,0.2-2.4c0.2-0.6,0.4-1,0.7-1.2
		c0.3,0,0.5,0.1,0.7,0.2c0.1,0.1,0.3,0.4,0.5,0.7c0.1,2.4,0.1,4-0.1,4.9c-0.2,0.4-0.6,0.6-1.4,0.4c-0.2-0.3-0.3-0.6-0.4-1
		c-0.4,0.2-1,0.4-1.7,0.6c-1.3,0.3-3.3,0.6-6,0.8c-3.8,0.1-6.3,0.1-7.6,0c-0.4-0.3-0.6-0.7-0.6-1.2s0.8-0.8,2.3-0.9
		c-0.3-2.5-0.5-4.2-0.4-4.8c-0.7-0.3-1.2-0.5-1.2-0.7c0-0.5,0.2-1,0.6-1.4l0.6-0.6c0.1-0.3,0.3-1.3,0.6-3.3c0.3-1.4,0.6-2.5,0.9-3.4
		c0-0.2,0.1-0.5,0.2-0.9c-1.5,0.1-2.4,0.1-2.7,0c-0.6-0.2-0.7-0.5-0.4-1c0.2-0.6,1.1-1,2.7-1c2.3-0.2,5-0.3,8-0.4
		C270.5,390,271.7,390.1,273.3,390.2z"/>
	<path class="st0" d="M284,390c-0.7,0.2-1.2,0.3-1.8,0.4c0.2,0.7,0.3,1.9,0.2,3.8c-0.1,1.3-0.4,3.6-0.8,6.9
		c-0.1,0.7-0.2,1.5-0.4,2.5c-0.1,1.2-0.1,2.2,0.3,3c0.1,0.3,0.1,0.6,0.2,0.8c0.1,0.1,0.6,0.2,1.3,0.2c0.1,0,0.6,0,1.5-0.1
		s1.5-0.1,1.8-0.1c0.6,0,1.6,0.1,2.9,0.2s1.9,0.1,2,0.1c-0.1,0,0.2,0,0.9-0.1c0-1.5,0-2.6,0.2-3.2c0.1-0.4,0.6-0.5,1.2-0.4
		c0.3,0.8,0.5,1.6,0.5,2.5c0,0-0.1,0.6-0.2,1.9c0,0.4-0.3,0.9-0.7,1.3c-0.1,0-0.4-0.1-0.6-0.4c-0.1-0.1-0.2-0.3-0.3-0.4
		c-0.9,0.2-2,0.3-3.2,0.3c-1.9,0.1-3.4,0.1-4.7,0.1c-2.3,0.1-3.5,0.2-3.7,0.2h-0.1c-0.1,0-0.5,0-1.1,0s-0.9,0-1.1,0
		c-0.3,0-0.6-0.1-0.9-0.4v-0.6c0-0.6,0.6-1,1.8-1.1c-0.1-0.7-0.1-1.5-0.1-2.2c0-0.2,0.2-1.7,0.6-4.6c0.4-2.9,0.6-4.5,0.6-4.7
		c0.1-1.7,0.1-3.1,0-4.1c-0.1-0.7-0.1-1.1-0.2-1.4c-0.5,0-1.1,0-1.7-0.1c-0.4-0.2-0.6-0.5-0.5-1c0-0.5,1.1-0.7,3.1-0.8
		c1.8,0.1,2.9,0.3,3.1,0.6v0.1v0.1c0,0,0,0.1,0,0.2S284.1,389.9,284,390z"/>
	<path class="st0" d="M310.2,390.2c0.1-0.4,0.6-0.5,1.2-0.4c0.4,0.2,0.5,1,0.5,2.5c0,0-0.1,0.6-0.2,1.9c0,0.4-0.3,0.9-0.7,1.3
		c-0.1,0-0.3-0.1-0.6-0.4c-0.2-0.2-0.4-0.5-0.3-0.8c0-1-0.1-1.9,0-2.6h-1c-4.5,0-7.1,0.2-7.9,0.5c-1,1.6-1.5,4.1-1.6,7.5
		c3.1-0.1,5.1-0.1,6.1-0.1c0-0.4,0.1-0.9,0.1-1.6c0-0.4,0.3-0.9,0.7-1.3c0.1,0,0.3,0,0.6,0.1c0.2,0.1,0.4,0.4,0.4,1
		c0.1,2.6,0,4.2-0.1,5c-0.1,0.5-0.5,0.6-1.2,0.2c-0.3-0.5-0.5-1.1-0.6-1.7h-0.2c-1.3,0.1-2.4,0.2-3.3,0.2c-0.9,0.1-1.7,0.2-2.4,0.3
		c0.1,2.2,0.2,3.9,0.4,5.3c2.5,0,5.2-0.1,8.2-0.2c1.1-0.1,2.1-0.2,2.8-0.5c0-0.3,0.1-1.1,0.2-2.4c0.2-0.6,0.4-1,0.7-1.2
		c0.3,0,0.5,0.1,0.7,0.2c0.1,0.1,0.3,0.4,0.5,0.7c0.1,2.4,0.1,4-0.1,4.9c-0.2,0.4-0.6,0.6-1.4,0.4c-0.2-0.3-0.3-0.6-0.4-1
		c-0.4,0.2-1,0.4-1.7,0.6c-1.3,0.3-3.3,0.6-6,0.8c-3.8,0.1-6.3,0.1-7.6,0c-0.4-0.3-0.6-0.7-0.6-1.2s0.8-0.8,2.3-0.9
		c-0.3-2.5-0.5-4.2-0.4-4.8c-0.7-0.3-1.2-0.5-1.2-0.7c0-0.5,0.2-1,0.6-1.4l0.6-0.6c0.1-0.3,0.3-1.3,0.6-3.3c0.3-1.4,0.6-2.5,0.9-3.4
		c0-0.2,0.1-0.5,0.2-0.9c-1.5,0.1-2.4,0.1-2.7,0c-0.6-0.2-0.7-0.5-0.4-1c0.2-0.6,1.1-1,2.7-1c2.3-0.2,5-0.3,8-0.4
		C307.4,390,308.6,390.1,310.2,390.2z"/>
	<path class="st0" d="M326,389c0.2-0.4,0.7-0.6,1.5-0.4c0.6,0.2,0.6,1,0.2,2.4c-0.1,0.8-0.2,1.8-0.3,2.9c0,0.6-0.2,1.1-0.5,1.3
		c-0.5,0-0.8-0.1-1-0.4c-0.1-0.3-0.2-0.7-0.3-1.3c0-0.5,0-0.8,0-0.9c0-0.2-0.1-0.3-0.1-0.5c-0.1-0.3-0.4-0.6-0.9-0.8
		c-0.9-0.4-1.6-0.6-2.1-0.6c-1.8,0-3,0.6-3.6,1.6c0.2,0.4,0.1,0.9-0.3,1.5c-0.6,0.9,0.2,1.9,2.3,3c3.1,1.1,5.2,2.3,6.4,3.5
		c1.1,1.5,1.3,3.2,0.7,5.1c-0.6,1.5-1.8,2.7-3.5,3.6c-1.3,0.7-2.8,1-4.7,1c-1.2,0-2.3-0.4-3.4-1.2c-0.7-0.7-1.2-1.5-1.4-2.3
		c-0.2-0.8-0.1-1.5,0.3-2.2c0.4-0.5,0.9-0.8,1.5-0.9c1.5,0,2.1,0.7,1.9,2.1c-0.3,0.9-0.8,1.1-1.6,0.7c-0.1,0.8,0.3,1.5,1.4,2
		c1.3,0.5,2.6,0.4,4-0.2c0.1-0.4,0.8-0.9,2-1.3c0.9-0.3,1.4-1.4,1.4-3.4c0-0.9-0.4-1.6-1.1-2.2c-0.8-0.7-1.9-1.3-3.1-1.7
		c-1.6-0.4-2.5-0.9-3-1.2c-1.5-0.9-2.3-2.1-2.6-3.7c-0.1-1.3,0.3-2.4,1.2-3.5c1-1.1,2.3-1.6,3.8-1.7c1.5-0.1,2.9,0.2,4.2,1
		c0.1,0.4,0.3,0.4,0.5,0C325.8,389.8,325.9,389.4,326,389z"/>
</g>
<path class="st0" d="M147.3,381.4c-0.1,0.7-0.3,1.7-0.5,2.9c-0.3,1.2-0.5,2.2-0.7,3.1h1.5c0.4-0.9,0.8-1.9,1.2-3s0.7-2,0.9-2.8
	l-0.2-0.3h-2.2V381.4z"/>
<path class="st0" d="M305.3,381.4c-0.1,0.7-0.3,1.7-0.5,2.9c-0.3,1.2-0.5,2.2-0.7,3.1h1.5c0.4-0.9,0.8-1.9,1.2-3
	c0.4-1.1,0.7-2,0.9-2.8l-0.2-0.3h-2.2V381.4z"/>
<g>
	<path class="st0" d="M-81.4,412.6c0.6,0.2,0.8,1.1,1.4,1.6c0.2,0.2,1,0.7,1.3,0.8c0.3,0,1-0.4,1.4-0.5c0.6-0.2,1.1-0.3,1.6-0.5
		c2.9-1.1,5.8-2.4,8.2-3.7c3.6-1.9,7.1-3.7,10.2-5.7c1.2-0.7,2.1-1.2,3.4-1.9c0.5-0.2,1-0.6,1.7-1c0.6-0.3,1.3-0.6,1.5-1.2
		c0.1-0.4,0-1.2,0.2-1.9c0.1-0.5,0.5-0.6,0.5-1.1c0-0.8-0.7-1.7-1.1-2.5c-0.4-0.9-0.8-1.6-1.2-2.5s-0.9-1.5-1.5-2.2
		c-0.5-0.6-1-1.3-1.5-2.1c-1.4-2.1-2.9-4.3-4.2-6.6c-0.3-0.6-0.9-2-1.4-2.2c-0.3-0.1-0.7,0-0.8,0c-1.2,0.6-2.3,1.2-3.3,1.6
		c-1.1,0.5-2.2,0.8-3.3,1.3c-1,0.5-2.1,1-3.1,1.5c-1.1,0.5-2.2,0.9-3.3,1.4c-1,0.5-2.1,1-3.1,1.5s-2.1,1-3,1.7
		c-0.4,0.3-0.8,0.7-1.3,1.1c-0.9,0.7-1.6,1.3-2.5,2.1c-0.4,0.4-1.1,0.9-1.2,1.2c-0.2,0.5,0,1.4,0,2.1c0,0.8,0.2,1.5,0.1,2
		c0.9,2.3,1.7,5,2.2,7.9c0.4,2.1,0.7,4.3,1.3,6.2C-82,411.5-81.6,412-81.4,412.6z"/>
	<path class="st1" d="M-61.2,380.6c0.4,1.1,1.1,2,1.6,3.1c-0.3,0.1-0.5,0.3-0.7,0.5c-0.1,0.6-0.4,1.2-0.3,2.1
		c-0.7,0.3-1.4,0.6-1.9,1.2c0.2,0.4,0.1,1.2,0.2,1.7c-0.7,0.4-1.3,0.8-2,1.3c-0.6-0.3-1-0.7-1.6-1.1c0.2-1.9-1-2.4-2-3.1
		c0-0.7,0.1-1.5,0.1-2.2c-0.2-0.3-0.6-0.5-0.9-0.7c0.8-0.5,1.6-0.7,2.5-0.9c0.8-0.2,1.5-0.6,2.3-1
		C-62.9,381.2-62.2,380.8-61.2,380.6z M-64.6,383.4c0.5,0,0.7-0.5,1.1-0.7c0.4-0.2,0.9-0.2,1.3-0.5c-0.2,0-0.3-0.1-0.6,0
		c0-0.2,0-0.1,0-0.3C-63.9,381.9-64.6,382.5-64.6,383.4z"/>
	<path class="st2" d="M-68.2,384.5c-0.1,0.5-0.2,1-0.2,1.6c-0.7,0.2-1.2,0.5-1.8,0.8c-0.5-0.4-1.1-0.7-1.8-1c0-0.4,0.1-0.7,0.1-1.2
		c0.8-0.4,1.8-0.9,2.7-1.1C-68.8,383.9-68.6,384.3-68.2,384.5z"/>
	<path class="st2" d="M-59.2,384.4c0.4,0.8,0.9,1.4,1.3,2.2c-0.3,0.1-0.5,0.2-0.7,0.4c-0.5-0.3-1-0.4-1.5-0.7c0-0.6,0.2-1,0.1-1.6
		C-59.6,384.6-59.5,384.4-59.2,384.4z"/>
	<path class="st2" d="M-72.5,385.1c0.1,0.3-0.1,0.6,0,1c-0.7,0.4-1.6,0.5-2.2,1c-0.3-0.1-0.5-0.4-0.8-0.5
		C-74.6,386-73.4,385.6-72.5,385.1z"/>
	<path class="st2" d="M-70.4,387.5c-0.1,0.7-0.2,1.4-0.2,2.2c-0.5,0.2-1,0.4-1.6,0.7c-0.1,0-0.4,0.3-0.4,0.3c-0.2,0-0.7-0.4-1-0.5
		c-0.4-0.2-0.7-0.3-1-0.5c0-0.7,0.1-1.3,0.2-1.9c0.8-0.3,1.4-0.7,2.1-1.1C-71.6,386.9-71.1,387.3-70.4,387.5z M-73.8,389.5
		c0.2-0.3,0.1-1,0.1-1.4C-74.3,388.2-74.2,389.3-73.8,389.5z"/>
	<path class="st2" d="M-66.7,387.8c0,0.5,0.2,0.9,0.2,1.4c-0.4-0.8-0.6-1.8-1.7-2c0.5,0.8,1.2,1.3,1.2,2.7c-0.5,0.2-0.9,0.5-1.3,0.7
		c-0.6-0.2-1-0.5-1.5-0.8c0-0.6,0-1.8,0-2.4c0.5-0.2,1.1-0.4,1.5-0.7C-67.7,386.9-67.3,387.5-66.7,387.8z"/>
	<path class="st2" d="M-74.9,387.8c-0.1,0.5-0.2,1.1-0.1,1.8c-0.5,0.2-0.8,0.6-1.2,0.9c-0.6-0.3-1.2-0.5-1.9-0.8
		c0-0.7,0.2-1.2,0.1-2c0.6-0.3,1.2-0.6,1.8-0.9C-75.7,387.1-75.4,387.5-74.9,387.8z"/>
	<path class="st2" d="M-58.6,387.7c0.1,0.5,0.1,1.1,0.2,1.6c-0.6,0.3-1.2,0.7-1.7,1.1c-0.5-0.2-0.9-0.5-1.5-0.8c0-0.6-0.1-1.1,0-1.8
		c0.5-0.2,0.9-0.5,1.3-0.9C-59.7,387.2-59.1,387.4-58.6,387.7z"/>
	<path class="st2" d="M-55.7,389.7c-0.6,0.7-1.4,0.2-1.9-0.2c-0.1-0.6-0.2-1.3-0.4-1.9c0.1-0.2,0.5-0.2,0.6-0.4
		C-56.8,388-56.3,388.9-55.7,389.7z"/>
	<path class="st2" d="M-78.8,389.4c-0.7,0.3-1.6,0.4-1.9,1.1c-0.4-0.1-0.8-0.3-1-0.6c1-0.6,1.9-1.2,2.9-1.8
		C-78.6,388.4-78.9,388.9-78.8,389.4z"/>
	<path class="st3" d="M-60.5,390.8c0,0.6-0.1,1.1-0.1,1.7c-0.5,0.3-1,0.7-1.5,1c-0.6-0.2-1.1-0.5-1.7-0.8c0-0.6-0.1-1.2-0.1-1.7
		c0.6-0.4,1.3-0.7,1.8-1.2C-61.6,390.1-61.1,390.5-60.5,390.8z"/>
	<path class="st1" d="M-55.3,390.4c2,1.8,2.5,4.9,4.2,7c-1.3,0.9-2.6,1.7-3.9,2.7c-0.5,0.4-1.2,0.7-1.4,1.3
		c-0.3,0.1-0.6,0.6-0.9,0.5c0-0.6-0.1-1.2-0.2-1.7c-0.5-0.5-1.3-0.7-2-1.1c-0.1-0.7,0.1-1.5-0.2-2.1c-0.3-0.8-1.5-1-2-1.6
		c0-0.6-0.1-1.1-0.2-1.6c0.7-0.4,1.4-0.8,2-1.4c0-0.6,0-1.3,0-1.8c0.6-0.2,1.2-0.6,1.7-1c0.6,0.2,1.2,1,1.9,1
		C-55.9,390.8-55.7,390.5-55.3,390.4z M-52.5,397.3c0.2-0.8-0.2-1.8-0.8-2C-53.5,396-53.2,397-52.5,397.3z M-55.5,399.6
		c0.4,0.3,0.8-0.2,1.2-0.5c0.5-0.4,1.2-0.6,1.2-1.2C-54,398.2-54.9,398.8-55.5,399.6z"/>
	<path class="st3" d="M-64.4,392.6c-0.6,0.3-1.2,0.6-1.8,1.1c-0.8-0.2-1.3-0.8-2.1-1.1c0-0.5,0-1,0-1.5c0.9-0.2,1.6-0.6,2.3-1.1
		c0.5,0.4,1,0.7,1.4,1.2C-64.5,391.6-64.5,392.1-64.4,392.6z"/>
	<path class="st2" d="M-76.8,391.1c-0.1,0.7-0.2,1.2-0.3,1.9c-0.7,0.1-1.2,0.5-1.8,0.8c-0.6-0.2-1-0.6-1.5-0.9
		c0.1-0.7,0.2-1.4,0.3-2.1c0.5-0.2,0.9-0.5,1.4-0.7C-78.1,390.4-77.6,390.8-76.8,391.1z M-79.6,392.9c0.1-0.4,0.1-1.1-0.2-1.3
		C-80.1,391.7-80,393-79.6,392.9z"/>
	<path class="st3" d="M-68.8,391c-0.1,0.5-0.2,1.1-0.2,1.7c-0.6,0.3-1.2,0.6-1.8,1.1c-0.4-0.3-0.9-0.6-1.3-0.9
		c0-0.6-0.2-1.1-0.2-1.8c0.8-0.2,1.3-1,2.2-0.9C-69.7,390.6-69.3,390.8-68.8,391z"/>
	<path class="st2" d="M-72.9,391.1c0,0.5-0.1,0.9-0.1,1.5c-0.7,0.5-1.4,0.9-2.1,1.4c-0.5-0.3-0.8-0.7-1.2-1.1c0-0.7,0.1-1.3,0.2-2
		c0.6-0.1,1-0.4,1.5-0.7C-74,390.6-73.5,390.9-72.9,391.1z"/>
	<path class="st2" d="M-81.1,391.2c-0.1,0.4-0.2,0.7-0.1,1.2c-0.6,0.4-1.1,0.8-1.7,1.2c-0.4-0.2-0.7-0.3-1.2-0.4
		c-0.1-0.4-0.1-0.7-0.1-1.2c0.6-0.6,1.3-1.1,1.9-1.6C-81.9,390.7-81.6,391-81.1,391.2z"/>
	<path class="st3" d="M-66.4,394.2c0,0.5,0,1.1,0,1.6c-0.6,0.5-1.4,0.8-2.2,1.2c-0.7-0.2-1.3-0.5-1.9-0.8c0-0.7,0.1-1.2,0.2-1.9
		c0.7-0.4,1.4-0.7,2-1.2C-67.7,393.5-67.2,393.9-66.4,394.2z M-69.9,396.2c0.1-0.5,0.3-1.4-0.1-1.7C-70.2,394.9-70.2,396-69.9,396.2
		z M-69.4,396.1c-0.1,0.3,0.9,0.8,0.9,0.2C-68.7,396.1-69.3,395.8-69.4,396.1z"/>
	<path class="st3" d="M-79.5,394.3c-0.1,0.6-0.3,1.2-0.3,1.9c-0.6,0.1-0.9,1-1.5,1.1c-0.5,0.1-1-0.6-1.5-0.8c0-0.7,0.1-1.2,0.1-1.9
		c0.6-0.4,1.1-0.9,1.8-1.3C-80.4,393.5-80.1,394-79.5,394.3z"/>
	<path class="st3" d="M-70.9,394.4c-0.1,0.7-0.3,1.3-0.4,2.1c-0.7,0.4-1.5,0.7-2.1,1.2c-0.6-0.4-1.1-0.7-1.8-1
		c0.1-0.7,0.2-1.4,0.3-2.1c0.9-0.3,1.5-0.8,2.3-1.2C-71.9,393.7-71.5,394.1-70.9,394.4z M-73.9,396.6c0.2-0.3,0-1-0.3-1.3
		C-74.5,395.7-74.3,396.5-73.9,396.6z"/>
	<path class="st3" d="M-63.9,393.3c0.6,0.2,1.1,0.6,1.7,0.8c-0.1,0.5,0,1.2,0,1.7c-0.5,0.3-1,0.7-1.6,1c-0.7-0.3-1.2-0.7-1.9-1
		c0-0.6-0.1-1.1-0.2-1.7c0.5-0.2,1-0.5,1.5-0.7c0.5,0.2,0.8,0.8,1.4,0.8C-63,393.8-63.7,393.7-63.9,393.3z"/>
	<path class="st2" d="M-75.5,394.6c-0.1,0.7-0.3,1.2-0.4,1.9c-0.5,0.2-0.9,0.4-1.3,0.7c-0.7-0.3-1.4-0.5-2.1-0.8
		c-0.1-0.6,0.1-1.2,0-1.9c0.9,0,1.6-0.6,2.3-1C-76.3,393.7-76,394.2-75.5,394.6z"/>
	<path class="st2" d="M-85,393.8c0,0,0,0.2,0.2,0.2c0,1.6,0.4,2.7,0.9,3.8c0.2,0.6,0.6,1.1,0.8,1.6c0.3,0.9,0.4,2,0.6,2.9
		c0.2,0.9,0.4,1.8,0.8,2.7c-0.1,0.3-0.2,0.8,0,1.1c0.2,0.2,0.2-0.4,0.4-0.2c0.9,1.9,2.1,3.5,3.1,5.4c-0.5,0.7-0.7,1.6-1,2.6
		c-0.3-0.2-0.4-0.6-0.6-0.9c-1.2-1.9-2.3-4.4-2.7-7.2c-0.1-0.4,0-0.8-0.1-1.2c-0.2-1.5-0.6-2.9-1.1-4.3c-0.4-1.3-0.7-2.7-1.3-3.8
		C-84.8,395.7-85,394.6-85,393.8z M-80.6,409.6c-0.1-0.9-0.5-1.6-0.9-2.3h-0.1C-81.7,408.4-81.3,409.2-80.6,409.6z M-79.5,410.1
		c-0.1-0.6-0.2-1.3-0.9-1.4C-80.2,409.3-80,409.8-79.5,410.1z M-79.8,412.3c0.3-0.1,0.3-0.8,0.2-1.2
		C-80.1,411.1-80.1,412.1-79.8,412.3z"/>
	<path class="st2" d="M-83.9,394.2c0.3,0.1,0.4,0.2,0.7,0.4c-0.2,0.4-0.3,0.9-0.3,1.4C-83.8,395.5-83.8,394.8-83.9,394.2z"/>
	<path class="st2" d="M-60.2,397.3c0,0.7,0.1,1.3,0.2,1.9c-0.7,0.1-1,0.8-1.7,0.9c-0.6,0-1.1-0.6-1.8-0.8c0-0.7-0.2-1.1-0.2-1.8
		c0.8-0.2,1.4-0.6,2.1-1C-61.1,396.7-60.6,397-60.2,397.3z M-60.8,398.4c0,0.3,0,0.7,0.3,0.8c0.3-0.5,0.2-1.7-0.2-2.1
		c-0.1,0-0.1,0-0.2,0C-61.1,397.5-60.9,398-60.8,398.4z"/>
	<path class="st3" d="M-64.4,397.3c0.1,0.7,0.1,1.5,0.3,2.2c-0.7,0.2-1.1,0.9-1.8,0.9c-0.7,0-1.3-0.8-2.1-1c0-0.6-0.1-1-0.1-1.6
		c0.8-0.4,1.5-0.8,2.2-1.3C-65.4,396.8-65,397.1-64.4,397.3z M-67,399.6c0-0.6-0.2-1.2-0.5-1.6C-67.8,398.5-67.4,399.4-67,399.6z"/>
	<path class="st3" d="M-83.4,396.7c0.6,0.3,1.1,0.7,1.6,1.2c0,0.5-0.1,0.8-0.2,1.3c-0.2,0.1-0.3,0.2-0.4,0.4
		C-82.7,398.6-83,397.6-83.4,396.7z"/>
	<path class="st3" d="M-77.6,397.7c0,0.7-0.3,1.2-0.3,1.9c-0.6,0.1-0.8,0.7-1.4,0.8c-0.8,0.1-1.5-0.7-2.2-0.9
		c0.1-0.4,0.2-0.9,0.3-1.4c0.5-0.5,1.1-0.8,1.8-1.1C-78.9,397.1-78.3,397.5-77.6,397.7z M-80.9,399c0.2,0.1,0.2,0.3,0.5,0.2
		c0.2-0.2,0.1-0.8,0-1.1C-80.9,398-80.9,398.5-80.9,399z"/>
	<path class="st2" d="M-73.5,398.2c0,0.6-0.1,0.9-0.1,1.5c-0.7,0.2-1.1,0.7-1.8,1c-0.7-0.2-1.4-0.5-1.9-1c0-0.7,0.2-1.2,0.2-2
		c0.7-0.1,1-0.5,1.5-0.8C-74.8,397.3-74.2,397.9-73.5,398.2z"/>
	<path class="st2" d="M-69,397.7c0,0.7-0.1,1.6,0.2,2.1c-0.5,0.5-1.2,0.8-1.8,1.2c-0.7-0.3-1.4-0.6-2-1c-0.1-0.6-0.1-1.2-0.1-1.8
		c0.8-0.3,1.5-0.7,2.2-1.2C-70,397.2-69.6,397.5-69,397.7z"/>
	<path class="st2" d="M-51.7,399.1c0.1,0.3-0.1,0.7,0,1.1c-3.6,1.8-6.8,4.2-10.5,6c-1.8,0.9-3.6,1.9-5.4,2.9c0-0.3-0.1-0.5-0.2-0.8
		c2.8-1.2,5.4-3,8.2-4.4c1.4-0.7,2.8-1.3,4.1-2.2c1.3-0.8,2.3-1.9,3.7-2.6C-51.8,399.2-51.7,399.2-51.7,399.1z"/>
	<path class="st2" d="M-58.2,400.5c0,0.6,0.1,1.3,0.2,1.9c-0.5,0.2-1.1,0.5-1.6,0.8c-0.5-0.1-0.9-0.3-1.4-0.4
		c0.2-0.7-0.2-1.4-0.4-2.1c0.6-0.3,1.1-0.7,1.8-1C-59.1,399.9-58.7,400.3-58.2,400.5z M-59.9,402.2c-0.1-0.6-0.2-1.2-0.8-1.4
		C-60.7,401.4-60.4,402.2-59.9,402.2z"/>
	<path class="st1" d="M-77.7,400.2c0.6,0.5,1.4,0.9,2,1.4c1-0.2,1.6-0.8,2.4-1.2c0.9,0.3,1.4,1,2.3,1.4c0,0.8,0,1.6,0.3,2.2
		c-0.6,0.2-1.2,0.4-1.5,0.9c-0.5-0.4-1.2-0.7-1.7-1.2c-0.8,0.1-1.4,0.5-2.1,0.8c-0.2,0.7-0.5,1.7-0.4,2.6c0.2,0.3,0.4,0.2,0.7,0.4
		c0.4,0.3,0.6,0.8,1.1,0.9c0.7,0.1,1.5-0.6,2.2-0.8c0.4,0.3,0.9,0.4,1.4,0.7c-2,0.8-4.6,1-6.6,1.9c-0.4-0.5-0.7-1-1.1-1.6
		c-0.3-0.5-0.8-1-1.1-1.6c-1.2-2-1.6-4.4-2.4-6.8c0.1,0,0.2-0.3,0.4-0.2c0.6,0.3,1.7,0.9,2.5,1C-78.7,400.8-78.2,400.5-77.7,400.2z
		 M-80.3,405.2c0.4,0.9,0.6,1.7,1.4,2c-0.5-1.4-1.2-2.6-1.6-4.3c-0.1-0.1-0.2-0.2-0.3-0.3C-81,403.7-80.6,404.3-80.3,405.2z"/>
	<path class="st3" d="M-62,400.7c0.1,0.7,0.1,1.3,0.3,1.9c-0.6,0.5-1.4,0.8-2,1.3c-0.6-0.3-1.1-0.7-1.8-1c0-0.6-0.1-1.2-0.3-1.8
		c0.7-0.5,1.5-0.8,2.3-1.2C-63,400.3-62.6,400.6-62,400.7z"/>
	<path class="st2" d="M-66.4,401.1c0,0.7,0.1,1.4,0.2,2.1c-0.7,0.4-1.3,1-2.2,1.3c-0.6-0.3-1.2-0.6-1.9-0.8c-0.2-0.6,0-1.5-0.3-2.1
		c0.8-0.5,1.6-0.9,2.4-1.4C-67.5,400.5-67.1,401-66.4,401.1z M-69.7,403.6c0.2-0.4,0-1.3-0.3-1.6C-70.4,402.2-70.1,403.7-69.7,403.6
		z"/>
	<path class="st3" d="M-60.5,403.5c-2.1,1.3-4.6,2.4-7.1,3.4c0-0.6-0.2-1.3-0.2-1.8c0.8-0.5,1.5-1,2.3-1.5c0.5,0.2,0.8,0.7,1.4,0.8
		c1.1,0.1,2.1-0.9,2.9-1.3C-60.9,403.3-60.8,403.5-60.5,403.5z"/>
	<path class="st2" d="M-72.6,405.5c0,0.4,0,0.8,0,1.2c-0.7,0.2-1.4,0.5-1.9,0.9c-0.5-0.2-0.8-0.6-1.2-0.9c0-0.6,0.2-0.9,0.2-1.5
		c0.3-0.4,1-0.6,1.4-1C-73.7,404.7-73.2,405.2-72.6,405.5z"/>
	<path class="st2" d="M-68.4,405.2c0,0.7,0,1.4,0,2.1c-0.5,0.2-1.1,0.3-1.6,0.6c-0.7-0.3-1.3-0.7-2-1c0-0.6,0.1-1.2,0.2-1.8
		c0.5-0.3,0.9-0.7,1.4-1C-69.7,404.6-69.2,405-68.4,405.2z"/>
	<path class="st2" d="M-68.6,408.7c0.1,0.3,0.2,0.5,0.3,0.8c-0.5,0.3-1,0.6-1.6,0.9c-0.1-0.4,0.1-0.9,0.1-1.4
		C-69.4,408.9-69,408.8-68.6,408.7z"/>
	<path class="st2" d="M-70.4,409.2L-70.4,409.2c0,0.4-0.1,0.9-0.1,1.4c-2.5,1.4-5.6,2.2-8.1,3.7c0.2-0.5,0.2-1.1,0.4-1.8
		c0.1-0.4,0.3-1.1,0.6-1.3c0.2-0.2,1-0.4,1.5-0.5c0.5-0.1,1-0.3,1.5-0.5c1.1-0.3,2.3-0.4,3.2-0.6C-71.1,409.5-70.7,409.3-70.4,409.2
		z M-72.1,410.4c-0.5-0.3-0.7,0.9-0.1,1C-72,411.2-72,410.7-72.1,410.4z M-75.2,411.6c0.2,0.3,0.8,0.6,1.2,0.3
		C-74.2,411.6-75.1,410.8-75.2,411.6z M-77.5,412.6c0.5-0.1,1.1-0.5,1.4-1C-76.7,411.6-77.8,412-77.5,412.6z"/>
</g>
</svg>
