<?xml version="1.0" encoding="utf-8"?>
<!-- Generator: Adobe Illustrator 19.0.0, SVG Export Plug-In . SVG Version: 6.00 Build 0)  -->
<svg version="1.1" id="Layer_2" xmlns="http://www.w3.org/2000/svg" xmlns:xlink="http://www.w3.org/1999/xlink" x="0px" y="0px"
	 viewBox="-90 377 251 40" style="enable-background:new -90 377 251 40;" xml:space="preserve">
<style type="text/css">
	.st0{fill:#492727;}
	.st1{fill:#FFFFFF;}
	.st2{fill:#FFC440;}
	.st3{fill:#FFA31D;}
</style>
<g>
	<path class="st0" d="M-87.5,398.9c0.6,2.8,1.5,4.9,2.5,7.1c0.5,1.1,1,2.3,1.5,3.3c0.4,0.8,1,1.5,1.5,2.3c0.5,0.7,1,1.8,1.6,2.2
		c0.6,0.4,1.5,0.6,2.4,0.9c0.7,0.2,1.5,0.4,2.2,0.6c1.6,0.3,3.4,0.3,5.2,0.3c1.6,0,3.4-0.1,5.2-0.4c1.3-0.2,3.6-0.5,4.5-1.1
		c0.2-0.1,0.4-0.5,0.7-0.8c0.2-0.3,0.5-0.6,0.7-0.8c1.4-1.7,2.2-4.1,3.1-6.1c0.3-0.7,0.7-1.3,1-2.1c0.3-0.8,0.5-1.6,0.7-2.4
		c0.4-1.6,1-3.4,1.2-5c0.1-1.9-0.4-3.1-1.1-4.3c1.1-1-0.5-1.9-1.2-2.5s-1.4-1.1-1.7-1.5c2.2,0.6,5.5,0.4,5.5-1.9
		c0-1.1-1-1.7-2.4-1.6c0.8-0.9,0.2-2.3-0.9-2.5c-2.7-0.3-3.1,2-4.6,2.8c0.2-1.4,0.9-3.4,0-4.6c-1-1.4-4.4-1.1-7.1-1.3
		c-2.3-0.1-4.3-0.4-6.4-0.2c-3.2,0.4-7.2,0-9.3,1.2c-0.7,1.2-0.4,2.5-0.2,3.9c0.1,0.7,0.4,1.5,0.3,2c-0.1,0.6-1.3,1.2-2,1.6
		c-1.4,1-3.5,2.1-2.6,4.5C-88.5,394.2-87.9,396.5-87.5,398.9z"/>
	<path class="st1" d="M-61.1,381.2c-1.5,0.6-3.4,1-5.4,1c-5.1,0-11-0.2-15.4-1c0.2-0.7,0.9-0.6,1.5-0.6c4.1-0.5,8.6-0.4,13-0.2
		C-65,380.5-62.7,380.5-61.1,381.2z M-80,380.9c-0.2,0.4,0.5,0.4,0.5,0.1C-79.6,380.8-79.9,380.7-80,380.9z M-78.4,381
		c0,0.1,0,0.1,0.1,0.2c2.3,0.4,5.6,0.6,7.9,0.2C-72.6,380.9-75.9,381.1-78.4,381z M-67.3,381.5c-0.2,0-0.6-0.1-0.7,0.2
		c1,0.4,3.1,0.3,3.7-0.5C-65.2,381.2-66.3,381.4-67.3,381.5z"/>
	<path class="st1" d="M-60.2,381.7c0.2,1.5-0.2,2.8-0.3,4.1c-7.2-0.3-14.3-0.2-21.4-0.2c-0.3-1.2-0.6-2.6-0.7-3.8
		c0.2-0.1,0.4,0.1,0.5,0.2c1.2,0.5,2.7,0.7,4.3,0.9c1.8,0.2,3.8,0.3,5.7,0.3c4,0,8.2-0.1,11-1C-60.7,382.1-60.5,381.9-60.2,381.7z
		 M-79.9,383.4c0,0-0.1,0-0.1,0.1c1.4,0.6,3.5,0.8,5.6,0.9c2.1,0,4.3,0.2,6-0.3C-71.8,383.6-76.5,383.8-79.9,383.4z M-67.3,383.9
		c0.1,0.4,0.6,0.2,0.9,0.2c1.2-0.1,2.9-0.2,3.6-0.7C-64.3,383.4-65.9,383.7-67.3,383.9z"/>
	<path class="st2" d="M-61.8,386.3c-6.2,0.7-13.8,0.5-20,0c-0.1,0,0-0.1,0-0.1C-75.2,386.3-68.5,386.2-61.8,386.3z"/>
	<path class="st1" d="M-53.7,386.8c-0.1,0.8-1.5,0.9-2.6,0.8c-0.6,0-1.3,0-1.8-0.2C-56.9,387.1-55.4,386.4-53.7,386.8z"/>
	<path class="st2" d="M-60.9,386.8c0.2,0,0.2,0.1,0.3,0.1c-0.4,0.3-1,0.4-1.5,0.5c-1.8,0.3-4.1,0.3-6.4,0.4
		c-4.6,0.1-9.6,0.2-13.5-0.8c0.8-0.1,1.6,0.1,2.4,0.2c2.5,0.2,5.2,0.3,8.1,0.3c1.8,0,3.6,0.1,5.5,0
		C-64.2,387.4-62.1,387.4-60.9,386.8z"/>
	<path class="st1" d="M-77.7,388.3c-0.5,0.9-1.5,1.6-1.4,2.9c0.5-0.3,0.7-0.9,1-1.4c0.3-0.5,0.6-1,0.9-1.4c1.2,0.1,2.4,0,3.4,0.1
		c-0.2,1.1-0.4,2.5-0.2,3.7c0.7-0.9,0.6-2.5,0.7-3.8c0.2,0,0.4,0,0.6,0c-0.1,1.3-0.1,2.8,0.3,3.7c0.3-0.4,0.1-1.2,0.1-1.9
		c0-0.6,0-1.2-0.1-1.8c0.9,0,1.6-0.1,2.5-0.1c0,1.1,0.1,2.1,0.3,3.2c0.1,0.6,0.3,1.3,0.2,1.8c0,0.1-0.4,1-0.5,1.2
		c-0.3,0.4-0.8,1-1.2,1c-0.7,0-1-0.8-1.3-1.4c-0.3-0.5-0.8-0.9-1.2-0.9c-2-0.3-2.2,2.7-4.3,1.6c-0.1-0.6-0.2-1.2-0.5-1.6
		c0.5-0.9,1-2,1.3-3.2c-0.7,0.6-1.2,1.9-1.7,2.9c-1.2,0-1.9,0.5-2.7,0.9c-1.1-0.2-1.4-1.2-2-2c0.4-0.7,0.8-1.3,1.2-2
		c-0.6,0.2-1.1,0.9-1.4,1.5c-0.7-0.5-1.2-1.4-2.5-1.1c-0.1-0.2,0.4-0.5,0.6-0.7c0.8-0.7,2.1-1.4,2.9-2.1
		C-81.3,388.1-79.4,388.1-77.7,388.3z"/>
	<path class="st1" d="M-56.1,390.9c-1.4,0-1.6,1.5-2.7,1.7c-1,0.2-1.9-0.6-3.1-0.7c-1-0.1-2.1,0-2.9,0.3c-0.1-0.9-0.4-1.4-0.7-2.1
		c-0.3,0.7,0.4,1.6,0.2,2.4c-0.1,0.5-0.6,0.6-0.7,1.1c-0.3,0-0.5-0.1-0.7-0.1c-0.8-1.5-1.1-3.4-1.6-5.2c2.4-0.2,5.2,0,7.4-0.4
		c0.5,1.4,1.1,2.9,2.3,3.6c0-0.7-0.6-1.2-1-1.8c-0.4-0.6-0.6-1.2-1-1.8c0.1-0.2,0.3-0.2,0.5-0.3C-59.1,389-57.4,389.8-56.1,390.9z"
		/>
	<path class="st1" d="M-69.4,388.3c0.2,0,0.4,0,0.6,0c0.3,1.6,0.7,3.1,1.2,4.5c-0.5,0-0.8,0.1-1.2,0.1
		C-68.9,391.3-69.2,389.9-69.4,388.3z"/>
	<path class="st1" d="M-86.3,390.9c0.1,0.3-0.4,0.5-0.5,0.8c-0.1,0,0-0.3-0.1-0.4C-86.6,391.2-86.4,391.2-86.3,390.9z"/>
	<path class="st3" d="M-78.2,395.4c1.2,0.6,2.2,0.5,3.1-0.2c0.4-0.3,0.9-0.9,1.3-0.8c0.4,0,0.5,0.6,0.8,1c0.4,0.5,1.3,1.1,2.3,0.9
		c0.5-0.1,1.3-0.8,1.6-1.3c0.5-0.7,0.5-1.1,1-1.1c0.4,0,0.7,0.6,1.2,0.6c1.3,0.2,1.9-0.7,2.6-1.6c2.2-0.5,3.8,1.1,5.6,0.8
		c1.1-0.2,1.6-1.1,2.2-2c0.3-0.1,0.4,0.3,0.6,0.6c0.2,0.2,0.5,0.4,0.6,0.6c0.1,0.2,0.6,1.7,0.5,1.9c-0.1,0.6-1,0.4-1.3,1
		c0.4,0.5,1.1-0.2,1.3-0.2c0.2,5.1-2,8.3-3.1,12.4c-0.1,0.2-0.2,0-0.3,0.2c-0.6,1.5-1.4,2.7-2.2,3.9c-2.9,0.8-6.5,0.8-10.2,1
		c-2.6,0.1-5.6,0.1-7.9-0.4c-1.4-0.3-2.4-0.4-3.1-1.3c-0.4-0.4-0.6-1.2-1-1.8c-1-1.8-1.9-3.8-2.6-5.9c-0.7-2.1-1.5-4.1-2-6.5
		c-0.1-0.7-0.4-1.6-0.1-2.3c0.5,0,0.7,0.3,1.3,0.3c-0.1-0.6-0.9-0.6-1.2-1c0.4-1.2,1-2.2,1.6-3.2c1.9,1.2,2,4.1,5,3.1
		c0.3-0.1,0.9-0.4,1.2-0.3C-78.5,394-78.5,395.2-78.2,395.4z M-79.7,397.4c2.1,0.6,4.4,0.9,6.6,0.9c1.4,0,3.3,0.1,5,0.1
		c4.2-0.2,8.2-0.6,11.1-2.1c-1.3,0-2.6,0.7-3.9,0.9c-2.1,0.3-4.2,0.3-6.3,0.5c-2.2,0.1-4.4,0-6.5-0.2c-4.3-0.3-8.2-1-11.5-2.2
		c0,0-0.1,0-0.1,0.1C-83.9,396.1-81.9,396.8-79.7,397.4z M-76,398.7c-0.1,0-0.2,0-0.2,0.2c0.7,0.3,2.4,0.9,3.1,0.2
		C-74,398.9-75.2,398.7-76,398.7z M-62.4,411.1c-1.5-0.4-3.6-0.6-5.8-0.9c-1-0.1-2-0.2-3.1-0.2c-1.2,0-2.3-0.2-3.3-0.1
		c-2,0.2-5.1,0.2-5.8,1.3c2.6-0.7,6-0.8,9.2-0.6c1.6,0.1,3.2,0.1,4.7,0.3c1.5,0.2,3.1,0.3,4.4,0.6c0.4,0.1,0.6,0.5,1,0.5
		C-61.1,411.4-61.8,411.3-62.4,411.1z"/>
	<path class="st3" d="M-80.2,412.9c5.1,1.5,13.5,1.3,19.1,0.2c0.1,0.3-0.3,0.3-0.5,0.4c-1.7,0.7-4,0.9-6.3,1.1
		c-3.6,0.3-7.2,0.1-10.1-0.5C-79,413.8-79.9,413.7-80.2,412.9z"/>
	<path class="st2" d="M-59.8,386.5c0.7-0.2,1.6-0.5,2.6-0.8c0.8-0.3,2.6-0.5,2.2-1.7c-0.3-0.8-2.1-0.1-2.5,0.2
		c0.1-1.1,3-1.2,3.1,0.1c0,0.5-0.3,0.6-0.5,1C-56.8,385.4-57.7,386.5-59.8,386.5z"/>
	<path class="st1" d="M-55.6,384.2c-0.6,1-2.1,1-3.1,1.6C-58,385.2-57.1,384.2-55.6,384.2z"/>
	<path class="st2" d="M-58.3,386.9c1.4-0.3,2.8-1.5,4.7-1.1c0.5,0.1,1,0.8,0.8,1.4c-0.5,1.4-3.8,1.4-5,0.7c1,0,4.3,0.6,4.6-0.7
		c0.3-1.1-0.8-1.1-1.7-1.1C-56.1,386.2-57.3,386.9-58.3,386.9z"/>
</g>
<g>
	<path class="st0" d="M-28.9,389c0.2-0.4,0.7-0.6,1.5-0.4c0.6,0.2,0.6,1,0.2,2.4c-0.1,0.8-0.2,1.8-0.3,2.9c0,0.6-0.2,1.1-0.5,1.3
		c-0.5,0-0.8-0.1-1-0.4c-0.1-0.3-0.2-0.7-0.3-1.3c0-0.5,0-0.8,0-0.9c0-0.2-0.1-0.3-0.1-0.5c-0.1-0.3-0.4-0.6-0.9-0.8
		c-0.9-0.4-1.6-0.6-2.1-0.6c-1.8,0-3,0.6-3.6,1.6c0.2,0.4,0.1,0.9-0.3,1.5c-0.6,0.9,0.2,1.9,2.3,3c3.1,1.1,5.2,2.3,6.4,3.5
		c1.1,1.5,1.3,3.2,0.7,5.1c-0.6,1.5-1.8,2.7-3.5,3.6c-1.3,0.7-2.8,1-4.7,1c-1.2,0-2.3-0.4-3.4-1.2c-0.7-0.7-1.2-1.5-1.4-2.3
		s-0.1-1.5,0.3-2.2c0.4-0.5,0.9-0.8,1.5-0.9c1.5,0,2.1,0.7,1.9,2.1c-0.3,0.9-0.8,1.1-1.6,0.7c-0.1,0.8,0.3,1.5,1.4,2
		c1.3,0.5,2.6,0.4,4-0.2c0.1-0.4,0.8-0.9,2-1.3c0.9-0.3,1.4-1.4,1.4-3.4c0-0.9-0.4-1.6-1.1-2.2c-0.8-0.7-1.9-1.3-3.1-1.7
		c-1.6-0.4-2.5-0.9-3-1.2c-1.5-0.9-2.3-2.1-2.6-3.7c-0.1-1.3,0.3-2.4,1.2-3.5c1-1.1,2.3-1.6,3.8-1.7c1.5-0.1,2.9,0.2,4.2,1
		c0.1,0.4,0.3,0.4,0.5,0C-29,389.8-29,389.4-28.9,389z"/>
	<path class="st0" d="M-17.2,391.1c-0.7,0.3-1.3,0.4-2,0.5c-0.1,0.5-0.3,1.4-0.5,2.5c-0.5,2.2-0.7,3.7-0.7,4.5
		c0.1,0.9,0.1,2.3,0.3,4c0.1,1.9,0.7,3.2,1.9,3.9c0.8,0.5,2,0.7,3.5,0.7c1.1,0,2-0.2,2.6-0.5c0.5-0.6,0.8-1.2,0.9-1.6s0.2-0.8,0.3-1
		c0.3-0.5,0.4-1,0.5-1.4c0.4-2.1,0.6-3.7,0.6-5c0-2.8-0.2-4.7-0.5-5.9c-0.4,0-1,0-1.6-0.1c-0.4-0.2-0.6-0.5-0.5-1
		c0-0.5,1.1-0.7,3.1-0.8c1.8,0.1,2.9,0.3,3.1,0.6v0.1v0.1c0,0,0,0.1,0,0.2s-0.1,0.1-0.2,0.2c-0.9,0.2-1.7,0.4-2.3,0.4
		c0.1,0.3,0.2,0.4,0.3,0.4c0.3,2.4,0.4,4.7,0.4,6.7c0,0.1,0,0.4,0,1s0,0.9,0,1.1c0,0.1-0.1,0.4-0.4,0.7c-0.2,0.4-0.4,0.7-0.4,0.9
		c0,0.4,0,1.1-0.1,2c-0.1,0.5-0.4,1.2-0.9,2.3c-0.7,1.4-1.3,2-1.8,2c-0.1,0-0.2,0-0.2-0.1s0-0.1-0.2-0.1s-0.3,0.1-0.4,0.3
		c-0.1,0.3-0.2,0.4-0.3,0.4c-1,0.3-2,0.4-2.9,0.4c-2.2,0-4-0.9-5.4-2.6c-0.3-0.4-0.6-0.9-0.7-1.6c-0.1-0.6-0.2-1.2-0.3-1.9
		c-0.3-1.5-0.5-2.6-0.5-3.3c0-1,0.1-2.1,0.3-3.3c0.2-1.7,0.4-3.1,0.5-4.3c0.1-0.3,0.2-0.6,0.3-1c-0.3,0-0.7,0.1-1,0.1
		c-0.6,0.1-0.9,0.2-1.1,0.2c-0.3,0-0.6-0.4-0.9-1.1c0-0.8,1-1.2,2.9-1.1c2.5,0,3.8,0.2,4.1,0.5c0,0.1,0,0.2,0.1,0.3
		S-17,390.9-17.2,391.1z"/>
	<path class="st0" d="M7.7,408.8c-1.1,0.4-2.2,0.5-3.4,0.5c-0.9,0-1.6,0.1-2.3,0.2s-1,0.2-1.2,0.2c-0.3,0-0.7-0.4-1-1.1
		c0-0.7,0.8-1.1,2.5-1.1c-0.2-1.1-0.2-2.7-0.2-4.9c0.1-2.3,0.2-5.5,0.3-9.7c-0.1-0.1-0.2-0.4-0.3-0.8c-2.2-0.2-4-0.4-5.3-0.5
		c0,1.8,0,2.9-0.1,3.5c-0.1,0.4-0.6,0.5-1.3,0.4c-0.4-0.8-0.6-1.6-0.6-2.5c0.1-2.4,0.4-3.6,1-3.6c0.3-0.1,0.6,0.1,0.9,0.5
		c2,0.1,4,0.2,6,0.3c0.1,0,0.2-0.1,0.4-0.2c0.1-0.2,0.4-0.3,0.6-0.3c0.4,0,0.8,0.2,1.3,0.5c0.6,0.2,1.3,0.3,2.1,0.3
		c1,0,1.9,0,2.6,0.1c0-0.3,0-0.6,0.1-0.8c0.5-0.1,0.8-0.1,1-0.1c0.2,0.1,0.4,0.4,0.6,0.8l0.1,1.4c0.1,0.7,0,1.5-0.2,2.3
		c-0.2,0.8-0.5,1.2-0.7,1.3c-0.4,0-0.6-0.1-0.8-0.4c-0.1-0.2-0.1-1.3-0.2-3.3c-0.4,0.3-1.2,0.4-2.1,0.4c-1.2,0-2.1,0.1-2.8,0.1
		c0,0.3-0.1,0.7-0.4,1.2C4.1,394,4,394.3,4,394.6c0.1,2.6,0,4.4-0.2,5.4c-0.1,0.4-0.1,0.8-0.1,1.2c0,0.4,0,0.9,0.1,1.6
		c0.1,0.7,0.1,1.2,0.1,1.5c0,0.1-0.1,0.3-0.2,0.5c-0.1,0.2-0.2,0.4-0.2,0.5c0,0.1,0.1,0.3,0.3,0.5c0.2,0.2,0.3,0.5,0.3,0.6
		s0.1,0.4,0.2,0.7c0,0.2,0.1,0.4,0.1,0.6c1.7,0.1,2.6,0.2,2.9,0.5c0,0.1,0,0.2,0.1,0.3C7.9,408.5,7.9,408.6,7.7,408.8z"/>
	<path class="st0" d="M27.4,390.2c0.1-0.4,0.6-0.5,1.2-0.4c0.4,0.2,0.5,1,0.5,2.5c0,0-0.1,0.6-0.2,1.9c0,0.4-0.3,0.9-0.7,1.3
		c-0.1,0-0.3-0.1-0.6-0.4c-0.2-0.2-0.4-0.5-0.3-0.8c0-1-0.1-1.9,0-2.6h-1c-4.5,0-7.1,0.2-7.9,0.5c-1,1.6-1.5,4.1-1.6,7.5
		c3.1-0.1,5.1-0.1,6.1-0.1c0-0.4,0.1-0.9,0.1-1.6c0-0.4,0.3-0.9,0.7-1.3c0.1,0,0.3,0,0.6,0.1c0.2,0.1,0.4,0.4,0.4,1
		c0.1,2.6,0,4.2-0.1,5c-0.1,0.5-0.5,0.6-1.2,0.2c-0.3-0.5-0.5-1.1-0.6-1.7h-0.2c-1.3,0.1-2.4,0.2-3.3,0.2c-0.9,0.1-1.7,0.2-2.4,0.3
		c0.1,2.2,0.2,3.9,0.4,5.3c2.5,0,5.2-0.1,8.2-0.2c1.1-0.1,2.1-0.2,2.8-0.5c0-0.3,0.1-1.1,0.2-2.4c0.2-0.6,0.4-1,0.7-1.2
		c0.3,0,0.5,0.1,0.7,0.2c0.1,0.1,0.3,0.4,0.5,0.7c0.1,2.4,0.1,4-0.1,4.9c-0.2,0.4-0.6,0.6-1.4,0.4c-0.2-0.3-0.3-0.6-0.4-1
		c-0.4,0.2-1,0.4-1.7,0.6c-1.3,0.3-3.3,0.6-6,0.8c-3.8,0.1-6.3,0.1-7.6,0c-0.4-0.3-0.6-0.7-0.6-1.2s0.8-0.8,2.3-0.9
		c-0.3-2.5-0.5-4.2-0.4-4.8c-0.7-0.3-1.2-0.5-1.2-0.7c0-0.5,0.2-1,0.6-1.4l0.6-0.6c0.1-0.3,0.3-1.3,0.6-3.3c0.3-1.4,0.6-2.5,0.9-3.4
		c0-0.2,0.1-0.5,0.2-0.9c-1.5,0.1-2.4,0.1-2.7,0c-0.6-0.2-0.7-0.5-0.4-1c0.2-0.6,1.1-1,2.7-1c2.3-0.2,5-0.3,8-0.4
		C24.6,390,25.8,390.1,27.4,390.2z"/>
	<path class="st0" d="M54,409.4c-1.2,0.3-2.1,0.4-2.8,0.5c-0.7,0.1-1.6,0.1-2.9,0c-0.4-0.2-0.6-0.5-0.5-1c0-0.3,0.6-0.5,1.6-0.7
		c-0.1-0.4-0.1-1-0.1-1.5l0.7-9.9c0-1.1-0.1-1.9-0.3-2.3c-0.3,0.4-0.5,0.7-0.7,1c-0.4,0.7-1,1.9-2,3.5c-1,1.7-1.6,2.9-2,3.7
		c-0.2,0.1-0.4,0.4-0.7,0.8c0,0.4-0.1,0.9-0.3,1.5c-0.3,0.6-0.6,1.4-1,2.5c-0.3,0.3-0.7,0.4-1.2,0.4c-1,0-2.1-1.3-3.1-4l-1.3-4.2
		l-0.8-1.9c-0.3-0.7-0.7-1.3-1.2-1.7c-0.3,1.7-0.4,3.4-0.4,4.9c0,1.3,0.1,3.3,0.4,6c0,0.4,0,0.7,0,1.1c1.3,0.1,2.1,0.3,2.3,0.6v0.1
		v0.1c0,0,0,0.1,0,0.2s-0.1,0.1-0.2,0.2c-1.2,0.3-2.1,0.4-2.8,0.5c-0.7,0.1-1.6,0.1-2.9,0c-0.4-0.2-0.6-0.5-0.5-1
		c0-0.4,0.8-0.6,2.2-0.7c0-0.5,0-1.2-0.1-2.1c-0.1-1.2-0.1-2.2,0-3c0.3-5.1,0.4-8.4,0.2-9.9c-0.3-0.4-0.9-0.6-1.8-0.7
		c-0.5-0.2-0.7-0.4-0.6-0.8c0-0.7,1-1,2.9-0.7c0.7,0.4,1.2,0.8,1.4,1.2c1.6,2.2,2.8,4.4,3.6,6.6c0.7,1.9,1.3,3.7,2,5.6h0.4
		c0.3,0,1.6-1.6,3.8-4.8c2-3,3.5-5.3,4.3-6.8c0.3-0.5,0.4-1.2,0.6-2.1c0-0.4,0.2-0.8,0.4-1.3c-0.3-0.1-0.6-0.2-0.9-0.3
		s-0.4-0.2-0.5-0.3s-0.1-0.2,0-0.2s0.1-0.1,0.2-0.2c0.1-0.1,0.2-0.1,0.2-0.2c0.5-0.2,1.2-0.3,2.1-0.4c2,0.1,3.1,0.3,3.1,0.8
		c0,0.4-0.1,0.7-0.5,1c-0.7,0-1.4,0.1-1.9,0.1c-0.5,1.2-0.8,2.7-1,4.4c0,1.6,0.1,2.5,0.1,2.7c0,0.4-0.1,1.4-0.4,3.1
		c-0.1,0.6-0.2,1.7-0.3,3c-0.1,2-0.1,3.6,0,4.6c0.2,0.3,0.3,0.6,0.4,0.8c1.3,0,2.2,0.2,2.7,0.4c0.1,0,0.1,0.1,0.2,0.2
		c0.1,0.1,0.1,0.1,0.2,0.2s0,0.1,0,0.2C54.4,409.2,54.3,409.3,54,409.4z"/>
	<path class="st0" d="M70.3,390.2c0.1-0.4,0.6-0.5,1.2-0.4c0.4,0.2,0.5,1,0.5,2.5c0,0-0.1,0.6-0.2,1.9c0,0.4-0.3,0.9-0.7,1.3
		c-0.1,0-0.3-0.1-0.6-0.4c-0.2-0.2-0.4-0.5-0.3-0.8c0-1-0.1-1.9,0-2.6h-1c-4.5,0-7.1,0.2-7.9,0.5c-1,1.6-1.5,4.1-1.6,7.5
		c3.1-0.1,5.1-0.1,6.1-0.1c0-0.4,0.1-0.9,0.1-1.6c0-0.4,0.3-0.9,0.7-1.3c0.1,0,0.3,0,0.6,0.1c0.2,0.1,0.4,0.4,0.4,1
		c0.1,2.6,0,4.2-0.1,5c-0.1,0.5-0.5,0.6-1.2,0.2c-0.3-0.5-0.5-1.1-0.6-1.7h-0.2c-1.3,0.1-2.4,0.2-3.3,0.2c-0.9,0.1-1.7,0.2-2.4,0.3
		c0.1,2.2,0.2,3.9,0.4,5.3c2.5,0,5.2-0.1,8.2-0.2c1.1-0.1,2.1-0.2,2.8-0.5c0-0.3,0.1-1.1,0.2-2.4c0.2-0.6,0.4-1,0.7-1.2
		c0.3,0,0.5,0.1,0.7,0.2c0.1,0.1,0.3,0.4,0.5,0.7c0.1,2.4,0.1,4-0.1,4.9c-0.2,0.4-0.6,0.6-1.4,0.4c-0.2-0.3-0.3-0.6-0.4-1
		c-0.4,0.2-1,0.4-1.7,0.6c-1.3,0.3-3.3,0.6-6,0.8c-3.8,0.1-6.3,0.1-7.6,0c-0.4-0.3-0.6-0.7-0.6-1.2s0.8-0.8,2.3-0.9
		c-0.3-2.5-0.5-4.2-0.4-4.8c-0.7-0.3-1.2-0.5-1.2-0.7c0-0.5,0.2-1,0.6-1.4l0.6-0.6c0.1-0.3,0.3-1.3,0.6-3.3c0.3-1.4,0.6-2.5,0.9-3.4
		c0-0.2,0.1-0.5,0.2-0.9c-1.5,0.1-2.4,0.1-2.7,0c-0.6-0.2-0.7-0.5-0.4-1c0.2-0.6,1.1-1,2.7-1c2.3-0.2,5-0.3,8-0.4
		C67.5,390,68.7,390.1,70.3,390.2z"/>
	<path class="st0" d="M81.4,409c-1.4,0-2.4,0-3.1,0c-0.7,0.1-1.6,0.1-2.9,0c-0.4-0.2-0.6-0.5-0.5-1c0-0.4,0.9-0.7,2.6-0.8
		c0-0.2,0-0.3,0-0.5c0-1.2-0.1-2.4-0.1-3.6l-0.8-7.1c0-1,0.1-2,0.3-2.9c0-0.1,0.1-0.3,0.2-0.5c-0.7-0.1-1.4-0.4-2-0.7
		c-0.4-0.1-0.7-0.5-0.7-1.1c0-0.3,1.4-0.2,4.1,0.4c1.4,0.5,2.4,1.1,2.9,1.8c0.6,0.7,1.1,1.3,1.5,1.9c1.6,2.4,2.6,4,2.9,4.9
		c0.2,0.6,0.6,1.2,1.2,1.9c0.8,0.9,1.3,1.5,1.4,1.8c0.2-0.3,0.3-0.6,0.3-1c0-0.3,0-0.7,0-1c0-0.6,0.1-1.7,0.2-3.4
		c-0.1-0.9-0.1-2-0.2-3.3c0-0.9,0-1.6-0.1-2.2c0-0.1-0.1-0.3-0.3-0.4c-0.2-0.2-0.2-0.4-0.2-0.5c0-0.1,0-0.2,0.1-0.4
		c-0.4-0.1-0.8-0.1-1.2-0.3c-0.3-0.1-0.4-0.1-0.5-0.2c-0.1-0.1-0.1-0.1-0.1-0.2s0.1-0.1,0.1-0.2c0.1-0.1,0.1-0.1,0.2-0.2
		c0.5-0.2,1.2-0.4,1.9-0.5c2.6-0.1,4,0,4.1,0.4s-0.1,0.8-0.4,1c-0.6,0.1-1.2,0.1-1.7,0.2c0,0.4,0.1,1,0.1,1.6c0,0.8-0.1,1.9-0.2,3.3
		c-0.2,1.5-0.1,4.9,0.2,10c0,0.4,0,0.8,0,1.2s0.1,0.8,0.1,1.2c0,0.6-0.3,1-0.9,1s-1-0.2-1.2-0.6c0-0.1-0.2-0.4-0.4-1.1
		c-0.3-0.3-0.7-0.7-1.1-1.2c-1.3-2.3-2.6-4.6-3.9-7c-2-3.4-3.6-5.6-4.7-6.6c-0.3,0.4-0.4,1.1-0.3,1.9c0,0.3,0,0.9,0.1,1.9
		c0,0.9,0.1,1.5,0,1.9c0.3,1.1,0.4,2.1,0.3,3c0,0.1,0.1,0.3,0.2,0.5c0.1,0.2,0.1,0.5,0.1,0.7c0,0.3-0.1,0.5-0.2,0.8
		c-0.1,0.3-0.2,0.4-0.2,0.5c0,0.1,0.1,0.7,0.4,1.5c0.1,0.6,0.3,1,0.3,1.3c1,0.1,1.7,0.2,2.1,0.4c0.3,0.1,0.5,0.3,0.5,0.5
		C82.1,408.6,81.9,408.8,81.4,409z"/>
	<path class="st0" d="M107.1,409.1c-1,0.4-2,0.5-3.1,0.5c-0.8,0-1.5,0.1-2,0.2c-0.6,0.1-0.9,0.2-1.1,0.2c-0.3,0-0.6-0.4-0.9-1.1
		c0-0.7,0.7-1,2.1-1.1c-0.1-0.7-0.2-1.8-0.4-3.4c-0.1-1.4-0.1-2.1-0.1-2.2c0.1-0.1,0.2-0.3,0.4-0.5c-0.7-1.6-2-3.7-3.8-6.4
		c-0.8-1.2-1.6-2.3-2.3-3.5c-0.6,0-1.3,0-2-0.1c-0.4-0.2-0.6-0.5-0.5-1c0-0.5,1.1-0.7,3.1-0.8c1.8,0.1,2.9,0.3,3.1,0.6v0.1v0.1
		c0,0,0,0.1,0,0.2s-0.1,0.1-0.2,0.2c-0.6,0.1-1.2,0.3-1.7,0.4c0.7,0.7,1.4,1.8,2.3,3.1c1.5,2.4,2.5,4.1,2.9,5.1
		c0.9-0.8,1.8-1.7,2.7-2.8c1-1.2,1.7-2.3,2-3.3c0.3,0,0.9-0.8,1.8-2.3c0.2-0.3,0.3-0.5,0.5-0.8c-0.4-0.1-0.9-0.3-1.4-0.4
		c-0.3-0.1-0.4-0.2-0.5-0.3c-0.1-0.1-0.1-0.2,0-0.2s0.1-0.1,0.2-0.2s0.2-0.1,0.2-0.2c0.5-0.2,1.2-0.3,2.1-0.4c2,0.1,3.1,0.3,3.1,0.8
		c0,0.4-0.1,0.7-0.5,1c-0.7,0-1.3,0.1-1.8,0.1c-0.9,1.5-2.1,3.5-3.6,6c-0.2,0.1-0.5,0.3-0.8,0.6c-0.3,0.5-0.7,1.2-1.3,2.2
		c-0.3,0.4-0.8,1-1.5,1.7c0,0.3-0.1,0.8-0.1,1.5c-0.1,0.7-0.1,1.1-0.1,1.2s0.1,0.3,0.2,0.6s0.2,0.5,0.2,0.7
		c-0.1,0.3-0.1,0.6-0.1,0.9c0,0.5,0.1,0.9,0.3,1.3c0.1,0.2,0.2,0.3,0.2,0.5c1.4,0.1,2.2,0.2,2.4,0.5c0,0.1,0,0.2,0.1,0.3
		C107.3,408.8,107.2,408.9,107.1,409.1z"/>
	<path class="st0" d="M128.9,390.2c0.1-0.4,0.6-0.5,1.2-0.4c0.4,0.2,0.5,1,0.5,2.5c0,0-0.1,0.6-0.2,1.9c0,0.4-0.3,0.9-0.7,1.3
		c-0.1,0-0.3-0.1-0.6-0.4c-0.2-0.2-0.4-0.5-0.3-0.8c0-1-0.1-1.9,0-2.6h-1c-4.5,0-7.1,0.2-7.9,0.5c-1,1.6-1.5,4.1-1.6,7.5
		c3.1-0.1,5.1-0.1,6.1-0.1c0-0.4,0.1-0.9,0.1-1.6c0-0.4,0.3-0.9,0.7-1.3c0.1,0,0.3,0,0.6,0.1c0.2,0.1,0.4,0.4,0.4,1
		c0.1,2.6,0,4.2-0.1,5c-0.1,0.5-0.5,0.6-1.2,0.2c-0.3-0.5-0.5-1.1-0.6-1.7h-0.2c-1.3,0.1-2.4,0.2-3.3,0.2c-0.9,0.1-1.7,0.2-2.4,0.3
		c0.1,2.2,0.2,3.9,0.4,5.3c2.5,0,5.2-0.1,8.2-0.2c1.1-0.1,2.1-0.2,2.8-0.5c0-0.3,0.1-1.1,0.2-2.4c0.2-0.6,0.4-1,0.7-1.2
		c0.3,0,0.5,0.1,0.7,0.2c0.1,0.1,0.3,0.4,0.5,0.7c0.1,2.4,0.1,4-0.1,4.9c-0.2,0.4-0.6,0.6-1.4,0.4c-0.2-0.3-0.3-0.6-0.4-1
		c-0.4,0.2-1,0.4-1.7,0.6c-1.3,0.3-3.3,0.6-6,0.8c-3.8,0.1-6.3,0.1-7.6,0c-0.4-0.3-0.6-0.7-0.6-1.2s0.8-0.8,2.3-0.9
		c-0.3-2.5-0.5-4.2-0.4-4.8c-0.7-0.3-1.2-0.5-1.2-0.7c0-0.5,0.2-1,0.6-1.4l0.6-0.6c0.1-0.3,0.3-1.3,0.6-3.3c0.3-1.4,0.6-2.5,0.9-3.4
		c0-0.2,0.1-0.5,0.2-0.9c-1.5,0.1-2.4,0.1-2.7,0c-0.6-0.2-0.7-0.5-0.4-1c0.2-0.6,1.1-1,2.7-1c2.3-0.2,5-0.3,8-0.4
		C126,390,127.3,390.1,128.9,390.2z"/>
	<path class="st0" d="M139.2,409.5c-1.2,0.3-2.1,0.4-2.8,0.5c-0.7,0.1-1.6,0.1-2.9,0c-0.4-0.2-0.6-0.5-0.5-1c0-0.4,0.6-0.6,1.9-0.7
		c0-0.2,0-0.4,0-0.6c0-0.6,0.1-1.4,0.2-2.3s0.2-1.6,0.2-2c0,0-0.2-0.2-0.5-0.4c-0.3-0.3-0.4-0.5-0.4-0.7c0-0.4,0.1-0.7,0.4-0.9
		c0.3-0.2,0.5-0.4,0.7-0.6c0.1-3.2,0.2-5.1,0.2-5.7c0-0.1-0.1-0.6-0.2-1.3c-0.1-0.7-0.2-1.4-0.2-1.9c0-0.2,0-0.5,0-0.7
		c-0.6-0.1-1.3-0.2-2.1-0.4c-0.3-0.1-0.4-0.2-0.5-0.3s-0.1-0.2,0-0.2c0-0.1,0.1-0.1,0.2-0.2s0.2-0.1,0.2-0.2
		c0.6-0.3,1.6-0.5,3.1-0.4c2,0.1,3.1,0.3,3.1,0.8c0,0.4-0.1,0.7-0.5,1c-0.7,0-1.1,0-1.3,0c0,0.6,0,1.4,0,2.2c0,2.3,0.1,3.7,0.1,4.1
		c0,0.5,0,0.9-0.1,1.3c0.6,0,1.2-0.2,1.9-0.6c0.5-0.2,1.2-0.6,2.1-1.2c1.2-0.6,3.2-2.3,6.3-5.2c-0.4,0-0.8-0.1-1.3-0.1
		c-0.8-0.4-1-0.7-0.5-1.1c0.4-0.4,1.6-0.6,3.6-0.7c1.6,0,2.5,0.1,2.8,0.5c0.1,0.2,0.1,0.3,0.1,0.3s-0.1,0.2-0.3,0.4
		c-0.9,0.2-1.7,0.4-2.4,0.5l0,0c-0.1,0.2-0.3,0.5-0.7,0.8c-1.7,1.5-3.5,3.2-5.4,5.1c0.2,0.4,0.6,1.1,1.2,2c0.3,0.5,0.7,1.1,1.3,1.9
		c2.9,3.3,4.5,5.4,4.8,6.2c1,0,1.8,0.2,2.2,0.4c0.1,0,0.1,0.1,0.2,0.2c0.1,0.1,0.1,0.1,0.2,0.2c0,0.1,0,0.1,0,0.2
		c-0.1,0.1-0.2,0.2-0.5,0.3c-1.2,0.3-2.1,0.4-2.8,0.5c-0.7,0.1-1.6,0.1-2.9,0c-0.4-0.2-0.6-0.5-0.5-1c0-0.3,0.4-0.5,1.1-0.6
		c-0.7-0.9-1.7-2.1-2.9-3.8c-2.3-3.2-3.6-4.9-3.8-4.9c-0.3,0-0.9,0.3-1.9,0.9c-1.1,0.7-1.9,1.4-2.3,2c-0.2,0.3-0.4,1.2-0.6,2.8
		c0,0.1,0,0.2,0.2,0.4c0.1,0.2,0.2,0.4,0.3,0.5c0.1,0.4,0.1,1,0,1.8c0,0.2,0,0.4,0,0.5c1.3,0.1,2,0.3,2.2,0.6v0.1v0.1
		c0,0,0,0.1,0,0.2C139.3,409.4,139.3,409.5,139.2,409.5z"/>
</g>
<path class="st0" d="M65.1,381.4c-0.1,0.7-0.3,1.7-0.5,2.9c-0.3,1.2-0.5,2.2-0.7,3.1h1.5c0.4-0.9,0.8-1.9,1.2-3
	c0.4-1.1,0.7-2,0.9-2.8l-0.2-0.3h-2.2V381.4z"/>
<path class="st0" d="M-16.6,388.2L-16.6,388.2c-0.9,0-1.6-0.7-1.6-1.6l0,0c0-0.9,0.7-1.6,1.6-1.6l0,0c0.9,0,1.6,0.7,1.6,1.6l0,0
	C-15,387.5-15.7,388.2-16.6,388.2z"/>
<path class="st0" d="M-10.1,388.2L-10.1,388.2c-0.9,0-1.6-0.7-1.6-1.6l0,0c0-0.9,0.7-1.6,1.6-1.6l0,0c0.9,0,1.6,0.7,1.6,1.6l0,0
	C-8.6,387.5-9.3,388.2-10.1,388.2z"/>
</svg>
