<?xml version="1.0" encoding="utf-8"?>
<!-- Generator: Adobe Illustrator 19.1.0, SVG Export Plug-In . SVG Version: 6.00 Build 0)  -->
<svg version="1.1" id="Layer_2" xmlns="http://www.w3.org/2000/svg" xmlns:xlink="http://www.w3.org/1999/xlink" x="0px" y="0px"
	 viewBox="0 0 431 40" enable-background="new 0 0 431 40" xml:space="preserve">
<g>
	<path fill-rule="evenodd" clip-rule="evenodd" fill="#492727" d="M2.5,21.9C3.1,24.7,4,26.8,5,29c0.5,1.1,1,2.3,1.5,3.3
		c0.4,0.8,1,1.5,1.5,2.3c0.5,0.7,1,1.8,1.6,2.2c0.6,0.4,1.5,0.6,2.4,0.9c0.7,0.2,1.5,0.4,2.2,0.6c1.6,0.3,3.4,0.3,5.2,0.3
		c1.6,0,3.4-0.1,5.2-0.4c1.3-0.2,3.6-0.5,4.5-1.1c0.2-0.1,0.4-0.5,0.7-0.8c0.2-0.3,0.5-0.6,0.7-0.8c1.4-1.7,2.2-4.1,3.1-6.1
		c0.3-0.7,0.7-1.3,1-2.1c0.3-0.8,0.5-1.6,0.7-2.4c0.4-1.6,1-3.4,1.2-5c0.1-1.9-0.4-3.1-1.1-4.3c1.1-1-0.5-1.9-1.2-2.5
		c-0.7-0.6-1.4-1.1-1.7-1.5C34.7,12.2,38,12,38,9.7c0-1.1-1-1.7-2.4-1.6c0.8-0.9,0.2-2.3-0.9-2.5c-2.7-0.3-3.1,2-4.6,2.8
		C30.3,7,31,5,30.1,3.8c-1-1.4-4.4-1.1-7.1-1.3c-2.3-0.1-4.3-0.4-6.4-0.2c-3.2,0.4-7.2,0-9.3,1.2C6.6,4.7,6.9,6,7.1,7.4
		c0.1,0.7,0.4,1.5,0.3,2c-0.1,0.6-1.3,1.2-2,1.6c-1.4,1-3.5,2.1-2.6,4.5C1.5,17.2,2.1,19.5,2.5,21.9z"/>
	<path fill-rule="evenodd" clip-rule="evenodd" fill="#FFFFFF" d="M28.9,4.2c-1.5,0.6-3.4,1-5.4,1c-5.1,0-11-0.2-15.4-1
		c0.2-0.7,0.9-0.6,1.5-0.6c4.1-0.5,8.6-0.4,13-0.2C25,3.5,27.3,3.5,28.9,4.2z M10,3.9C9.8,4.3,10.5,4.3,10.5,4
		C10.4,3.8,10.1,3.7,10,3.9z M11.6,4c0,0.1,0,0.1,0.1,0.2c2.3,0.4,5.6,0.6,7.9,0.2C17.4,3.9,14.1,4.1,11.6,4z M22.7,4.5
		c-0.2,0-0.6-0.1-0.7,0.2C23,5.1,25.1,5,25.7,4.2C24.8,4.2,23.7,4.4,22.7,4.5z"/>
	<path fill-rule="evenodd" clip-rule="evenodd" fill="#FFFFFF" d="M29.8,4.7c0.2,1.5-0.2,2.8-0.3,4.1C22.3,8.5,15.2,8.6,8.1,8.6
		C7.8,7.4,7.5,6,7.4,4.8C7.6,4.7,7.8,4.9,7.9,5c1.2,0.5,2.7,0.7,4.3,0.9C14,6.1,16,6.2,17.9,6.2c4,0,8.2-0.1,11-1
		C29.3,5.1,29.5,4.9,29.8,4.7z M10.1,6.4c0,0-0.1,0-0.1,0.1c1.4,0.6,3.5,0.8,5.6,0.9c2.1,0,4.3,0.2,6-0.3
		C18.2,6.6,13.5,6.8,10.1,6.4z M22.7,6.9c0.1,0.4,0.6,0.2,0.9,0.2c1.2-0.1,2.9-0.2,3.6-0.7C25.7,6.4,24.1,6.7,22.7,6.9z"/>
	<path fill-rule="evenodd" clip-rule="evenodd" fill="#FFC440" d="M28.2,9.3C22,10,14.4,9.8,8.2,9.3c-0.1,0,0-0.1,0-0.1
		C14.8,9.3,21.5,9.2,28.2,9.3z"/>
	<path fill-rule="evenodd" clip-rule="evenodd" fill="#FFFFFF" d="M36.3,9.8c-0.1,0.8-1.5,0.9-2.6,0.8c-0.6,0-1.3,0-1.8-0.2
		C33.1,10.1,34.6,9.4,36.3,9.8z"/>
	<path fill-rule="evenodd" clip-rule="evenodd" fill="#FFC440" d="M29.1,9.8c0.2,0,0.2,0.1,0.3,0.1c-0.4,0.3-1,0.4-1.5,0.5
		c-1.8,0.3-4.1,0.3-6.4,0.4C16.9,10.9,11.9,11,8,10c0.8-0.1,1.6,0.1,2.4,0.2c2.5,0.2,5.2,0.3,8.1,0.3c1.8,0,3.6,0.1,5.5,0
		C25.8,10.4,27.9,10.4,29.1,9.8z"/>
	<path fill-rule="evenodd" clip-rule="evenodd" fill="#FFFFFF" d="M12.3,11.3c-0.5,0.9-1.5,1.6-1.4,2.9c0.5-0.3,0.7-0.9,1-1.4
		c0.3-0.5,0.6-1,0.9-1.4c1.2,0.1,2.4,0,3.4,0.1C16,12.6,15.8,14,16,15.2c0.7-0.9,0.6-2.5,0.7-3.8c0.2,0,0.4,0,0.6,0
		c-0.1,1.3-0.1,2.8,0.3,3.7c0.3-0.4,0.1-1.2,0.1-1.9c0-0.6,0-1.2-0.1-1.8c0.9,0,1.6-0.1,2.5-0.1c0,1.1,0.1,2.1,0.3,3.2
		c0.1,0.6,0.3,1.3,0.2,1.8c0,0.1-0.4,1-0.5,1.2c-0.3,0.4-0.8,1-1.2,1c-0.7,0-1-0.8-1.3-1.4c-0.3-0.5-0.8-0.9-1.2-0.9
		c-2-0.3-2.2,2.7-4.3,1.6c-0.1-0.6-0.2-1.2-0.5-1.6c0.5-0.9,1-2,1.3-3.2c-0.7,0.6-1.2,1.9-1.7,2.9c-1.2,0-1.9,0.5-2.7,0.9
		c-1.1-0.2-1.4-1.2-2-2c0.4-0.7,0.8-1.3,1.2-2c-0.6,0.2-1.1,0.9-1.4,1.5c-0.7-0.5-1.2-1.4-2.5-1.1c-0.1-0.2,0.4-0.5,0.6-0.7
		c0.8-0.7,2.1-1.4,2.9-2.1C8.7,11.1,10.6,11.1,12.3,11.3z"/>
	<path fill-rule="evenodd" clip-rule="evenodd" fill="#FFFFFF" d="M33.9,13.9c-1.4,0-1.6,1.5-2.7,1.7c-1,0.2-1.9-0.6-3.1-0.7
		c-1-0.1-2.1,0-2.9,0.3c-0.1-0.9-0.4-1.4-0.7-2.1c-0.3,0.7,0.4,1.6,0.2,2.4c-0.1,0.5-0.6,0.6-0.7,1.1c-0.3,0-0.5-0.1-0.7-0.1
		c-0.8-1.5-1.1-3.4-1.6-5.2c2.4-0.2,5.2,0,7.4-0.4c0.5,1.4,1.1,2.9,2.3,3.6c0-0.7-0.6-1.2-1-1.8c-0.4-0.6-0.6-1.2-1-1.8
		c0.1-0.2,0.3-0.2,0.5-0.3C30.9,12,32.6,12.8,33.9,13.9z"/>
	<path fill-rule="evenodd" clip-rule="evenodd" fill="#FFFFFF" d="M20.6,11.3c0.2,0,0.4,0,0.6,0c0.3,1.6,0.7,3.1,1.2,4.5
		c-0.5,0-0.8,0.1-1.2,0.1C21.1,14.3,20.8,12.9,20.6,11.3z"/>
	<path fill-rule="evenodd" clip-rule="evenodd" fill="#FFFFFF" d="M3.7,13.9c0.1,0.3-0.4,0.5-0.5,0.8c-0.1,0,0-0.3-0.1-0.4
		C3.4,14.2,3.6,14.2,3.7,13.9z"/>
	<path fill-rule="evenodd" clip-rule="evenodd" fill="#FFA31D" d="M11.8,18.4c1.2,0.6,2.2,0.5,3.1-0.2c0.4-0.3,0.9-0.9,1.3-0.8
		c0.4,0,0.5,0.6,0.8,1c0.4,0.5,1.3,1.1,2.3,0.9c0.5-0.1,1.3-0.8,1.6-1.3c0.5-0.7,0.5-1.1,1-1.1c0.4,0,0.7,0.6,1.2,0.6
		c1.3,0.2,1.9-0.7,2.6-1.6c2.2-0.5,3.8,1.1,5.6,0.8c1.1-0.2,1.6-1.1,2.2-2c0.3-0.1,0.4,0.3,0.6,0.6c0.2,0.2,0.5,0.4,0.6,0.6
		c0.1,0.2,0.6,1.7,0.5,1.9c-0.1,0.6-1,0.4-1.3,1c0.4,0.5,1.1-0.2,1.3-0.2c0.2,5.1-2,8.3-3.1,12.4c-0.1,0.2-0.2,0-0.3,0.2
		c-0.6,1.5-1.4,2.7-2.2,3.9c-2.9,0.8-6.5,0.8-10.2,1c-2.6,0.1-5.6,0.1-7.9-0.4c-1.4-0.3-2.4-0.4-3.1-1.3c-0.4-0.4-0.6-1.2-1-1.8
		c-1-1.8-1.9-3.8-2.6-5.9c-0.7-2.1-1.5-4.1-2-6.5c-0.1-0.7-0.4-1.6-0.1-2.3c0.5,0,0.7,0.3,1.3,0.3c-0.1-0.6-0.9-0.6-1.2-1
		c0.4-1.2,1-2.2,1.6-3.2c1.9,1.2,2,4.1,5,3.1c0.3-0.1,0.9-0.4,1.2-0.3C11.5,17,11.5,18.2,11.8,18.4z M10.3,20.4
		c2.1,0.6,4.4,0.9,6.6,0.9c1.4,0,3.3,0.1,5,0.1c4.2-0.2,8.2-0.6,11.1-2.1c-1.3,0-2.6,0.7-3.9,0.9c-2.1,0.3-4.2,0.3-6.3,0.5
		c-2.2,0.1-4.4,0-6.5-0.2c-4.3-0.3-8.2-1-11.5-2.2c0,0-0.1,0-0.1,0.1C6.1,19.1,8.1,19.8,10.3,20.4z M14,21.7c-0.1,0-0.2,0-0.2,0.2
		c0.7,0.3,2.4,0.9,3.1,0.2C16,21.9,14.8,21.7,14,21.7z M27.6,34.1c-1.5-0.4-3.6-0.6-5.8-0.9c-1-0.1-2-0.2-3.1-0.2
		c-1.2,0-2.3-0.2-3.3-0.1c-2,0.2-5.1,0.2-5.8,1.3c2.6-0.7,6-0.8,9.2-0.6c1.6,0.1,3.2,0.1,4.7,0.3c1.5,0.2,3.1,0.3,4.4,0.6
		c0.4,0.1,0.6,0.5,1,0.5C28.9,34.4,28.2,34.3,27.6,34.1z"/>
	<path fill-rule="evenodd" clip-rule="evenodd" fill="#FFA31D" d="M9.8,35.9c5.1,1.5,13.5,1.3,19.1,0.2c0.1,0.3-0.3,0.3-0.5,0.4
		c-1.7,0.7-4,0.9-6.3,1.1c-3.6,0.3-7.2,0.1-10.1-0.5C11,36.8,10.1,36.7,9.8,35.9z"/>
	<path fill-rule="evenodd" clip-rule="evenodd" fill="#FFC440" d="M30.2,9.5c0.7-0.2,1.6-0.5,2.6-0.8C33.6,8.4,35.4,8.2,35,7
		c-0.3-0.8-2.1-0.1-2.5,0.2c0.1-1.1,3-1.2,3.1,0.1c0,0.5-0.3,0.6-0.5,1C33.2,8.4,32.3,9.5,30.2,9.5z"/>
	<path fill-rule="evenodd" clip-rule="evenodd" fill="#FFFFFF" d="M34.4,7.2c-0.6,1-2.1,1-3.1,1.6C32,8.2,32.9,7.2,34.4,7.2z"/>
	<path fill-rule="evenodd" clip-rule="evenodd" fill="#FFC440" d="M31.7,9.9c1.4-0.3,2.8-1.5,4.7-1.1c0.5,0.1,1,0.8,0.8,1.4
		c-0.5,1.4-3.8,1.4-5,0.7c1,0,4.3,0.6,4.6-0.7c0.3-1.1-0.8-1.1-1.7-1.1C33.9,9.2,32.7,9.9,31.7,9.9z"/>
</g>
<g>
	<path fill="#492727" d="M70.9,32.1c-1.2,0.3-2.2,0.5-2.9,0.5c-0.7,0.1-1.7,0.1-3,0c-0.4-0.2-0.6-0.6-0.5-1c0-0.4,0.6-0.6,1.8-0.7
		c-0.1-0.9-0.1-1.8,0-2.8c0-1.5,0-2.7,0-3.6c-5.8,0.6-9.1,0.8-9.8,0.8c0.1,1.4,0.1,2.7,0.2,3.8c0,0.2,0.1,0.6,0.4,1.2
		c0.2,0.4,0.3,0.7,0.4,0.9c1,0.1,1.6,0.3,1.8,0.5c0,0,0,0.1,0,0.1c0,0,0,0.1,0,0.1c0,0,0,0.1,0,0.2c0,0.1-0.1,0.1-0.2,0.2
		c-1.2,0.3-2.2,0.5-2.9,0.5c-0.7,0.1-1.7,0.1-3,0c-0.4-0.2-0.6-0.5-0.5-1c0-0.4,0.8-0.7,2.4-0.8c-0.1-0.4-0.2-0.9-0.2-1.6
		c-0.1-0.9-0.2-2.3-0.3-4.1c-1.5-0.1-2.4-0.3-2.8-0.6c0-0.5,0.2-0.8,0.6-0.9c0.9-0.3,1.4-0.4,1.4-0.4c0.2,0,0.3,0,0.4,0s0.2,0,0.2,0
		c0-2.2-0.1-4.6-0.1-7.2c0-0.7,0-1.3,0.1-1.9c-0.6-0.1-1.3-0.2-2.2-0.4c-0.3-0.1-0.4-0.2-0.5-0.3c-0.1-0.1-0.1-0.2-0.1-0.2
		c0-0.1,0.1-0.1,0.2-0.2S52,13,52,13c0.6-0.3,1.7-0.5,3.3-0.5c2.1,0.1,3.2,0.3,3.3,0.8c0,0.4-0.1,0.8-0.5,1c-0.6,0-1.1,0.1-1.5,0.1
		c0,0,0,0.1,0,0.1c-0.1,0.3-0.2,0.6-0.2,0.7c-0.1,0.8-0.1,1.6-0.1,2.5c0,0.8,0,1.7,0,2.6c0,0.9,0.1,2,0.1,3.1c1,0,1.8,0,2.3,0
		c0.6,0,2-0.1,4.2-0.3s3.4-0.3,3.6-0.4c0.1-0.5,0.2-2.1,0.3-4.9c0-0.9,0.1-1.8,0.3-2.8c0-0.2,0.1-0.3,0.1-0.5c-0.6,0-1.2,0-1.8-0.1
		c-0.8-0.4-1-0.8-0.6-1.1c0.4-0.4,1.7-0.6,3.8-0.7c1.7,0,2.7,0.1,2.9,0.5c0,0.1,0,0.1,0,0.2c0,0,0,0.1,0,0.1s0,0.1,0,0.2
		c0,0.1-0.1,0.2-0.2,0.3c-0.7,0.2-1.4,0.3-2,0.4c0,0.6-0.1,1.3-0.2,2.1c-0.1,0.2-0.2,0.6-0.3,1c-0.1,1.4-0.3,2.6-0.4,3.6
		c-0.1,3.3-0.1,5.6-0.1,6.9c0.1,0.7,0.3,1.2,0.3,1.5s0.1,0.6,0.1,0.9c0,0.1,0,0.3-0.1,0.5c1.1,0,1.9,0.2,2.4,0.4
		c0.1,0,0.1,0.1,0.2,0.2c0.1,0.1,0.1,0.1,0.2,0.2c0,0.1,0,0.2,0,0.2S71.2,32,70.9,32.1z"/>
	<path fill="#492727" d="M92.6,31.7c-0.2,0.3-0.7,0.5-1.4,0.5c0,0-0.6,0-1.8,0.1c-0.2,0-0.8,0.1-1.9,0.3c-0.8,0.1-1.3,0.1-1.4,0.1
		c-0.2-0.1-0.3-0.4-0.4-0.8c-0.1-0.4,0-0.7,0.1-0.8c0.2-0.3,0.7-0.4,1.4-0.5v-0.3c0-0.7-0.4-2.2-1.2-4.6c-0.9,0.2-2.4,0.6-4.3,1.4
		c-1.7,0.7-3.2,1.2-4.4,1.5c-0.1,0.7-0.3,1.4-0.5,2.2c1.2,0.1,1.9,0.3,2.1,0.6c0,0.1,0,0.2,0.1,0.3c0.1,0.1,0,0.2-0.2,0.4
		c-1.1,0.3-2,0.5-2.6,0.5c-0.7,0-1.6,0-2.8,0c-0.4-0.2-0.5-0.6-0.5-1c0-0.3,0.6-0.6,1.5-0.7c0-0.4,0.2-0.8,0.5-1.4
		c-0.4,0.2-0.8,0.2-1.2,0.2c-0.8-0.1-1.1-0.4-0.9-0.9c0.2-0.3,0.7-0.5,1.5-0.9c0.8-0.3,1.2-0.5,1.2-0.6c1.1-3.3,3.1-8.2,5.9-14.5
		c0.7-0.9,1.6-0.3,2.8,1.9c1.4,3.1,2.5,5.8,3.3,8.1c0.2,0.7,0.4,1,0.5,1c0.5-0.1,1.1-0.1,1.6-0.2c0.9,0,1.3,0.2,1.2,0.6
		c-0.3,0.2-0.8,0.4-1.5,0.6c-0.6,0.2-0.9,0.4-0.9,0.5c0,0.2,0.3,1,0.8,2.4c0.5,1.2,0.9,2.3,1.2,3.1c1,0.1,1.5,0.2,1.7,0.4
		C92.4,31.3,92.5,31.5,92.6,31.7z M85.4,24.2c-0.3-1-0.8-2.3-1.5-3.9c-0.9-2-1.4-3.3-1.6-3.9c-0.2-0.3-0.4-0.4-0.5-0.4
		c-0.1,0-0.2,0.1-0.4,0.2c-0.2,0.6-0.5,1.2-1,2c-0.6,0.9-0.9,1.5-1.1,1.9c0.1,0.3,0.1,0.6,0.1,1.1c-0.1,0.2-0.3,0.5-0.5,0.8
		c-0.3,0.3-0.4,0.6-0.5,0.7c-0.1,0.5-0.3,1.2-0.4,2c-0.1,1-0.2,1.7-0.2,1.9l1.1-0.3C81.1,25.5,83.3,24.8,85.4,24.2z"/>
	<path fill="#492727" d="M106.7,27.7c0.1-0.4,0.6-0.5,1.2-0.4c0.3,0.8,0.5,1.6,0.5,2.5c0,0-0.1,0.6-0.2,1.9c0,0.4-0.3,0.9-0.7,1.3
		c-0.1,0-0.4-0.1-0.6-0.4c-0.2-0.2-0.3-0.3-0.3-0.5c0,0-0.1,0.1-0.2,0.1c-0.3,0.1-0.5,0.2-0.7,0.2c-0.1,0-0.5-0.1-1-0.2
		c-0.6-0.2-1-0.2-1.1-0.2c-0.1,0-0.9,0.1-2.3,0.4c-1.4,0.3-2.2,0.4-2.3,0.4c-0.1,0-0.3,0-0.6-0.1c-0.3-0.1-0.5-0.1-0.6-0.1
		s-0.6,0.1-1.3,0.4s-1.2,0.4-1.3,0.4c-0.2,0-0.4-0.2-0.7-0.5c-0.3-0.4-0.5-0.6-0.5-0.7c0-0.2,0.7-1.4,2.2-3.8c1.5-2.4,2.8-4.4,4-6.2
		c0.7-1,2.7-3.3,6.2-7c0-0.3-0.1-0.4-0.4-0.5c-1.6-0.3-3.3-0.4-4.9-0.4c-0.1,0-0.4,0-0.9,0.1c-0.4,0.1-0.9,0.2-1.4,0.4l-1,0.5
		c-0.2-0.1-0.4-0.2-0.6-0.3c0,1.3,0,2.2-0.1,2.8c-0.2,0.4-0.6,0.6-1.4,0.4c-0.4-0.9-0.6-2-0.5-3.3c0-0.6,0.1-1.2,0.2-1.7
		c0.2-0.6,0.4-1,0.7-1.2c0.3,0,0.5,0.1,0.7,0.2s0.3,0.4,0.5,0.7v0.2c0.2-0.2,0.4-0.3,0.5-0.3l8.9,0.2c0.5,0,0.9,0.1,1.4,0.1
		c0.6,0.1,1,0.2,1.2,0.4c-0.1,0.4-0.5,1.1-1.2,1.9c-0.8,1-1.3,1.5-1.3,1.6c0,0.2-0.1,0.6-0.3,1c-0.3,0.1-0.6,0.4-1.1,0.7
		c-2.2,2.5-4.1,5.4-5.8,8.7c0,0.1-0.6,0.9-1.7,2.6c0.2,0.3,0.8,0.4,1.9,0.3c0.1,0,1.2,0,3.3,0h3.3c0.2,0,0.4,0,0.5,0.1
		C106.5,29.1,106.6,28.2,106.7,27.7z"/>
	<path fill="#492727" d="M120.9,13.2c0.2,0.1,0.3,0.2,0.3,0.3c-0.1,0.4-0.5,0.6-1.1,0.6c-0.3,0-0.6,0.1-1,0.1c-0.4,0-0.6,0-0.6,0
		c-0.4,0-0.7,0.1-0.9,0.4c0.1,0.3,0.1,0.5,0.1,0.8c0,0.1-0.2,1.1-0.5,2.7c0.1,0.2,0.2,0.6,0.2,1.2c0,0.5,0,1-0.1,1.6
		c-0.1,0.6-0.1,1.5-0.1,2.6c0.1,3.6,0.1,5.9-0.1,7c0.3,0.1,0.9,0.3,2,0.4c0.9,0.1,1.3,0.3,1.5,0.6c-0.2,0.7-0.5,1.1-1,1.1
		c-0.2,0-0.6-0.1-1.3-0.2s-1.1-0.2-1.2-0.2c-0.7,0-1.3,0-1.8,0c-0.7,0.1-2,0.1-3.7,0.1c-0.2-0.2-0.3-0.5-0.3-0.7
		c0-0.3,0.2-0.6,0.6-0.8c0.4-0.2,1.4-0.4,3.2-0.5l0.5-13.5c0-0.3-0.1-1.1-0.2-2.5c-0.3-0.1-0.6-0.2-1-0.2c-0.4,0-0.9,0.1-1.4,0.3
		c-0.4,0.1-0.7,0.2-1.1,0.4c-0.3-0.1-0.4-0.4-0.4-0.8c0.1-0.6,0.7-0.9,1.8-1.1c0.9-0.2,2.8-0.3,5.6-0.3
		C119.9,12.7,120.6,12.9,120.9,13.2z"/>
	<path fill="#492727" d="M153.7,32.4c-1.2,0.3-2.1,0.4-2.8,0.5c-0.7,0.1-1.6,0.1-2.9,0c-0.4-0.2-0.6-0.5-0.5-1
		c0-0.3,0.6-0.5,1.6-0.7c-0.1-0.4-0.1-1-0.1-1.5l0.7-9.9c0-1.1-0.1-1.9-0.3-2.3c-0.3,0.4-0.5,0.7-0.7,1c-0.4,0.7-1,1.9-2,3.5
		c-1,1.7-1.6,2.9-2,3.7c-0.2,0.1-0.4,0.4-0.7,0.8c0,0.4-0.1,0.9-0.3,1.5c-0.3,0.6-0.6,1.4-1,2.5c-0.3,0.3-0.7,0.4-1.2,0.4
		c-1,0-2.1-1.3-3.1-4l-1.3-4.2l-0.8-1.9c-0.3-0.7-0.7-1.3-1.2-1.7c-0.3,1.7-0.4,3.4-0.4,4.9c0,1.3,0.1,3.3,0.4,6c0,0.4,0,0.7,0,1.1
		c1.3,0.1,2.1,0.3,2.3,0.6c0,0,0,0.1,0,0.1c0,0,0,0.1,0,0.1c0,0,0,0.1,0,0.2c0,0.1-0.1,0.1-0.2,0.2c-1.2,0.3-2.1,0.4-2.8,0.5
		c-0.7,0.1-1.6,0.1-2.9,0c-0.4-0.2-0.6-0.5-0.5-1c0-0.4,0.8-0.6,2.2-0.7c0-0.5,0-1.2-0.1-2.1c-0.1-1.2-0.1-2.2,0-3
		c0.3-5.1,0.4-8.4,0.2-9.9c-0.3-0.4-0.9-0.6-1.8-0.7c-0.5-0.2-0.7-0.4-0.6-0.8c0-0.7,1-1,2.9-0.7c0.7,0.4,1.2,0.8,1.4,1.2
		c1.6,2.2,2.8,4.4,3.6,6.6c0.7,1.9,1.3,3.7,2,5.6h0.4c0.3,0,1.6-1.6,3.8-4.8c2-3,3.5-5.3,4.3-6.8c0.3-0.5,0.4-1.2,0.6-2.1
		c0-0.4,0.2-0.8,0.4-1.3c-0.3-0.1-0.6-0.2-0.9-0.3c-0.3-0.1-0.4-0.2-0.5-0.3c-0.1-0.1-0.1-0.2,0-0.2c0-0.1,0.1-0.1,0.2-0.2
		c0.1-0.1,0.2-0.1,0.2-0.2c0.5-0.2,1.2-0.3,2.1-0.4c2,0.1,3.1,0.3,3.1,0.8c0,0.4-0.1,0.7-0.5,1c-0.7,0-1.4,0.1-1.9,0.1
		c-0.5,1.2-0.8,2.7-1,4.4c0,1.6,0.1,2.5,0.1,2.7c0,0.4-0.1,1.4-0.4,3.1c-0.1,0.6-0.2,1.7-0.3,3c-0.1,2-0.1,3.6,0,4.6
		c0.2,0.3,0.3,0.6,0.4,0.8c1.3,0,2.2,0.2,2.7,0.4c0.1,0,0.1,0.1,0.2,0.2c0.1,0.1,0.1,0.1,0.2,0.2c0,0.1,0,0.1,0,0.2
		C154.1,32.2,153.9,32.3,153.7,32.4z"/>
	<path fill="#492727" d="M170,13.2c0.1-0.4,0.6-0.5,1.2-0.4c0.4,0.2,0.5,1,0.5,2.5c0,0-0.1,0.6-0.2,1.9c0,0.4-0.3,0.9-0.7,1.3
		c-0.1,0-0.3-0.1-0.6-0.4c-0.2-0.2-0.4-0.5-0.3-0.8c0-1-0.1-1.9,0-2.6h-1c-4.5,0-7.1,0.2-7.9,0.5c-1,1.6-1.5,4.1-1.6,7.5
		c3.1-0.1,5.1-0.1,6.1-0.1c0-0.4,0.1-0.9,0.1-1.6c0-0.4,0.3-0.9,0.7-1.3c0.1,0,0.3,0,0.6,0.1c0.2,0.1,0.4,0.4,0.4,1
		c0.1,2.6,0,4.2-0.1,5c-0.1,0.5-0.5,0.6-1.2,0.2c-0.3-0.5-0.5-1.1-0.6-1.7h-0.2c-1.3,0.1-2.4,0.2-3.3,0.2s-1.7,0.2-2.4,0.3
		c0.1,2.2,0.2,3.9,0.4,5.3c2.5,0,5.2-0.1,8.2-0.2c1.1-0.1,2.1-0.2,2.8-0.5c0-0.3,0.1-1.1,0.2-2.4c0.2-0.6,0.4-1,0.7-1.2
		c0.3,0,0.5,0.1,0.7,0.2c0.1,0.1,0.3,0.4,0.5,0.7c0.1,2.4,0.1,4-0.1,4.9c-0.2,0.4-0.6,0.6-1.4,0.4c-0.1-0.3-0.3-0.6-0.4-1
		c-0.4,0.2-1,0.4-1.7,0.6c-1.3,0.3-3.3,0.6-6,0.8c-3.8,0.1-6.3,0.1-7.6,0c-0.4-0.3-0.6-0.7-0.6-1.2c0-0.5,0.8-0.8,2.3-0.9
		c-0.3-2.5-0.5-4.2-0.4-4.8c-0.7-0.3-1.2-0.5-1.2-0.7c0-0.5,0.2-1,0.6-1.4l0.6-0.6c0.1-0.3,0.3-1.3,0.6-3.3c0.3-1.4,0.6-2.5,0.9-3.4
		c0-0.2,0.1-0.5,0.2-0.9c-1.5,0.1-2.4,0.1-2.7,0c-0.6-0.2-0.7-0.5-0.4-1c0.2-0.6,1.1-1,2.7-1c2.3-0.2,5-0.3,8-0.4
		C167.1,13,168.4,13.1,170,13.2z"/>
	<path fill="#492727" d="M187.6,27.7c0.1-0.4,0.6-0.5,1.2-0.4c0.3,0.8,0.5,1.6,0.5,2.5c0,0-0.1,0.6-0.2,1.9c0,0.4-0.3,0.9-0.7,1.3
		c-0.1,0-0.4-0.1-0.6-0.4c-0.2-0.2-0.3-0.3-0.3-0.5c0,0-0.1,0.1-0.2,0.1c-0.3,0.1-0.5,0.2-0.7,0.2c-0.1,0-0.5-0.1-1-0.2
		c-0.6-0.2-1-0.2-1.1-0.2c-0.1,0-0.9,0.1-2.3,0.4c-1.4,0.3-2.2,0.4-2.3,0.4c-0.1,0-0.3,0-0.6-0.1c-0.3-0.1-0.5-0.1-0.6-0.1
		s-0.6,0.1-1.3,0.4s-1.2,0.4-1.3,0.4c-0.2,0-0.4-0.2-0.7-0.5c-0.3-0.4-0.5-0.6-0.5-0.7c0-0.2,0.7-1.4,2.2-3.8c1.5-2.4,2.8-4.4,4-6.2
		c0.7-1,2.7-3.3,6.2-7c0-0.3-0.1-0.4-0.4-0.5c-1.6-0.3-3.3-0.4-4.9-0.4c-0.1,0-0.4,0-0.9,0.1c-0.4,0.1-0.9,0.2-1.4,0.4l-1,0.5
		c-0.2-0.1-0.4-0.2-0.6-0.3c0,1.3,0,2.2-0.1,2.8c-0.2,0.4-0.6,0.6-1.4,0.4c-0.4-0.9-0.6-2-0.5-3.3c0-0.6,0.1-1.2,0.2-1.7
		c0.2-0.6,0.4-1,0.7-1.2c0.3,0,0.5,0.1,0.7,0.2s0.3,0.4,0.5,0.7v0.2c0.2-0.2,0.4-0.3,0.5-0.3l8.9,0.2c0.5,0,0.9,0.1,1.4,0.1
		c0.6,0.1,1,0.2,1.2,0.4c-0.1,0.4-0.5,1.1-1.2,1.9c-0.8,1-1.3,1.5-1.3,1.6c0,0.2-0.1,0.6-0.3,1c-0.3,0.1-0.6,0.4-1.1,0.7
		c-2.2,2.5-4.1,5.4-5.8,8.7c0,0.1-0.6,0.9-1.7,2.6c0.2,0.3,0.8,0.4,1.9,0.3c0.1,0,1.2,0,3.3,0h3.3c0.2,0,0.4,0,0.5,0.1
		C187.4,29.1,187.5,28.2,187.6,27.7z"/>
	<path fill="#492727" d="M206.9,13.2c0.1-0.4,0.6-0.5,1.2-0.4c0.4,0.2,0.5,1,0.5,2.5c0,0-0.1,0.6-0.2,1.9c0,0.4-0.3,0.9-0.7,1.3
		c-0.1,0-0.3-0.1-0.6-0.4c-0.2-0.2-0.4-0.5-0.3-0.8c0-1-0.1-1.9,0-2.6h-1c-4.5,0-7.1,0.2-7.9,0.5c-1,1.6-1.5,4.1-1.6,7.5
		c3.1-0.1,5.1-0.1,6.1-0.1c0-0.4,0.1-0.9,0.1-1.6c0-0.4,0.3-0.9,0.7-1.3c0.1,0,0.3,0,0.6,0.1c0.2,0.1,0.4,0.4,0.4,1
		c0.1,2.6,0,4.2-0.1,5c-0.1,0.5-0.5,0.6-1.2,0.2c-0.3-0.5-0.5-1.1-0.6-1.7H202c-1.3,0.1-2.4,0.2-3.3,0.2s-1.7,0.2-2.4,0.3
		c0.1,2.2,0.2,3.9,0.4,5.3c2.5,0,5.2-0.1,8.2-0.2c1.1-0.1,2.1-0.2,2.8-0.5c0-0.3,0.1-1.1,0.2-2.4c0.2-0.6,0.4-1,0.7-1.2
		c0.3,0,0.5,0.1,0.7,0.2c0.1,0.1,0.3,0.4,0.5,0.7c0.1,2.4,0.1,4-0.1,4.9c-0.2,0.4-0.6,0.6-1.4,0.4c-0.1-0.3-0.3-0.6-0.4-1
		c-0.4,0.2-1,0.4-1.7,0.6c-1.3,0.3-3.3,0.6-6,0.8c-3.8,0.1-6.3,0.1-7.6,0c-0.4-0.3-0.6-0.7-0.6-1.2c0-0.5,0.8-0.8,2.3-0.9
		c-0.3-2.5-0.5-4.2-0.4-4.8c-0.7-0.3-1.2-0.5-1.2-0.7c0-0.5,0.2-1,0.6-1.4l0.6-0.6c0.1-0.3,0.3-1.3,0.6-3.3c0.3-1.4,0.6-2.5,0.9-3.4
		c0-0.2,0.1-0.5,0.2-0.9c-1.5,0.1-2.4,0.1-2.7,0c-0.6-0.2-0.7-0.5-0.4-1c0.2-0.6,1.1-1,2.7-1c2.3-0.2,5-0.3,8-0.4
		C204,13,205.3,13.1,206.9,13.2z"/>
	<path fill="#492727" d="M222.7,12c0.2-0.4,0.7-0.6,1.5-0.4c0.6,0.2,0.6,1,0.2,2.4c-0.1,0.8-0.2,1.8-0.3,2.9c0,0.6-0.2,1.1-0.5,1.3
		c-0.5,0-0.8-0.1-1-0.4c-0.1-0.3-0.2-0.7-0.3-1.3c0-0.5,0-0.8,0-0.9c0-0.2-0.1-0.3-0.1-0.5c-0.1-0.3-0.4-0.6-0.9-0.8
		c-0.9-0.4-1.6-0.6-2.1-0.6c-1.8,0-3,0.6-3.6,1.6c0.2,0.4,0.1,0.9-0.3,1.5c-0.6,0.9,0.2,1.9,2.3,3c3.1,1.1,5.2,2.3,6.4,3.5
		c1.1,1.5,1.3,3.2,0.7,5.1c-0.6,1.5-1.8,2.7-3.5,3.6c-1.3,0.7-2.8,1-4.7,1c-1.2,0-2.3-0.4-3.4-1.2c-0.7-0.7-1.2-1.5-1.4-2.3
		c-0.2-0.8-0.1-1.5,0.3-2.2c0.4-0.5,0.9-0.8,1.5-0.9c1.5,0,2.1,0.7,1.9,2.1c-0.3,0.9-0.8,1.1-1.6,0.7c-0.1,0.8,0.3,1.5,1.4,2
		c1.3,0.5,2.6,0.4,4-0.2c0.1-0.4,0.8-0.9,2-1.3c0.9-0.3,1.4-1.4,1.4-3.4c0-0.9-0.4-1.6-1.1-2.2c-0.8-0.7-1.9-1.3-3.1-1.7
		c-1.6-0.4-2.6-0.9-3-1.2c-1.5-0.9-2.3-2.1-2.6-3.7c-0.1-1.3,0.3-2.4,1.2-3.5c1-1.1,2.3-1.6,3.8-1.7c1.5-0.1,2.9,0.2,4.2,1
		c0.1,0.4,0.3,0.4,0.5,0C222.5,12.8,222.6,12.4,222.7,12z"/>
	<path fill="#492727" d="M246.9,12c0.2-0.4,0.7-0.6,1.5-0.4c0.6,0.2,0.6,1,0.2,2.4c-0.1,0.8-0.2,1.8-0.3,2.9c0,0.6-0.2,1.1-0.5,1.3
		c-0.5,0-0.8-0.1-1-0.4c-0.1-0.3-0.2-0.7-0.3-1.3c0-0.5,0-0.8,0-0.9c0-0.2-0.1-0.3-0.1-0.5c-0.1-0.3-0.4-0.6-0.9-0.8
		c-0.9-0.4-1.6-0.6-2.1-0.6c-1.8,0-3,0.6-3.6,1.6c0.2,0.4,0.1,0.9-0.3,1.5c-0.6,0.9,0.2,1.9,2.3,3c3.1,1.1,5.2,2.3,6.4,3.5
		c1.1,1.5,1.3,3.2,0.7,5.1c-0.6,1.5-1.8,2.7-3.5,3.6c-1.3,0.7-2.8,1-4.7,1c-1.2,0-2.3-0.4-3.4-1.2c-0.7-0.7-1.2-1.5-1.4-2.3
		c-0.2-0.8-0.1-1.5,0.3-2.2c0.4-0.5,0.9-0.8,1.5-0.9c1.5,0,2.1,0.7,1.9,2.1c-0.3,0.9-0.8,1.1-1.6,0.7c-0.1,0.8,0.3,1.5,1.4,2
		c1.3,0.5,2.6,0.4,4-0.2c0.1-0.4,0.8-0.9,2-1.3c0.9-0.3,1.4-1.4,1.4-3.4c0-0.9-0.4-1.6-1.1-2.2c-0.8-0.7-1.9-1.3-3.1-1.7
		c-1.6-0.4-2.5-0.9-3-1.2c-1.5-0.9-2.3-2.1-2.6-3.7c-0.1-1.3,0.3-2.4,1.2-3.5c1-1.1,2.3-1.6,3.8-1.7c1.5-0.1,2.9,0.2,4.2,1
		c0.1,0.4,0.3,0.4,0.5,0C246.8,12.8,246.8,12.4,246.9,12z"/>
	<path fill="#492727" d="M258.6,14.1c-0.7,0.3-1.3,0.4-2,0.5c-0.1,0.5-0.3,1.4-0.5,2.5c-0.5,2.2-0.7,3.7-0.7,4.5
		c0.1,0.9,0.1,2.3,0.3,4c0.1,1.9,0.7,3.2,1.9,3.9c0.8,0.5,2,0.7,3.5,0.7c1.1,0,2-0.2,2.6-0.5c0.5-0.6,0.8-1.2,0.9-1.6s0.2-0.8,0.3-1
		c0.3-0.5,0.4-1,0.5-1.4c0.4-2.1,0.6-3.7,0.6-5c0-2.8-0.2-4.7-0.5-5.9c-0.4,0-1,0-1.6-0.1c-0.4-0.2-0.6-0.5-0.5-1
		c0-0.5,1.1-0.7,3.1-0.8c1.8,0.1,2.9,0.3,3.1,0.6c0,0,0,0.1,0,0.1c0,0,0,0.1,0,0.1c0,0,0,0.1,0,0.2s-0.1,0.1-0.2,0.2
		c-0.9,0.2-1.7,0.4-2.3,0.4c0.1,0.3,0.2,0.4,0.3,0.4c0.3,2.4,0.4,4.7,0.4,6.7c0,0.1,0,0.4,0,1s0,0.9,0,1.1c0,0.1-0.1,0.4-0.4,0.7
		c-0.2,0.4-0.4,0.7-0.4,0.9c0,0.4,0,1.1-0.1,2c-0.1,0.5-0.4,1.2-0.9,2.3c-0.7,1.4-1.3,2-1.8,2c-0.1,0-0.2,0-0.2-0.1
		c0-0.1,0-0.1-0.2-0.1c-0.2,0-0.3,0.1-0.4,0.3c-0.1,0.3-0.2,0.4-0.3,0.4c-1,0.3-2,0.4-2.9,0.4c-2.2,0-4-0.9-5.4-2.6
		c-0.3-0.4-0.6-0.9-0.7-1.6c-0.1-0.6-0.2-1.2-0.3-1.9c-0.3-1.5-0.5-2.6-0.5-3.3c0-1,0.1-2.1,0.3-3.3c0.2-1.7,0.4-3.1,0.5-4.3
		c0.1-0.3,0.2-0.6,0.3-1c-0.3,0-0.7,0.1-1,0.1c-0.6,0.1-0.9,0.2-1.1,0.2c-0.3,0-0.6-0.4-0.9-1.1c0-0.8,1-1.2,2.9-1.1
		c2.5,0,3.8,0.2,4.1,0.5c0,0.1,0,0.2,0.1,0.3S258.8,13.9,258.6,14.1z"/>
	<path fill="#492727" d="M283.5,31.8c-1.1,0.4-2.2,0.5-3.4,0.5c-0.9,0-1.6,0.1-2.3,0.2s-1,0.2-1.2,0.2c-0.3,0-0.7-0.4-1-1.1
		c0-0.7,0.8-1.1,2.5-1.1c-0.2-1.1-0.2-2.7-0.2-4.9c0.1-2.3,0.2-5.5,0.3-9.7c-0.1-0.1-0.2-0.4-0.3-0.8c-2.2-0.2-4-0.4-5.3-0.5
		c0,1.8,0,2.9-0.1,3.5c-0.1,0.4-0.6,0.5-1.3,0.4c-0.4-0.8-0.6-1.6-0.6-2.5c0.1-2.4,0.4-3.6,1-3.6c0.3-0.1,0.6,0.1,0.9,0.5
		c2,0.1,4,0.2,6,0.3c0.1,0,0.2-0.1,0.4-0.2c0.1-0.2,0.4-0.3,0.6-0.3c0.4,0,0.8,0.2,1.3,0.5c0.6,0.2,1.3,0.3,2.1,0.3
		c1,0,1.9,0,2.6,0.1c0-0.3,0-0.6,0.1-0.8c0.5-0.1,0.8-0.1,1-0.1c0.2,0.1,0.4,0.4,0.6,0.8l0.1,1.4c0.1,0.7,0,1.5-0.2,2.3
		c-0.2,0.8-0.5,1.2-0.7,1.3c-0.4,0-0.6-0.1-0.8-0.4c-0.1-0.2-0.1-1.3-0.2-3.3c-0.4,0.3-1.2,0.4-2.1,0.4c-1.2,0-2.1,0.1-2.8,0.1
		c0,0.3-0.1,0.7-0.4,1.2c-0.2,0.5-0.3,0.8-0.3,1.1c0.1,2.6,0,4.4-0.2,5.4c-0.1,0.4-0.1,0.8-0.1,1.2c0,0.4,0,0.9,0.1,1.6
		c0.1,0.7,0.1,1.2,0.1,1.5c0,0.1-0.1,0.3-0.2,0.5c-0.1,0.2-0.2,0.4-0.2,0.5c0,0.1,0.1,0.3,0.3,0.5s0.3,0.5,0.3,0.6s0.1,0.4,0.2,0.7
		c0,0.2,0.1,0.4,0.1,0.6c1.7,0.1,2.6,0.2,2.9,0.5c0,0.1,0,0.2,0.1,0.3C283.7,31.5,283.7,31.6,283.5,31.8z"/>
	<path fill="#492727" d="M303.2,13.2c0.1-0.4,0.6-0.5,1.2-0.4c0.4,0.2,0.5,1,0.5,2.5c0,0-0.1,0.6-0.2,1.9c0,0.4-0.3,0.9-0.7,1.3
		c-0.1,0-0.3-0.1-0.6-0.4c-0.2-0.2-0.4-0.5-0.3-0.8c0-1-0.1-1.9,0-2.6h-1c-4.5,0-7.1,0.2-7.9,0.5c-1,1.6-1.5,4.1-1.6,7.5
		c3.1-0.1,5.1-0.1,6.1-0.1c0-0.4,0.1-0.9,0.1-1.6c0-0.4,0.3-0.9,0.7-1.3c0.1,0,0.3,0,0.6,0.1c0.2,0.1,0.4,0.4,0.4,1
		c0.1,2.6,0,4.2-0.1,5c-0.1,0.5-0.5,0.6-1.2,0.2c-0.3-0.5-0.5-1.1-0.6-1.7h-0.2c-1.3,0.1-2.4,0.2-3.3,0.2c-0.9,0.1-1.7,0.2-2.4,0.3
		c0.1,2.2,0.2,3.9,0.4,5.3c2.5,0,5.2-0.1,8.2-0.2c1.1-0.1,2.1-0.2,2.8-0.5c0-0.3,0.1-1.1,0.2-2.4c0.2-0.6,0.4-1,0.7-1.2
		c0.3,0,0.5,0.1,0.7,0.2c0.1,0.1,0.3,0.4,0.5,0.7c0.1,2.4,0.1,4-0.1,4.9c-0.2,0.4-0.6,0.6-1.4,0.4c-0.2-0.3-0.3-0.6-0.4-1
		c-0.4,0.2-1,0.4-1.7,0.6c-1.3,0.3-3.3,0.6-6,0.8c-3.8,0.1-6.3,0.1-7.6,0c-0.4-0.3-0.6-0.7-0.6-1.2c0-0.5,0.8-0.8,2.3-0.9
		c-0.3-2.5-0.5-4.2-0.4-4.8c-0.7-0.3-1.2-0.5-1.2-0.7c0-0.5,0.2-1,0.6-1.4l0.6-0.6c0.1-0.3,0.3-1.3,0.6-3.3c0.3-1.4,0.6-2.5,0.9-3.4
		c0-0.2,0.1-0.5,0.2-0.9c-1.5,0.1-2.4,0.1-2.7,0c-0.6-0.2-0.7-0.5-0.4-1c0.2-0.6,1.1-1,2.7-1c2.3-0.2,5-0.3,8-0.4
		C300.4,13,301.6,13.1,303.2,13.2z"/>
	<path fill="#492727" d="M329.8,32.4c-1.2,0.3-2.1,0.4-2.8,0.5c-0.7,0.1-1.6,0.1-2.9,0c-0.4-0.2-0.6-0.5-0.5-1
		c0-0.3,0.6-0.5,1.6-0.7c-0.1-0.4-0.1-1-0.1-1.5l0.7-9.9c0-1.1-0.1-1.9-0.3-2.3c-0.3,0.4-0.5,0.7-0.7,1c-0.4,0.7-1,1.9-2,3.5
		c-1,1.7-1.6,2.9-2,3.7c-0.2,0.1-0.4,0.4-0.7,0.8c0,0.4-0.1,0.9-0.3,1.5c-0.3,0.6-0.6,1.4-1,2.5c-0.3,0.3-0.7,0.4-1.2,0.4
		c-1,0-2.1-1.3-3.1-4l-1.3-4.2l-0.8-1.9c-0.3-0.7-0.7-1.3-1.2-1.7c-0.3,1.7-0.4,3.4-0.4,4.9c0,1.3,0.1,3.3,0.4,6c0,0.4,0,0.7,0,1.1
		c1.3,0.1,2.1,0.3,2.3,0.6c0,0,0,0.1,0,0.1s0,0.1,0,0.1c0,0,0,0.1,0,0.2c0,0.1-0.1,0.1-0.2,0.2c-1.2,0.3-2.1,0.4-2.8,0.5
		c-0.7,0.1-1.6,0.1-2.9,0c-0.4-0.2-0.6-0.5-0.5-1c0-0.4,0.8-0.6,2.2-0.7c0-0.5,0-1.2-0.1-2.1c-0.1-1.2-0.1-2.2,0-3
		c0.3-5.1,0.4-8.4,0.2-9.9c-0.3-0.4-0.9-0.6-1.8-0.7c-0.5-0.2-0.7-0.4-0.6-0.8c0-0.7,1-1,2.9-0.7c0.7,0.4,1.2,0.8,1.4,1.2
		c1.6,2.2,2.8,4.4,3.6,6.6c0.7,1.9,1.3,3.7,2,5.6h0.4c0.3,0,1.6-1.6,3.8-4.8c2-3,3.5-5.3,4.3-6.8c0.3-0.5,0.4-1.2,0.6-2.1
		c0-0.4,0.2-0.8,0.4-1.3c-0.3-0.1-0.6-0.2-0.9-0.3c-0.3-0.1-0.4-0.2-0.5-0.3c-0.1-0.1-0.1-0.2,0-0.2s0.1-0.1,0.2-0.2
		s0.2-0.1,0.2-0.2c0.5-0.2,1.2-0.3,2.1-0.4c2,0.1,3.1,0.3,3.1,0.8c0,0.4-0.1,0.7-0.5,1c-0.7,0-1.4,0.1-1.9,0.1
		c-0.5,1.2-0.8,2.7-1,4.4c0,1.6,0.1,2.5,0.1,2.7c0,0.4-0.1,1.4-0.4,3.1c-0.1,0.6-0.2,1.7-0.3,3c-0.1,2-0.1,3.6,0,4.6
		c0.2,0.3,0.3,0.6,0.4,0.8c1.3,0,2.2,0.2,2.7,0.4c0.1,0,0.1,0.1,0.2,0.2c0.1,0.1,0.1,0.1,0.2,0.2s0,0.1,0,0.2
		C330.2,32.2,330.1,32.3,329.8,32.4z"/>
	<path fill="#492727" d="M346.1,13.2c0.1-0.4,0.6-0.5,1.2-0.4c0.4,0.2,0.5,1,0.5,2.5c0,0-0.1,0.6-0.2,1.9c0,0.4-0.3,0.9-0.7,1.3
		c-0.1,0-0.3-0.1-0.6-0.4c-0.2-0.2-0.4-0.5-0.3-0.8c0-1-0.1-1.9,0-2.6h-1c-4.5,0-7.1,0.2-7.9,0.5c-1,1.6-1.5,4.1-1.6,7.5
		c3.1-0.1,5.1-0.1,6.1-0.1c0-0.4,0.1-0.9,0.1-1.6c0-0.4,0.3-0.9,0.7-1.3c0.1,0,0.3,0,0.6,0.1c0.2,0.1,0.4,0.4,0.4,1
		c0.1,2.6,0,4.2-0.1,5c-0.1,0.5-0.5,0.6-1.2,0.2c-0.3-0.5-0.5-1.1-0.6-1.7h-0.2c-1.3,0.1-2.4,0.2-3.3,0.2c-0.9,0.1-1.7,0.2-2.4,0.3
		c0.1,2.2,0.2,3.9,0.4,5.3c2.5,0,5.2-0.1,8.2-0.2c1.1-0.1,2.1-0.2,2.8-0.5c0-0.3,0.1-1.1,0.2-2.4c0.2-0.6,0.4-1,0.7-1.2
		c0.3,0,0.5,0.1,0.7,0.2c0.1,0.1,0.3,0.4,0.5,0.7c0.1,2.4,0.1,4-0.1,4.9c-0.2,0.4-0.6,0.6-1.4,0.4c-0.2-0.3-0.3-0.6-0.4-1
		c-0.4,0.2-1,0.4-1.7,0.6c-1.3,0.3-3.3,0.6-6,0.8c-3.8,0.1-6.3,0.1-7.6,0c-0.4-0.3-0.6-0.7-0.6-1.2c0-0.5,0.8-0.8,2.3-0.9
		c-0.3-2.5-0.5-4.2-0.4-4.8c-0.7-0.3-1.2-0.5-1.2-0.7c0-0.5,0.2-1,0.6-1.4l0.6-0.6c0.1-0.3,0.3-1.3,0.6-3.3c0.3-1.4,0.6-2.5,0.9-3.4
		c0-0.2,0.1-0.5,0.2-0.9c-1.5,0.1-2.4,0.1-2.7,0c-0.6-0.2-0.7-0.5-0.4-1c0.2-0.6,1.1-1,2.7-1c2.3-0.2,5-0.3,8-0.4
		C343.3,13,344.5,13.1,346.1,13.2z"/>
	<path fill="#492727" d="M357.2,32c-1.4,0-2.4,0-3.1,0c-0.7,0.1-1.6,0.1-2.9,0c-0.4-0.2-0.6-0.5-0.5-1c0-0.4,0.9-0.7,2.6-0.8
		c0-0.2,0-0.3,0-0.5c0-1.2-0.1-2.4-0.1-3.6l-0.8-7.1c0-1,0.1-2,0.3-2.9c0-0.1,0.1-0.3,0.2-0.5c-0.7-0.1-1.4-0.4-2-0.7
		c-0.4-0.1-0.7-0.5-0.7-1.1c0-0.3,1.4-0.2,4.1,0.4c1.4,0.5,2.4,1.1,2.9,1.8c0.6,0.7,1.1,1.3,1.5,1.9c1.6,2.4,2.6,4,2.9,4.9
		c0.2,0.6,0.6,1.2,1.2,1.9c0.8,0.9,1.3,1.5,1.4,1.8c0.2-0.3,0.3-0.6,0.3-1c0-0.3,0-0.7,0-1c0-0.6,0.1-1.7,0.2-3.4
		c-0.1-0.9-0.1-2-0.2-3.3c0-0.9,0-1.6-0.1-2.2c0-0.1-0.1-0.3-0.3-0.4c-0.2-0.2-0.2-0.4-0.2-0.5c0-0.1,0-0.2,0.1-0.4
		c-0.4-0.1-0.8-0.1-1.2-0.3c-0.3-0.1-0.4-0.1-0.5-0.2c-0.1-0.1-0.1-0.1-0.1-0.2s0.1-0.1,0.1-0.2c0.1-0.1,0.1-0.1,0.2-0.2
		c0.5-0.2,1.2-0.4,1.9-0.5c2.6-0.1,4,0,4.1,0.4c0.1,0.4-0.1,0.8-0.4,1c-0.6,0.1-1.2,0.1-1.7,0.2c0,0.4,0.1,1,0.1,1.6
		c0,0.8-0.1,1.9-0.2,3.3c-0.2,1.5-0.1,4.9,0.2,10c0,0.4,0,0.8,0,1.2c0,0.4,0.1,0.8,0.1,1.2c0,0.6-0.3,1-0.9,1c-0.6,0-1-0.2-1.2-0.6
		c0-0.1-0.2-0.4-0.4-1.1c-0.3-0.3-0.7-0.7-1.1-1.2c-1.3-2.3-2.6-4.6-3.9-7c-2-3.4-3.6-5.6-4.7-6.6c-0.3,0.4-0.4,1.1-0.3,1.9
		c0,0.3,0,0.9,0.1,1.9c0,0.9,0.1,1.5,0,1.9c0.3,1.1,0.4,2.1,0.3,3c0,0.1,0.1,0.3,0.2,0.5c0.1,0.2,0.1,0.5,0.1,0.7
		c0,0.3-0.1,0.5-0.2,0.8c-0.1,0.3-0.2,0.4-0.2,0.5c0,0.1,0.1,0.7,0.4,1.5c0.1,0.6,0.3,1,0.3,1.3c1,0.1,1.7,0.2,2.1,0.4
		c0.3,0.1,0.5,0.3,0.5,0.5C357.9,31.6,357.7,31.8,357.2,32z"/>
	<path fill="#492727" d="M382.9,32.1c-1,0.4-2,0.5-3.1,0.5c-0.8,0-1.5,0.1-2,0.2c-0.6,0.1-0.9,0.2-1.1,0.2c-0.3,0-0.6-0.4-0.9-1.1
		c0-0.7,0.7-1,2.1-1.1c-0.1-0.7-0.2-1.8-0.4-3.4c-0.1-1.4-0.1-2.1-0.1-2.2c0.1-0.1,0.2-0.3,0.4-0.5c-0.7-1.6-2-3.7-3.8-6.4
		c-0.8-1.2-1.6-2.3-2.3-3.5c-0.6,0-1.3,0-2-0.1c-0.4-0.2-0.6-0.5-0.5-1c0-0.5,1.1-0.7,3.1-0.8c1.8,0.1,2.9,0.3,3.1,0.6
		c0,0,0,0.1,0,0.1c0,0,0,0.1,0,0.1c0,0,0,0.1,0,0.2s-0.1,0.1-0.2,0.2c-0.6,0.1-1.2,0.3-1.7,0.4c0.7,0.7,1.4,1.8,2.3,3.1
		c1.5,2.4,2.5,4.1,2.9,5.1c0.9-0.8,1.8-1.7,2.7-2.8c1-1.2,1.7-2.3,2-3.3c0.3,0,0.9-0.8,1.8-2.3c0.2-0.3,0.3-0.5,0.5-0.8
		c-0.4-0.1-0.9-0.3-1.4-0.4c-0.3-0.1-0.4-0.2-0.5-0.3c-0.1-0.1-0.1-0.2,0-0.2s0.1-0.1,0.2-0.2s0.2-0.1,0.2-0.2
		c0.5-0.2,1.2-0.3,2.1-0.4c2,0.1,3.1,0.3,3.1,0.8c0,0.4-0.1,0.7-0.5,1c-0.7,0-1.3,0.1-1.8,0.1c-0.9,1.5-2.1,3.5-3.6,6
		c-0.2,0.1-0.5,0.3-0.8,0.6c-0.3,0.5-0.7,1.2-1.3,2.2c-0.3,0.4-0.8,1-1.5,1.7c0,0.3-0.1,0.8-0.1,1.5c-0.1,0.7-0.1,1.1-0.1,1.2
		c0,0.1,0.1,0.3,0.2,0.6c0.1,0.3,0.2,0.5,0.2,0.7c-0.1,0.3-0.1,0.6-0.1,0.9c0,0.5,0.1,0.9,0.3,1.3c0.1,0.2,0.2,0.3,0.2,0.5
		c1.4,0.1,2.2,0.2,2.4,0.5c0,0.1,0,0.2,0.1,0.3C383.1,31.8,383,31.9,382.9,32.1z"/>
	<path fill="#492727" d="M404.7,13.2c0.1-0.4,0.6-0.5,1.2-0.4c0.4,0.2,0.5,1,0.5,2.5c0,0-0.1,0.6-0.2,1.9c0,0.4-0.3,0.9-0.7,1.3
		c-0.1,0-0.3-0.1-0.6-0.4c-0.2-0.2-0.4-0.5-0.3-0.8c0-1-0.1-1.9,0-2.6h-1c-4.5,0-7.1,0.2-7.9,0.5c-1,1.6-1.5,4.1-1.6,7.5
		c3.1-0.1,5.1-0.1,6.1-0.1c0-0.4,0.1-0.9,0.1-1.6c0-0.4,0.3-0.9,0.7-1.3c0.1,0,0.3,0,0.6,0.1c0.2,0.1,0.4,0.4,0.4,1
		c0.1,2.6,0,4.2-0.1,5c-0.1,0.5-0.5,0.6-1.2,0.2c-0.3-0.5-0.5-1.1-0.6-1.7h-0.2c-1.3,0.1-2.4,0.2-3.3,0.2c-0.9,0.1-1.7,0.2-2.4,0.3
		c0.1,2.2,0.2,3.9,0.4,5.3c2.5,0,5.2-0.1,8.2-0.2c1.1-0.1,2.1-0.2,2.8-0.5c0-0.3,0.1-1.1,0.2-2.4c0.2-0.6,0.4-1,0.7-1.2
		c0.3,0,0.5,0.1,0.7,0.2c0.1,0.1,0.3,0.4,0.5,0.7c0.1,2.4,0.1,4-0.1,4.9c-0.2,0.4-0.6,0.6-1.4,0.4c-0.2-0.3-0.3-0.6-0.4-1
		c-0.4,0.2-1,0.4-1.7,0.6c-1.3,0.3-3.3,0.6-6,0.8c-3.8,0.1-6.3,0.1-7.6,0c-0.4-0.3-0.6-0.7-0.6-1.2c0-0.5,0.8-0.8,2.3-0.9
		c-0.3-2.5-0.5-4.2-0.4-4.8c-0.7-0.3-1.2-0.5-1.2-0.7c0-0.5,0.2-1,0.6-1.4l0.6-0.6c0.1-0.3,0.3-1.3,0.6-3.3c0.3-1.4,0.6-2.5,0.9-3.4
		c0-0.2,0.1-0.5,0.2-0.9c-1.5,0.1-2.4,0.1-2.7,0c-0.6-0.2-0.7-0.5-0.4-1c0.2-0.6,1.1-1,2.7-1c2.3-0.2,5-0.3,8-0.4
		C401.8,13,403.1,13.1,404.7,13.2z"/>
	<path fill="#492727" d="M415,32.5c-1.2,0.3-2.1,0.4-2.8,0.5c-0.7,0.1-1.6,0.1-2.9,0c-0.4-0.2-0.6-0.5-0.5-1c0-0.4,0.6-0.6,1.9-0.7
		c0-0.2,0-0.4,0-0.6c0-0.6,0.1-1.4,0.2-2.3c0.1-0.9,0.2-1.6,0.2-2c0,0-0.2-0.2-0.5-0.4c-0.3-0.3-0.4-0.5-0.4-0.7
		c0-0.4,0.1-0.7,0.4-0.9c0.3-0.2,0.5-0.4,0.7-0.6c0.1-3.2,0.2-5.1,0.2-5.7c0-0.1-0.1-0.6-0.2-1.3s-0.2-1.4-0.2-1.9
		c0-0.2,0-0.5,0-0.7c-0.6-0.1-1.3-0.2-2.1-0.4c-0.3-0.1-0.4-0.2-0.5-0.3c-0.1-0.1-0.1-0.2,0-0.2c0-0.1,0.1-0.1,0.2-0.2
		s0.2-0.1,0.2-0.2c0.6-0.3,1.6-0.5,3.1-0.4c2,0.1,3.1,0.3,3.1,0.8c0,0.4-0.1,0.7-0.5,1c-0.7,0-1.1,0-1.3,0c0,0.6,0,1.4,0,2.2
		c0,2.3,0.1,3.7,0.1,4.1c0,0.5,0,0.9-0.1,1.3c0.6,0,1.2-0.2,1.9-0.6c0.5-0.2,1.2-0.6,2.1-1.2c1.2-0.6,3.2-2.3,6.3-5.2
		c-0.4,0-0.8-0.1-1.3-0.1c-0.8-0.4-1-0.7-0.5-1.1c0.4-0.4,1.6-0.6,3.6-0.7c1.6,0,2.5,0.1,2.8,0.5c0.1,0.2,0.1,0.3,0.1,0.3
		c0,0-0.1,0.2-0.3,0.4c-0.9,0.2-1.7,0.4-2.4,0.5l0,0c-0.1,0.2-0.3,0.5-0.7,0.8c-1.7,1.5-3.5,3.2-5.4,5.1c0.2,0.4,0.6,1.1,1.2,2
		c0.3,0.5,0.7,1.1,1.3,1.9c2.9,3.3,4.5,5.4,4.8,6.2c1,0,1.8,0.2,2.2,0.4c0.1,0,0.1,0.1,0.2,0.2s0.1,0.1,0.2,0.2c0,0.1,0,0.1,0,0.2
		c-0.1,0.1-0.2,0.2-0.5,0.3c-1.2,0.3-2.1,0.4-2.8,0.5c-0.7,0.1-1.6,0.1-2.9,0c-0.4-0.2-0.6-0.5-0.5-1c0-0.3,0.4-0.5,1.1-0.6
		c-0.7-0.9-1.7-2.1-2.9-3.8c-2.3-3.2-3.6-4.9-3.8-4.9c-0.3,0-0.9,0.3-1.9,0.9c-1.1,0.7-1.9,1.4-2.3,2c-0.2,0.3-0.4,1.2-0.6,2.8
		c0,0.1,0,0.2,0.2,0.4c0.1,0.2,0.2,0.4,0.3,0.5c0.1,0.4,0.1,1,0,1.8c0,0.2,0,0.4,0,0.5c1.3,0.1,2,0.3,2.2,0.6c0,0,0,0.1,0,0.1
		c0,0,0,0.1,0,0.1c0,0,0,0.1,0,0.2C415.1,32.4,415.1,32.5,415,32.5z"/>
</g>
<path fill="#492727" d="M86.8,4.4c-0.1,0.7-0.3,1.7-0.5,2.9c-0.3,1.2-0.5,2.2-0.7,3.1H87c0.4-0.9,0.8-1.9,1.2-3
	c0.4-1.1,0.7-2,0.9-2.8l-0.2-0.3H86.8z"/>
<path fill="#492727" d="M164.6,4.4c-0.1,0.7-0.3,1.7-0.5,2.9c-0.3,1.2-0.5,2.2-0.7,3.1h1.5c0.4-0.9,0.8-1.9,1.2-3
	c0.4-1.1,0.7-2,0.9-2.8l-0.2-0.3H164.6z"/>
<path fill="#492727" d="M340.9,4.4c-0.1,0.7-0.3,1.7-0.5,2.9c-0.3,1.2-0.5,2.2-0.7,3.1h1.5c0.4-0.9,0.8-1.9,1.2-3
	c0.4-1.1,0.7-2,0.9-2.8l-0.2-0.3H340.9z"/>
<path fill="#492727" d="M259.2,11.2L259.2,11.2c-0.9,0-1.6-0.7-1.6-1.6v0c0-0.9,0.7-1.6,1.6-1.6l0,0c0.9,0,1.6,0.7,1.6,1.6v0
	C260.8,10.5,260.1,11.2,259.2,11.2z"/>
<path fill="#492727" d="M265.7,11.2L265.7,11.2c-0.9,0-1.6-0.7-1.6-1.6v0c0-0.9,0.7-1.6,1.6-1.6l0,0c0.9,0,1.6,0.7,1.6,1.6v0
	C267.2,10.5,266.5,11.2,265.7,11.2z"/>
</svg>
