<?xml version="1.0" encoding="utf-8"?>
<!-- Generator: Adobe Illustrator 19.1.0, SVG Export Plug-In . SVG Version: 6.00 Build 0)  -->
<svg version="1.1" id="Layer_2" xmlns="http://www.w3.org/2000/svg" xmlns:xlink="http://www.w3.org/1999/xlink" x="0px" y="0px"
	 viewBox="0 0 295.2 40" enable-background="new 0 0 295.2 40" xml:space="preserve">
<g>
	<path fill="#492727" d="M71.5,31.7c-0.2,0.3-0.7,0.5-1.4,0.5c0,0-0.6,0-1.8,0.1c-0.2,0-0.8,0.1-1.9,0.3c-0.8,0.1-1.3,0.1-1.4,0.1
		c-0.2-0.1-0.3-0.4-0.4-0.8c-0.1-0.4,0-0.7,0.1-0.8c0.2-0.3,0.7-0.4,1.4-0.5v-0.3c0-0.7-0.4-2.2-1.2-4.6c-0.9,0.2-2.4,0.6-4.3,1.4
		c-1.7,0.7-3.2,1.2-4.4,1.5c-0.1,0.7-0.3,1.4-0.5,2.2c1.2,0.1,1.9,0.3,2.1,0.6c0,0.1,0,0.2,0.1,0.3c0.1,0.1,0,0.2-0.2,0.4
		c-1.1,0.3-2,0.5-2.6,0.5c-0.7,0-1.6,0-2.8,0c-0.4-0.2-0.5-0.6-0.5-1c0-0.3,0.6-0.6,1.5-0.7c0-0.4,0.2-0.8,0.5-1.4
		c-0.4,0.2-0.8,0.2-1.2,0.2c-0.8-0.1-1.1-0.4-0.9-0.9c0.2-0.3,0.7-0.5,1.5-0.9c0.8-0.3,1.2-0.5,1.2-0.6c1.1-3.3,3.1-8.2,5.9-14.5
		c0.7-0.9,1.6-0.3,2.8,1.9c1.4,3.1,2.5,5.8,3.3,8.1c0.2,0.7,0.4,1,0.5,1c0.5-0.1,1.1-0.1,1.6-0.2c0.9,0,1.3,0.2,1.2,0.6
		c-0.3,0.2-0.8,0.4-1.5,0.6c-0.6,0.2-0.9,0.4-0.9,0.5c0,0.2,0.3,1,0.8,2.4c0.5,1.2,0.9,2.3,1.2,3.1c1,0.1,1.5,0.2,1.7,0.4
		C71.2,31.3,71.4,31.5,71.5,31.7z M64.3,24.2c-0.3-1-0.8-2.3-1.5-3.9c-0.9-2-1.4-3.3-1.6-3.9C61,16.2,60.8,16,60.7,16
		c-0.1,0-0.2,0.1-0.4,0.2c-0.2,0.6-0.5,1.2-1,2c-0.6,0.9-0.9,1.5-1.1,1.9c0.1,0.3,0.1,0.6,0.1,1.1c-0.1,0.2-0.3,0.5-0.5,0.8
		c-0.3,0.3-0.4,0.6-0.5,0.7c-0.1,0.5-0.3,1.2-0.4,2c-0.1,1-0.2,1.7-0.2,1.9l1.1-0.3C60,25.5,62.1,24.8,64.3,24.2z"/>
	<path fill="#492727" d="M103.4,32.4c-1.2,0.3-2.1,0.4-2.8,0.5c-0.7,0.1-1.6,0.1-2.9,0c-0.4-0.2-0.6-0.5-0.5-1
		c0-0.3,0.6-0.5,1.6-0.7c-0.1-0.4-0.1-1-0.1-1.5l0.7-9.9c0-1.1-0.1-1.9-0.3-2.3c-0.3,0.4-0.5,0.7-0.7,1c-0.4,0.7-1,1.9-2,3.5
		c-1,1.7-1.6,2.9-2,3.7c-0.2,0.1-0.4,0.4-0.7,0.8c0,0.4-0.1,0.9-0.3,1.5c-0.3,0.6-0.6,1.4-1,2.5c-0.3,0.3-0.7,0.4-1.2,0.4
		c-1,0-2.1-1.3-3.1-4l-1.3-4.2L86,20.6c-0.3-0.7-0.7-1.3-1.2-1.7c-0.3,1.7-0.4,3.4-0.4,4.9c0,1.3,0.1,3.3,0.4,6c0,0.4,0,0.7,0,1.1
		c1.3,0.1,2.1,0.3,2.3,0.6c0,0,0,0.1,0,0.1c0,0,0,0.1,0,0.1c0,0,0,0.1,0,0.2c0,0.1-0.1,0.1-0.2,0.2c-1.2,0.3-2.1,0.4-2.8,0.5
		c-0.7,0.1-1.6,0.1-2.9,0c-0.4-0.2-0.6-0.5-0.5-1c0-0.4,0.8-0.6,2.2-0.7c0-0.5,0-1.2-0.1-2.1c-0.1-1.2-0.1-2.2,0-3
		c0.3-5.1,0.4-8.4,0.2-9.9c-0.3-0.4-0.9-0.6-1.8-0.7c-0.5-0.2-0.7-0.4-0.6-0.8c0-0.7,1-1,2.9-0.7c0.7,0.4,1.2,0.8,1.4,1.2
		c1.6,2.2,2.8,4.4,3.6,6.6c0.7,1.9,1.3,3.7,2,5.6h0.4c0.3,0,1.6-1.6,3.8-4.8c2-3,3.5-5.3,4.3-6.8c0.3-0.5,0.4-1.2,0.6-2.1
		c0-0.4,0.2-0.8,0.4-1.3c-0.3-0.1-0.6-0.2-0.9-0.3c-0.3-0.1-0.4-0.2-0.5-0.3c-0.1-0.1-0.1-0.2,0-0.2c0-0.1,0.1-0.1,0.2-0.2
		c0.1-0.1,0.2-0.1,0.2-0.2c0.5-0.2,1.2-0.3,2.1-0.4c2,0.1,3.1,0.3,3.1,0.8c0,0.4-0.1,0.7-0.5,1c-0.7,0-1.4,0.1-1.9,0.1
		c-0.5,1.2-0.8,2.7-1,4.4c0,1.6,0.1,2.5,0.1,2.7c0,0.4-0.1,1.4-0.4,3.1c-0.1,0.6-0.2,1.7-0.3,3c-0.1,2-0.1,3.6,0,4.6
		c0.2,0.3,0.3,0.6,0.4,0.8c1.3,0,2.2,0.2,2.7,0.4c0.1,0,0.1,0.1,0.2,0.2c0.1,0.1,0.1,0.1,0.2,0.2c0,0.1,0,0.1,0,0.2
		C103.8,32.2,103.6,32.3,103.4,32.4z"/>
	<path fill="#492727" d="M119.7,13.2c0.1-0.4,0.6-0.5,1.2-0.4c0.4,0.2,0.5,1,0.5,2.5c0,0-0.1,0.6-0.2,1.9c0,0.4-0.3,0.9-0.7,1.3
		c-0.1,0-0.3-0.1-0.6-0.4c-0.2-0.2-0.4-0.5-0.3-0.8c0-1-0.1-1.9,0-2.6h-1c-4.5,0-7.1,0.2-7.9,0.5c-1,1.6-1.5,4.1-1.6,7.5
		c3.1-0.1,5.1-0.1,6.1-0.1c0-0.4,0.1-0.9,0.1-1.6c0-0.4,0.3-0.9,0.7-1.3c0.1,0,0.3,0,0.6,0.1c0.2,0.1,0.4,0.4,0.4,1
		c0.1,2.6,0,4.2-0.1,5c-0.1,0.5-0.5,0.6-1.2,0.2c-0.3-0.5-0.5-1.1-0.6-1.7h-0.2c-1.3,0.1-2.4,0.2-3.3,0.2s-1.7,0.2-2.4,0.3
		c0.1,2.2,0.2,3.9,0.4,5.3c2.5,0,5.2-0.1,8.2-0.2c1.1-0.1,2.1-0.2,2.8-0.5c0-0.3,0.1-1.1,0.2-2.4c0.2-0.6,0.4-1,0.7-1.2
		c0.3,0,0.5,0.1,0.7,0.2c0.1,0.1,0.3,0.4,0.5,0.7c0.1,2.4,0.1,4-0.1,4.9c-0.2,0.4-0.6,0.6-1.4,0.4c-0.1-0.3-0.3-0.6-0.4-1
		c-0.4,0.2-1,0.4-1.7,0.6c-1.3,0.3-3.3,0.6-6,0.8c-3.8,0.1-6.3,0.1-7.6,0c-0.4-0.3-0.6-0.7-0.6-1.2c0-0.5,0.8-0.8,2.3-0.9
		c-0.3-2.5-0.5-4.2-0.4-4.8c-0.7-0.3-1.2-0.5-1.2-0.7c0-0.5,0.2-1,0.6-1.4l0.6-0.6c0.1-0.3,0.3-1.3,0.6-3.3c0.3-1.4,0.6-2.5,0.9-3.4
		c0-0.2,0.1-0.5,0.2-0.9c-1.5,0.1-2.4,0.1-2.7,0c-0.6-0.2-0.7-0.5-0.4-1c0.2-0.6,1.1-1,2.7-1c2.3-0.2,5-0.3,8-0.4
		C116.8,13,118.1,13.1,119.7,13.2z"/>
	<path fill="#492727" d="M143.4,32.1c-1.2,0.3-2.2,0.5-2.9,0.5c-0.7,0.1-1.7,0.1-3,0c-0.4-0.2-0.6-0.6-0.5-1c0-0.4,0.6-0.6,1.8-0.7
		c-0.1-0.9-0.1-1.8,0-2.8c0-1.5,0-2.7,0-3.6c-5.8,0.6-9.1,0.8-9.8,0.8c0.1,1.4,0.1,2.7,0.2,3.8c0,0.2,0.1,0.6,0.4,1.2
		c0.2,0.4,0.3,0.7,0.4,0.9c1,0.1,1.6,0.3,1.8,0.5c0,0,0,0.1,0,0.1c0,0,0,0.1,0,0.1c0,0,0,0.1,0,0.2c0,0.1-0.1,0.1-0.2,0.2
		c-1.2,0.3-2.2,0.5-2.9,0.5c-0.7,0.1-1.7,0.1-3,0c-0.4-0.2-0.6-0.5-0.5-1c0-0.4,0.8-0.7,2.4-0.8c-0.1-0.4-0.2-0.9-0.2-1.6
		c-0.1-0.9-0.2-2.3-0.3-4.1c-1.5-0.1-2.4-0.3-2.8-0.6c0-0.5,0.2-0.8,0.6-0.9c0.9-0.3,1.4-0.4,1.4-0.4c0.2,0,0.3,0,0.4,0s0.2,0,0.2,0
		c0-2.2-0.1-4.6-0.1-7.2c0-0.7,0-1.3,0.1-1.9c-0.6-0.1-1.3-0.2-2.2-0.4c-0.3-0.1-0.4-0.2-0.5-0.3c-0.1-0.1-0.1-0.2-0.1-0.2
		c0-0.1,0.1-0.1,0.2-0.2s0.2-0.1,0.2-0.2c0.6-0.3,1.7-0.5,3.3-0.5c2.1,0.1,3.2,0.3,3.3,0.8c0,0.4-0.1,0.8-0.5,1
		c-0.6,0-1.1,0.1-1.5,0.1c0,0,0,0.1,0,0.1c-0.1,0.3-0.2,0.6-0.2,0.7c-0.1,0.8-0.1,1.6-0.1,2.5c0,0.8,0,1.7,0,2.6
		c0,0.9,0.1,2,0.1,3.1c1,0,1.8,0,2.3,0c0.6,0,2-0.1,4.2-0.3s3.4-0.3,3.6-0.4c0.1-0.5,0.2-2.1,0.3-4.9c0-0.9,0.1-1.8,0.3-2.8
		c0-0.2,0.1-0.3,0.1-0.5c-0.6,0-1.2,0-1.8-0.1c-0.8-0.4-1-0.8-0.6-1.1c0.4-0.4,1.7-0.6,3.8-0.7c1.7,0,2.7,0.1,2.9,0.5
		c0,0.1,0,0.1,0,0.2c0,0,0,0.1,0,0.1s0,0.1,0,0.2c0,0.1-0.1,0.2-0.2,0.3c-0.7,0.2-1.4,0.3-2,0.4c0,0.6-0.1,1.3-0.2,2.1
		c-0.1,0.2-0.2,0.6-0.3,1c-0.1,1.4-0.3,2.6-0.4,3.6c-0.1,3.3-0.1,5.6-0.1,6.9c0.1,0.7,0.3,1.2,0.3,1.5s0.1,0.6,0.1,0.9
		c0,0.1,0,0.3-0.1,0.5c1.1,0,1.9,0.2,2.4,0.4c0.1,0,0.1,0.1,0.2,0.2c0.1,0.1,0.1,0.1,0.2,0.2c0,0.1,0,0.2,0,0.2S143.6,32,143.4,32.1
		z"/>
	<path fill="#492727" d="M160.3,13.2c0.1-0.4,0.6-0.5,1.2-0.4c0.4,0.2,0.5,1,0.5,2.5c0,0-0.1,0.6-0.2,1.9c0,0.4-0.3,0.9-0.7,1.3
		c-0.1,0-0.3-0.1-0.6-0.4c-0.2-0.2-0.4-0.5-0.3-0.8c0-1-0.1-1.9,0-2.6h-1c-4.5,0-7.1,0.2-7.9,0.5c-1,1.6-1.5,4.1-1.6,7.5
		c3.1-0.1,5.1-0.1,6.1-0.1c0-0.4,0.1-0.9,0.1-1.6c0-0.4,0.3-0.9,0.7-1.3c0.1,0,0.3,0,0.6,0.1c0.2,0.1,0.4,0.4,0.4,1
		c0.1,2.6,0,4.2-0.1,5c-0.1,0.5-0.5,0.6-1.2,0.2c-0.3-0.5-0.5-1.1-0.6-1.7h-0.2c-1.3,0.1-2.4,0.2-3.3,0.2s-1.7,0.2-2.4,0.3
		c0.1,2.2,0.2,3.9,0.4,5.3c2.5,0,5.2-0.1,8.2-0.2c1.1-0.1,2.1-0.2,2.8-0.5c0-0.3,0.1-1.1,0.2-2.4c0.2-0.6,0.4-1,0.7-1.2
		c0.3,0,0.5,0.1,0.7,0.2c0.1,0.1,0.3,0.4,0.5,0.7c0.1,2.4,0.1,4-0.1,4.9c-0.2,0.4-0.6,0.6-1.4,0.4c-0.1-0.3-0.3-0.6-0.4-1
		c-0.4,0.2-1,0.4-1.7,0.6c-1.3,0.3-3.3,0.6-6,0.8c-3.8,0.1-6.3,0.1-7.6,0c-0.4-0.3-0.6-0.7-0.6-1.2c0-0.5,0.8-0.8,2.3-0.9
		c-0.3-2.5-0.5-4.2-0.4-4.8c-0.7-0.3-1.2-0.5-1.2-0.7c0-0.5,0.2-1,0.6-1.4l0.6-0.6c0.1-0.3,0.3-1.3,0.6-3.3c0.3-1.4,0.6-2.5,0.9-3.4
		c0-0.2,0.1-0.5,0.2-0.9c-1.5,0.1-2.4,0.1-2.7,0c-0.6-0.2-0.7-0.5-0.4-1c0.2-0.6,1.1-1,2.7-1c2.3-0.2,5-0.3,8-0.4
		C157.5,13,158.7,13.1,160.3,13.2z"/>
	<path fill="#492727" d="M176.1,12c0.2-0.4,0.7-0.6,1.5-0.4c0.6,0.2,0.6,1,0.2,2.4c-0.1,0.8-0.2,1.8-0.3,2.9c0,0.6-0.2,1.1-0.5,1.3
		c-0.5,0-0.8-0.1-1-0.4c-0.1-0.3-0.2-0.7-0.3-1.3c0-0.5,0-0.8,0-0.9c0-0.2-0.1-0.3-0.1-0.5c-0.1-0.3-0.4-0.6-0.9-0.8
		c-0.9-0.4-1.6-0.6-2.1-0.6c-1.8,0-3,0.6-3.6,1.6c0.2,0.4,0.1,0.9-0.3,1.5c-0.6,0.9,0.2,1.9,2.3,3c3.1,1.1,5.2,2.3,6.4,3.5
		c1.1,1.5,1.3,3.2,0.7,5.1c-0.6,1.5-1.8,2.7-3.5,3.6c-1.3,0.7-2.8,1-4.7,1c-1.2,0-2.3-0.4-3.4-1.2c-0.7-0.7-1.2-1.5-1.4-2.3
		c-0.2-0.8-0.1-1.5,0.3-2.2c0.4-0.5,0.9-0.8,1.5-0.9c1.5,0,2.1,0.7,1.9,2.1c-0.3,0.9-0.8,1.1-1.6,0.7c-0.1,0.8,0.3,1.5,1.4,2
		c1.3,0.5,2.6,0.4,4-0.2c0.1-0.4,0.8-0.9,2-1.3c0.9-0.3,1.4-1.4,1.4-3.4c0-0.9-0.4-1.6-1.1-2.2c-0.8-0.7-1.9-1.3-3.1-1.7
		c-1.6-0.4-2.5-0.9-3-1.2c-1.5-0.9-2.3-2.1-2.6-3.7c-0.1-1.3,0.3-2.4,1.2-3.5c1-1.1,2.3-1.6,3.8-1.7c1.5-0.1,2.9,0.2,4.2,1
		c0.1,0.4,0.3,0.4,0.5,0C176,12.8,176,12.4,176.1,12z"/>
	<path fill="#492727" d="M193.4,27.7c0.1-0.4,0.6-0.5,1.2-0.4c0.3,0.8,0.5,1.6,0.5,2.5c0,0-0.1,0.6-0.2,1.9c0,0.4-0.3,0.9-0.7,1.3
		c-0.1,0-0.4-0.1-0.6-0.4c-0.2-0.2-0.3-0.3-0.3-0.5c0,0-0.1,0.1-0.2,0.1c-0.3,0.1-0.5,0.2-0.7,0.2c-0.1,0-0.5-0.1-1-0.2
		c-0.6-0.2-1-0.2-1.1-0.2c-0.1,0-0.9,0.1-2.3,0.4c-1.4,0.3-2.2,0.4-2.3,0.4c-0.1,0-0.3,0-0.6-0.1c-0.3-0.1-0.5-0.1-0.6-0.1
		s-0.6,0.1-1.3,0.4s-1.2,0.4-1.3,0.4c-0.2,0-0.4-0.2-0.7-0.5c-0.3-0.4-0.5-0.6-0.5-0.7c0-0.2,0.7-1.4,2.2-3.8c1.5-2.4,2.8-4.4,4-6.2
		c0.7-1,2.7-3.3,6.2-7c0-0.3-0.1-0.4-0.4-0.5c-1.6-0.3-3.3-0.4-4.9-0.4c-0.1,0-0.4,0-0.9,0.1c-0.4,0.1-0.9,0.2-1.4,0.4l-1,0.5
		c-0.2-0.1-0.4-0.2-0.6-0.3c0,1.3,0,2.2-0.1,2.8c-0.2,0.4-0.6,0.6-1.4,0.4c-0.4-0.9-0.6-2-0.5-3.3c0-0.6,0.1-1.2,0.2-1.7
		c0.2-0.6,0.4-1,0.7-1.2c0.3,0,0.5,0.1,0.7,0.2s0.3,0.4,0.5,0.7v0.2c0.2-0.2,0.4-0.3,0.5-0.3l8.9,0.2c0.5,0,0.9,0.1,1.4,0.1
		c0.6,0.1,1,0.2,1.2,0.4c-0.1,0.4-0.5,1.1-1.2,1.9c-0.8,1-1.3,1.5-1.3,1.6c0,0.2-0.1,0.6-0.3,1c-0.3,0.1-0.6,0.4-1.1,0.7
		c-2.2,2.5-4.1,5.4-5.8,8.7c0,0.1-0.6,0.9-1.7,2.6c0.2,0.3,0.8,0.4,1.9,0.3c0.1,0,1.2,0,3.3,0h3.3c0.2,0,0.4,0,0.5,0.1
		C193.2,29.1,193.3,28.2,193.4,27.7z"/>
	<path fill="#492727" d="M212.7,13.2c0.1-0.4,0.6-0.5,1.2-0.4c0.4,0.2,0.5,1,0.5,2.5c0,0-0.1,0.6-0.2,1.9c0,0.4-0.3,0.9-0.7,1.3
		c-0.1,0-0.3-0.1-0.6-0.4c-0.2-0.2-0.4-0.5-0.3-0.8c0-1-0.1-1.9,0-2.6h-1c-4.5,0-7.1,0.2-7.9,0.5c-1,1.6-1.5,4.1-1.6,7.5
		c3.1-0.1,5.1-0.1,6.1-0.1c0-0.4,0.1-0.9,0.1-1.6c0-0.4,0.3-0.9,0.7-1.3c0.1,0,0.3,0,0.6,0.1c0.2,0.1,0.4,0.4,0.4,1
		c0.1,2.6,0,4.2-0.1,5c-0.1,0.5-0.5,0.6-1.2,0.2c-0.3-0.5-0.5-1.1-0.6-1.7h-0.2c-1.3,0.1-2.4,0.2-3.3,0.2s-1.7,0.2-2.4,0.3
		c0.1,2.2,0.2,3.9,0.4,5.3c2.5,0,5.2-0.1,8.2-0.2c1.1-0.1,2.1-0.2,2.8-0.5c0-0.3,0.1-1.1,0.2-2.4c0.2-0.6,0.4-1,0.7-1.2
		c0.3,0,0.5,0.1,0.7,0.2c0.1,0.1,0.3,0.4,0.5,0.7c0.1,2.4,0.1,4-0.1,4.9c-0.2,0.4-0.6,0.6-1.4,0.4c-0.1-0.3-0.3-0.6-0.4-1
		c-0.4,0.2-1,0.4-1.7,0.6c-1.3,0.3-3.3,0.6-6,0.8c-3.8,0.1-6.3,0.1-7.6,0c-0.4-0.3-0.6-0.7-0.6-1.2c0-0.5,0.8-0.8,2.3-0.9
		c-0.3-2.5-0.5-4.2-0.4-4.8c-0.7-0.3-1.2-0.5-1.2-0.7c0-0.5,0.2-1,0.6-1.4l0.6-0.6c0.1-0.3,0.3-1.3,0.6-3.3c0.3-1.4,0.6-2.5,0.9-3.4
		c0-0.2,0.1-0.5,0.2-0.9c-1.5,0.1-2.4,0.1-2.7,0c-0.6-0.2-0.7-0.5-0.4-1c0.2-0.6,1.1-1,2.7-1c2.3-0.2,5-0.3,8-0.4
		C209.8,13,211.1,13.1,212.7,13.2z"/>
	<path fill="#492727" d="M229.4,31.8c-1.1,0.4-2.2,0.5-3.4,0.5c-0.9,0-1.6,0.1-2.3,0.2s-1,0.2-1.2,0.2c-0.3,0-0.7-0.4-1-1.1
		c0-0.7,0.8-1.1,2.5-1.1c-0.2-1.1-0.2-2.7-0.2-4.9c0.1-2.3,0.2-5.5,0.3-9.7c-0.1-0.1-0.2-0.4-0.3-0.8c-2.2-0.2-4-0.4-5.3-0.5
		c0,1.8,0,2.9-0.1,3.5c-0.1,0.4-0.6,0.5-1.3,0.4c-0.4-0.8-0.6-1.6-0.6-2.5c0.1-2.4,0.4-3.6,1-3.6c0.3-0.1,0.6,0.1,0.9,0.5
		c2,0.1,4,0.2,6,0.3c0.1,0,0.2-0.1,0.4-0.2c0.1-0.2,0.4-0.3,0.6-0.3c0.4,0,0.8,0.2,1.3,0.5c0.6,0.2,1.3,0.3,2.1,0.3
		c1,0,1.9,0,2.6,0.1c0-0.3,0-0.6,0.1-0.8c0.5-0.1,0.8-0.1,1-0.1c0.2,0.1,0.4,0.4,0.6,0.8l0.1,1.4c0.1,0.7,0,1.5-0.2,2.3
		c-0.2,0.8-0.5,1.2-0.7,1.3c-0.4,0-0.6-0.1-0.8-0.4c-0.1-0.2-0.1-1.3-0.2-3.3c-0.4,0.3-1.2,0.4-2.1,0.4c-1.2,0-2.1,0.1-2.8,0.1
		c0,0.3-0.1,0.7-0.4,1.2c-0.2,0.5-0.3,0.8-0.3,1.1c0.1,2.6,0,4.4-0.2,5.4c-0.1,0.4-0.1,0.8-0.1,1.2c0,0.4,0,0.9,0.1,1.6
		c0.1,0.7,0.1,1.2,0.1,1.5c0,0.1-0.1,0.3-0.2,0.5c-0.1,0.2-0.2,0.4-0.2,0.5c0,0.1,0.1,0.3,0.3,0.5s0.3,0.5,0.3,0.6s0.1,0.4,0.2,0.7
		c0,0.2,0.1,0.4,0.1,0.6c1.7,0.1,2.6,0.2,2.9,0.5c0,0.1,0,0.2,0.1,0.3C229.6,31.5,229.6,31.6,229.4,31.8z"/>
	<path fill="#492727" d="M252.4,32c-0.9,0.1-1.7,0.2-2.4,0.2c-0.7,0-1.7,0-3,0c-0.3-0.3-0.4-0.7-0.4-1.1c0-0.3,0.4-0.5,1.2-0.5
		c-0.2-0.4-0.4-0.9-0.6-1.5c-0.8-2-1.5-3.1-2-3.1c-0.3,0-1.1,0.2-2.4,0.6c-1.3,0.4-2.5,0.6-3.6,0.7c0.1,1.1,0.3,2.3,0.7,3.5
		c0.8,0.1,1.4,0.3,1.8,0.5c0.3,0.3,0.4,0.4,0.4,0.6s-0.2,0.2-0.5,0.4c-1.3,0.1-2.3,0.1-3,0.2c-0.6,0-1.6,0-2.9,0
		c-0.4-0.2-0.6-0.5-0.5-1c0-0.4,0.9-0.7,2.5-0.8c-0.1-0.2-0.1-0.4-0.1-0.6l-0.3-2.6c-0.5-0.1-0.8-0.3-0.8-0.6
		c-0.1-0.3,0.2-0.6,0.9-0.8c0-1.2,0-3.1,0.2-5.6c0.1-1.6,0.1-2.9,0.1-3.9c0-1,0-1.5-0.2-1.7c-1.5,0-2.2-0.2-2.1-0.8
		c-0.3-0.5,0.4-0.8,2.2-1c1.1-0.1,2.5-0.1,4.1,0.1c2.1,0.1,3.9,0.6,5.6,1.5c2.6,1.4,3.8,2.9,3.8,4.5c0,1.2-1.2,3.1-3.6,5.7
		c0.3,0.4,0.8,1.2,1.4,2.4c0.3,0.6,0.6,1.3,0.8,2c0.1,0.5,0.3,0.8,0.3,1.1c1.2,0.1,2,0.2,2.6,0.5c0.1,0.1,0.1,0.1,0.2,0.2
		c0.1,0.1,0.1,0.2,0.2,0.3s0,0.2-0.1,0.3C252.8,31.8,252.7,31.9,252.4,32z M248.3,18.9c0-1-0.8-1.9-2.4-2.9
		c-1.8-0.8-3.7-1.3-5.8-1.4c-0.3,0-0.5,0.4-0.6,1.2c-0.2,0.7-0.3,1.4-0.3,2c0,0.1,0,0.2,0.1,0.4c0.1,0.1,0.1,0.4,0.1,0.6l-0.1,3
		c0,1.2-0.1,2.2-0.2,2.9c0,0,0,0.1,0,0.3c-0.1,0.1-0.1,0.3-0.1,0.4c0,0.1,0,0.2,0.1,0.3l1.7-0.4c1.8-0.6,3.2-1.2,4.2-1.8
		C247.2,22.1,248.3,20.5,248.3,18.9z"/>
	<path fill="#492727" d="M274.8,23.5c0,1.5-0.5,3-1.5,4.7c-1,1.6-2.2,2.6-3.4,2.9c0,0.1-0.1,0.4-0.2,0.6c-0.8,0.3-1.5,0.6-2.3,0.9
		c-0.8,0.3-1.7,0.5-2.5,0.5c-0.9,0.1-1.9-0.1-3.1-0.4c-2-0.9-3.6-2-4.8-3.5c-1.8-2.2-2.6-4.1-2.6-5.5c0-2.4,0.7-4.6,2-6.6
		c0.5-0.9,1.5-1.9,3-3c1.7-1.3,3-2,4-2c0.3,0,0.6,0.1,0.9,0.3c1.5,0,3.1,0.5,4.8,1.4c1.9,1,3.4,2.4,4.6,4.1c0.3,0.4,0.5,1.2,0.9,2.6
		C274.6,21.9,274.8,22.8,274.8,23.5z M272.9,22.8c0-1.1-0.3-2.2-0.8-3.3c-0.6-1.4-1.6-2.5-2.8-3.3c-0.5-0.3-1.1-0.6-1.9-0.9
		c-0.5-0.2-0.9-0.3-1.3-0.3s-0.8,0.3-1.1,0.8l-0.6-0.4c-0.3-0.3-0.6-0.5-1-0.7c-1,0.8-1.7,1.2-2.1,1.2c-0.1,0-0.3,0-0.5,0
		c-0.2,0-0.4,0-0.5,0c-0.3,0-0.7,0.2-1.3,0.6c-0.7,0.5-1.2,1.2-1.6,2c-0.7,1.4-1.1,2.8-1.1,4.3c0,0.3,0.2,1,0.6,2.2
		c0.7,1.8,1.9,3.3,3.6,4.4c1.6,1.1,3.2,1.6,4.7,1.6c1,0,2.3-0.4,3.8-1.3c1.6-0.9,2.7-1.9,3.4-3c0.1-0.2,0.2-0.5,0.2-1
		c0-0.6,0-0.9,0-0.9c0-0.2,0.1-0.5,0.2-1C272.9,23.2,272.9,22.9,272.9,22.8z"/>
	<path fill="#492727" d="M282.7,13c-0.7,0.2-1.2,0.3-1.8,0.4c0.2,0.7,0.3,1.9,0.2,3.8c-0.1,1.3-0.4,3.6-0.8,6.9
		c-0.1,0.7-0.2,1.5-0.4,2.5c-0.1,1.2-0.1,2.2,0.3,3c0.1,0.3,0.1,0.6,0.2,0.8c0.1,0.1,0.6,0.2,1.3,0.2c0.1,0,0.6,0,1.5-0.1
		c0.9-0.1,1.5-0.1,1.8-0.1c0.6,0,1.6,0.1,2.9,0.2c1.3,0.1,1.9,0.1,2,0.1c-0.1,0,0.2,0,0.9-0.1c0-1.5,0-2.6,0.2-3.2
		c0.1-0.4,0.6-0.5,1.2-0.4c0.3,0.8,0.5,1.6,0.5,2.5c0,0-0.1,0.6-0.2,1.9c0,0.4-0.3,0.9-0.7,1.3c-0.1,0-0.4-0.1-0.6-0.4
		c-0.1-0.1-0.2-0.3-0.3-0.4c-0.9,0.2-2,0.3-3.2,0.3c-1.9,0.1-3.4,0.1-4.7,0.1c-2.3,0.1-3.5,0.2-3.7,0.2h-0.1c-0.1,0-0.5,0-1.1,0
		c-0.6,0-0.9,0-1.1,0c-0.3,0-0.6-0.1-0.9-0.4v-0.6c0-0.6,0.6-1,1.8-1.1c-0.1-0.7-0.1-1.5-0.1-2.2c0-0.2,0.2-1.7,0.6-4.6
		s0.6-4.5,0.6-4.7c0.1-1.7,0.1-3.1,0-4.1c-0.1-0.7-0.1-1.1-0.2-1.4c-0.5,0-1.1,0-1.7-0.1c-0.4-0.2-0.6-0.5-0.5-1
		c0-0.5,1.1-0.7,3.1-0.8c1.8,0.1,2.9,0.3,3.1,0.6c0,0,0,0.1,0,0.1c0,0,0,0.1,0,0.1c0,0,0,0.1,0,0.2S282.7,12.9,282.7,13z"/>
</g>
<path fill="#492727" d="M115.3,4.4c-0.1,0.7-0.3,1.7-0.5,2.9c-0.3,1.2-0.5,2.2-0.7,3.1h1.5c0.4-0.9,0.8-1.9,1.2-3
	c0.4-1.1,0.7-2,0.9-2.8l-0.2-0.3H115.3z"/>
<path fill="#492727" d="M261.8,4.7c-0.1,0.7-0.3,1.6-0.5,2.8c-0.2,1.2-0.5,2.1-0.7,2.9h1.4c0.4-0.9,0.8-1.8,1.2-2.8
	c0.4-1,0.7-1.9,0.9-2.6l-0.2-0.3H261.8z"/>
<path fill="#492727" d="M265.2,4.7c-0.1,0.7-0.3,1.6-0.5,2.8c-0.2,1.2-0.5,2.1-0.7,2.9h1.4c0.4-0.9,0.8-1.8,1.2-2.8
	c0.4-1,0.7-1.9,0.9-2.6l-0.2-0.3H265.2z"/>
<path fill="#492727" d="M156.9,4.4c-0.1,0.7-0.3,1.7-0.5,2.9c-0.3,1.2-0.5,2.2-0.7,3.1h1.5c0.4-0.9,0.8-1.9,1.2-3
	c0.4-1.1,0.7-2,0.9-2.8l-0.2-0.3H156.9z"/>
<g>
	<path fill-rule="evenodd" clip-rule="evenodd" fill="#492727" d="M29.6,2.2c0.5-0.1,0.9-1.4-0.1-1.1C28.9,1.2,29,2.2,29.6,2.2z"/>
	<path fill-rule="evenodd" clip-rule="evenodd" fill="#492727" d="M10.1,2.3c0.6-0.8-0.5-1.3-0.6-0.5C9.5,2.1,9.7,2.5,10.1,2.3z"/>
	<path fill-rule="evenodd" clip-rule="evenodd" fill="#492727" d="M3.2,2.7c0,0.4,1.1,1.1,1.3,0.2C4.5,2.4,3.2,1.9,3.2,2.7z"/>
	<path fill-rule="evenodd" clip-rule="evenodd" fill="#492727" d="M37.7,3.4c0.3,0.4,0.9,0.1,0.9-0.5C38.2,2.3,37.5,2.6,37.7,3.4z"
		/>
	<path fill-rule="evenodd" clip-rule="evenodd" fill="#492727" d="M32.9,3.8c0.2-0.1,0.3-0.3,0.3-0.8C32.4,2.2,31.9,4.1,32.9,3.8z"
		/>
	<path fill-rule="evenodd" clip-rule="evenodd" fill="#492727" d="M36.9,6.3C36.8,6,36.5,6,36.2,6c-0.4,0.1-0.7,0.4-0.6,0.6
		C35.6,7.4,37.1,7.2,36.9,6.3z"/>
	<path fill-rule="evenodd" clip-rule="evenodd" fill="#492727" d="M40.2,6.4c-0.8-0.7-1.3,0.9-0.8,1.5C40.2,8,40.2,7,40.2,6.4z"/>
	<path fill-rule="evenodd" clip-rule="evenodd" fill="#492727" d="M7,8.7c0.1-0.2,0.1-0.5,0-0.6C6.7,7.8,6,7.9,6.2,8.6
		C6.4,8.8,6.8,8.9,7,8.7z"/>
	<path fill-rule="evenodd" clip-rule="evenodd" fill="#492727" d="M3,8.7C2.9,9.4,3.3,10,3.8,9.6C4.1,9,3.4,8.1,3,8.7z"/>
	<path fill-rule="evenodd" clip-rule="evenodd" fill="#492727" d="M37.4,12.7c0.5,0.1,0.8-0.5,0.8-1.1
		C37.4,10.7,36.6,12.5,37.4,12.7z"/>
	<path fill-rule="evenodd" clip-rule="evenodd" fill="#492727" d="M3.3,12.6c0.1,0,0.2,0,0.2,0.1c0.4-0.1,0.7-0.5,0.6-1.1
		C3.5,11,2.9,12.1,3.3,12.6z"/>
	<path fill-rule="evenodd" clip-rule="evenodd" fill="#492727" d="M2,13.5c0.3-0.1,0.2-0.6,0.2-1C1.5,11.6,0.8,13.6,2,13.5z"/>
	<path fill-rule="evenodd" clip-rule="evenodd" fill="#492727" d="M5.4,12.7c-1.1-0.7-1.1,1.5-0.2,1.2C5.5,13.8,5.6,13.1,5.4,12.7z"
		/>
	<path fill-rule="evenodd" clip-rule="evenodd" fill="#492727" d="M5.3,16.5c-0.6-0.7-1.4,0.5-0.9,1.2C5,17.9,5.3,17.2,5.3,16.5z"/>
	<path fill-rule="evenodd" clip-rule="evenodd" fill="#492727" d="M4.4,20.2C5,20.1,4.6,18.8,4,19.5C4,19.9,4.1,20.2,4.4,20.2z"/>
	<path fill-rule="evenodd" clip-rule="evenodd" fill="#492727" d="M1.9,20.1c-0.5-0.2-1.3,0.8-0.8,1.4C2.1,21.9,2.6,20.3,1.9,20.1z"
		/>
	<path fill-rule="evenodd" clip-rule="evenodd" fill="#492727" d="M40.1,21.9c-0.1-0.6-1.1-0.2-0.8,0.5
		C39.8,22.6,40.2,22.2,40.1,21.9z"/>
	<path fill-rule="evenodd" clip-rule="evenodd" fill="#492727" d="M5.6,23.2c-0.5-0.6-1.5,0.2-1.2,1C5.1,24.6,5.8,24,5.6,23.2z"/>
	<path fill-rule="evenodd" clip-rule="evenodd" fill="#492727" d="M40.4,26.8c0.9,0,1.1-2-0.1-1.6C39.8,25.4,39.7,26.8,40.4,26.8z"
		/>
	<path fill-rule="evenodd" clip-rule="evenodd" fill="#492727" d="M3.7,27c1-0.2,0-2.6-0.7-1.3C2.9,26.4,3,27.1,3.7,27z"/>
	<path fill-rule="evenodd" clip-rule="evenodd" fill="#492727" d="M37.8,28c-0.5,0.2-0.3,1.1,0.2,1.1C39,29.2,38.9,27.5,37.8,28z"/>
	<path fill-rule="evenodd" clip-rule="evenodd" fill="#492727" d="M4.4,30.1c-0.7,0.3-0.2,1.8,0.5,1.6C5.5,31.5,5.2,29.8,4.4,30.1z"
		/>
	<path fill-rule="evenodd" clip-rule="evenodd" fill="#492727" d="M38.2,32.9c0.7-0.2,0.6-2-0.5-1.4C37.4,32,37.4,33.1,38.2,32.9z"
		/>
	<path fill-rule="evenodd" clip-rule="evenodd" fill="#492727" d="M4.5,35.2c0.3,0,0.5-0.2,0.4-0.7C4.2,33.8,3.7,35.2,4.5,35.2z"/>
	<path fill-rule="evenodd" clip-rule="evenodd" fill="#492727" d="M2.7,36.1c-0.2-0.9-1.9,0-1.2,0.9C2.2,37.2,2.8,36.6,2.7,36.1z"/>
	<path fill-rule="evenodd" clip-rule="evenodd" fill="#492727" d="M35.4,16.1c0.4-0.3,0.4-1.1,0.3-1.8c-0.3-1.5-1.2-3.2-2.2-3.9
		c0.6-2-1.1-3.1-2.6-3.6c-0.4-1.8-2.2-2.2-3.8-2.8c0-0.3,0-0.6-0.2-0.9c-0.4-0.8-2-1.4-3.1-1.7c-3-0.8-7-0.3-8.8,1.4
		c-0.3,0.2-0.4,0.6-0.7,0.8c-0.5,0.2-1.2,0.2-1.6,0.3c-1.1,0.3-2.2,1-2.3,2.2c-1.3,1-3.2,2.3-2.6,4.6c-1.3,0.8-2.1,3.5-1.2,5.3
		c-0.9,1.5-0.7,4.3,0.2,5.6c-0.6,1.9-0.2,3.8,1.1,4.6c0.1,2.2,0.9,3.8,2.4,4.7c0.4,0.6,0.5,1.2,0.9,1.7c0.5,0.6,1.1,0.9,1.6,1.5
		c0.7,0.7,1.1,1.8,2.2,2.5c2.1,1.3,5.6,1.6,8.7,1.3c2.6-0.2,4.9-1.4,5.9-3.2c1-0.3,1.7-0.9,2.2-1.5c0.6-0.7,1.3-1.2,1.5-2.2
		c0-0.3-0.1-0.4-0.1-0.6c0.5-0.1,0.7-0.8,0.9-1.2c0.2-0.3,0.5-0.5,0.7-0.8c0.5-0.8,1-2.4,0.3-3.3c0.5-1.1,0.9-2.8,0.1-3.8
		C36.2,20.3,36.5,17.5,35.4,16.1z"/>
	<path fill-rule="evenodd" clip-rule="evenodd" fill="#FFC440" d="M15.4,4.1c0.7-0.9,2.3-1.7,4.2-1.8c1.3-0.1,3,0,4.2,0.2
		c0.7,0.2,2.7,1,2.4,1.9c-0.1,0.4-1.2,0.6-1.7,0.7C21.4,5.6,17.6,5.2,15.4,4.1z M17.3,4.2c0.3,0.4,1.4,0.7,1.9,0.4
		C18.7,4.3,17.7,3.9,17.3,4.2z"/>
	<path fill-rule="evenodd" clip-rule="evenodd" fill="#FFFFFF" d="M27.2,4.7c1.1,0.5,2.3,0.9,2.8,2c-0.4,0.5-1.2,0.7-1.9,0.9
		c-3.4,1-8.8,0.7-12.7,0.2c-0.9-0.1-4.1-0.4-4.2-1.3c-0.1-0.3,0.4-0.9,0.6-1.1c0.4-0.3,2-0.8,2.4-0.8c0.4,0.1,0.7,0.5,1.1,0.6
		c1.2,0.5,3.4,0.8,5.3,0.9c2.2,0.1,4.5,0.1,6-0.7C26.8,5.4,27.1,5.2,27.2,4.7z"/>
	<path fill-rule="evenodd" clip-rule="evenodd" fill="#FFFFFF" d="M10.5,7.2c2.2,1.3,5.8,1.6,9.3,1.9c4.1,0.4,8.7-0.2,11.1-1.7
		c0.8,0.5,2.2,1.1,2,2.3c-0.1,0.6-1.4,1.3-2.1,1.6c-2.5,1.2-6.2,1.4-9.8,1.4c-3.8,0-6.9-0.3-10.1-1.1c-1-0.2-2.2-0.6-2.2-1.5
		c0-0.5,0.5-1.4,0.8-1.9C9.7,7.8,10.2,7.6,10.5,7.2z M9.6,10c0.1-0.2,0.1-0.2,0.1-0.4C9.1,9.3,8.9,10.1,9.6,10z M25.7,11.9
		c2.2-0.2,4.5-0.4,5.6-1.7c0-0.1,0-0.2-0.1-0.2C29.7,11,27.6,11.3,25.7,11.9z M9.6,10.3c-0.1,0-0.1,0-0.1,0.1c0,0.1,0,0.1,0,0.2
		c1,0.8,2.7,0.9,4.3,1.1c1.8,0.2,4,0.4,5.6,0.3C16.3,11.1,12.2,11.5,9.6,10.3z"/>
	<path fill-rule="evenodd" clip-rule="evenodd" fill="#FFC440" d="M32.9,11c0.7,0.4,1.4,1.9,1.6,2.8c0.1,0.6,0.2,1.6-0.1,2
		c-0.3,0.5-1.9,1.1-2.7,1.1c-0.7,0-1.5-0.3-2.2-0.2c-0.6,0.1-1.1,0.7-1.6,0.8c-0.7,0.2-1.8,0.1-2.8,0.2c-4.9,0.2-9.5,0.2-13.9-0.6
		c-1.4-0.3-3.7-0.9-4-1.9c-0.4-1.3,0.6-3,1-3.7c1.5,0.8,4.2,1.5,6.9,1.8c2.1,0.2,4.4,0.4,6.4,0.3c2.2-0.1,4.3-0.3,6.3-0.6
		c2-0.3,3.7-1,5-1.8C32.8,11.1,32.8,11,32.9,11z M32.6,11.8c-0.2,0.8,0.6,1.6,0.9,2.3c0.2,0.5-0.1,1.5,0.2,1.8
		C34.2,14.4,33.8,12.2,32.6,11.8z M8,13.1c-0.2,0.2-0.1,0.8,0.4,0.6C8.6,13.5,8.5,13,8,13.1z M9.8,14.9c0.6,0,0.6-1.4-0.2-1.1
		C9.1,14,9.4,14.9,9.8,14.9z M12.7,16.5c-1.9-0.2-3.4-0.6-4.6-1.3c-0.1,0-0.1,0-0.1,0.1c0,0-0.1,0-0.1,0.1c2.1,1.8,6.3,1.8,10,1.8
		C16.3,16.7,14.5,16.7,12.7,16.5z"/>
	<path fill-rule="evenodd" clip-rule="evenodd" fill="#FFC440" d="M27.1,18.6c0.1,0.3-0.2,0.6-0.4,0.9c-0.3,0.6-0.5,1.3-0.5,2.3
		c-1.1-0.1-2.5,0-3.6,0.1c0.7,0.6,2.6,0.2,3.6,0.2c0,0.3,0,0.5,0,0.8c-5.4,0.1-11.5-0.2-16.3-0.9c-0.7-0.1-1.6-0.2-2-0.5
		c-0.4-0.3-0.9-1.5-1-2.4c-0.1-0.7,0.2-1.8,0.4-2.3C12.4,18.8,20,18.9,27.1,18.6z M11,21.7c2.8,0.5,6.6,0.7,9.3,0.4
		c-0.6-0.3-1.3-0.3-2-0.4c-3.3-0.2-7.5-0.1-10-1.1C8.7,21.4,9.8,21.5,11,21.7z"/>
	<path fill-rule="evenodd" clip-rule="evenodd" fill="#FFFFFF" d="M35.1,19.5c-0.5,0.3-0.9,0.7-1.5,0.9c-0.1-1-0.6-1.8-0.8-2.7
		c0.6-0.3,1.4-0.4,1.8-0.8C35,17.5,35.2,18.5,35.1,19.5z"/>
	<path fill-rule="evenodd" clip-rule="evenodd" fill="#FFFFFF" d="M30.8,17.5c1.5,0.1,2,2.7,2,4.5c0,1.7-0.8,3.4-1.6,4.6
		c-0.4,0.6-1,1.1-1.6,1.1c-0.1-0.2,0.2-0.2,0.2-0.2c1.4-1.3,2-4.1,2-6.9C31.7,19.4,31.5,18.1,30.8,17.5z"/>
	<path fill-rule="evenodd" clip-rule="evenodd" fill="#FFFFFF" d="M34.8,20.2c0.2,0.8-0.6,1.1-1.1,1.4c-0.2-0.1,0.1-0.6-0.1-0.6
		C34,20.7,34.5,20.6,34.8,20.2z"/>
	<path fill-rule="evenodd" clip-rule="evenodd" fill="#FFFFFF" d="M34.5,22.2c0.6,1.7-0.2,3.3-1.8,3.5c0.4-1,0.8-1.9,0.9-3.2
		C34,22.4,34.2,22.2,34.5,22.2z"/>
	<path fill-rule="evenodd" clip-rule="evenodd" fill="#FFC440" d="M7.5,22.2c5.4,1.2,12.1,1.4,18.7,1.3c0.1,1.3,0.5,2.3,1,3.3
		c-4.4,0.5-10,0.1-14.5-0.3c-1.2-0.1-3.3-0.3-4.2-0.8c-1-0.6-1.1-1.9-1.1-3.3C7.4,22.3,7.4,22.2,7.5,22.2z"/>
	<path fill-rule="evenodd" clip-rule="evenodd" fill="#FFFFFF" d="M30.3,25.1c-0.2,0.7-0.6,1.7-1.5,1.8
		C29.5,26.4,29.9,25.7,30.3,25.1z"/>
	<path fill-rule="evenodd" clip-rule="evenodd" fill="#FFFFFF" d="M8.6,26.7c4.6,0.6,10.9,1.6,16.8,1.1c0.8-0.1,1.8-0.3,2.3-0.2
		c0.5,0.1,0.8,0.9,1.4,1c1.6,0.3,2.6-0.9,3.2-1.9c0.8-0.3,1.6-0.5,2.2-0.9c0,0,0.1,0,0.1,0c-0.2,1.4-0.5,2.4-1.4,3.3
		c-0.6,0.7-1.1,1.4-1.9,1.8c-1.2,0.5-3.2,0.6-4.9,0.8c-1.8,0.1-3.5,0.4-5.3,0.4c-2.8,0-5.4-0.2-7.7-0.8c-1.4-0.4-2.8-0.7-3.6-1.6
		C9.2,28.8,9,27.6,8.6,26.7z M10.2,29.1c0.1,0.1,0.2,0.2,0.4,0.1C11,28.8,10.2,28.5,10.2,29.1z M30.3,30.1c-0.7,0.2-1.4,0.3-2,0.6
		c1.6,0.2,3.3-0.4,4.2-1.2c0-0.1-0.1-0.1-0.1-0.1C31.8,29.6,31.1,29.9,30.3,30.1z M11.5,29.7c-0.1,0-0.1,0-0.1,0.1
		c0,0.1,0,0.1,0.1,0.2c1.7,1.2,4.6,1.2,7.4,1.4c2,0.2,4.1-0.1,5.7-0.4C20.1,30.6,14.8,31.2,11.5,29.7z"/>
	<path fill-rule="evenodd" clip-rule="evenodd" fill="#FFC440" d="M32,31.3c-0.4,0.9-1.2,2.1-2.2,2.7c-1.5,0.8-4.1,0.9-6.6,1
		c-5,0.2-10.1-0.4-11.8-3.4c3.9,1.2,10.7,1.8,15.6,0.8C29,32,30.8,32,32,31.3z M22.6,34.4c-0.5,0-1.2-0.2-1.5,0.2
		c1.3,0.2,3.1,0.2,3.9-0.4C24.2,34.2,23.3,34.3,22.6,34.4z"/>
	<path fill-rule="evenodd" clip-rule="evenodd" fill="#FFFFFF" d="M14.6,35.3c0.6-0.1,1.1,0.4,1.6,0.6c1.3,0.6,3,0.8,4.9,0.7
		c-1.6-0.6-3.8-0.4-5.1-1.2c3.4,0.5,8.4,0.6,11.9-0.1c0,0.3-0.3,0.4-0.5,0.6c-0.7,0.5-1.8,1.1-2.9,1.2
		C21.1,37.5,16.4,36.9,14.6,35.3z"/>
	<path fill-rule="evenodd" clip-rule="evenodd" fill="#FFFFFF" d="M29.3,19.3c0.2-0.1,0.3,0.4,0.8,0.3c0.3,0.7,0.2,1.7,0.2,2.7
		c-0.2-0.1-0.4-0.3-0.6-0.4c1.7-0.2-0.9-1.5-1.1-2.1c0.5,0.2,0.7,0.7,1.2,0.9C30.7,20.3,29.6,19.5,29.3,19.3z"/>
	<path fill-rule="evenodd" clip-rule="evenodd" fill="#FFFFFF" d="M28.1,20.8c0.5,0.1,1,0.6,1.5,0.9C29.1,21.6,28.6,21.1,28.1,20.8z
		"/>
</g>
</svg>
