<svg xmlns="http://www.w3.org/2000/svg" xmlns:xlink="http://www.w3.org/1999/xlink" preserveAspectRatio="xMidYMid" width="253" height="33" viewBox="0 0 253 33">
  <defs>
    <style>
      .cls-1 {
        fill: #fff;
        fill-rule: evenodd;
      }
    </style>
  </defs>
  <path d="M252.840,31.785 C251.271,32.154 249.317,32.323 246.978,32.293 C246.424,32.016 246.178,31.569 246.240,30.954 C246.240,30.862 246.286,30.755 246.378,30.631 C245.670,29.586 244.978,28.555 244.301,27.539 C243.840,26.924 243.239,25.955 242.501,24.632 C241.700,23.125 241.100,22.064 240.701,21.448 C240.485,21.817 240.362,22.156 240.331,22.463 C240.269,23.017 240.216,23.317 240.170,23.363 C240.124,23.409 239.793,23.801 239.177,24.540 C238.562,25.278 238.254,25.832 238.254,26.201 C238.254,27.463 238.469,28.770 238.901,30.124 C240.254,30.278 240.978,30.601 241.070,31.093 C241.039,31.247 241.070,31.370 241.162,31.462 C241.255,31.554 241.177,31.739 240.932,32.016 C239.516,32.262 237.115,32.369 233.731,32.339 C233.207,32.092 232.961,31.662 232.992,31.047 C233.054,30.401 233.884,30.062 235.485,30.031 C235.700,30.031 235.900,30.031 236.085,30.031 C235.869,28.832 235.762,27.325 235.762,25.509 L235.946,18.771 C236.192,13.603 236.454,9.680 236.731,7.003 C236.823,6.296 236.916,5.604 237.008,4.927 C236.423,4.958 235.669,4.958 234.746,4.927 C234.192,4.650 233.946,4.219 234.008,3.634 C234.069,2.988 234.900,2.650 236.500,2.619 C240.039,2.497 241.901,2.850 242.085,3.681 C242.054,3.743 242.054,3.804 242.085,3.865 C242.116,3.927 242.139,3.989 242.155,4.050 C242.170,4.112 242.162,4.181 242.132,4.257 C242.101,4.335 242.023,4.435 241.901,4.557 C241.439,4.650 240.655,4.742 239.547,4.834 C239.454,5.942 239.285,7.527 239.039,9.588 C238.546,12.541 238.347,15.249 238.439,17.710 C238.439,18.326 238.577,19.187 238.854,20.294 C240.454,18.879 242.778,16.895 245.824,14.341 L244.763,14.341 C244.239,14.034 243.993,13.587 244.024,13.003 C244.085,12.357 244.916,12.034 246.517,12.034 C249.901,12.157 251.779,12.449 252.148,12.910 C252.117,12.972 252.117,13.034 252.148,13.095 C252.178,13.157 252.201,13.218 252.217,13.280 C252.232,13.342 252.232,13.411 252.217,13.487 C252.201,13.564 252.132,13.665 252.010,13.787 C250.717,14.003 249.471,14.156 248.271,14.249 C247.870,14.741 247.301,15.356 246.563,16.095 C244.962,17.726 243.978,18.540 243.609,18.540 L243.101,18.310 C243.039,18.464 243.009,18.695 243.009,19.002 C243.009,20.417 243.762,21.971 245.270,23.663 C245.855,24.401 246.916,25.848 248.455,28.001 C248.825,28.524 249.348,29.217 250.025,30.078 C251.687,30.232 252.686,30.509 253.025,30.908 C252.963,31.032 252.979,31.139 253.071,31.231 C253.164,31.324 253.086,31.508 252.840,31.785 ZM223.207,32.154 C221.114,32.000 219.483,31.293 218.314,30.031 C216.898,28.462 216.160,26.647 216.098,24.586 C216.006,22.217 216.514,19.572 217.622,16.648 C219.160,13.111 220.945,11.341 222.976,11.341 C224.022,11.341 224.991,11.519 225.884,11.872 C226.776,12.226 227.530,12.772 228.146,13.510 C228.576,14.372 228.992,15.695 229.392,17.479 C229.577,18.372 229.699,19.833 229.761,21.863 C229.884,22.848 229.561,23.509 228.792,23.848 C226.237,24.217 223.130,24.494 219.468,24.678 C219.345,26.740 220.391,28.447 222.607,29.801 C224.299,30.478 225.960,30.201 227.592,28.970 C226.884,28.632 226.438,28.047 226.253,27.216 C226.253,26.509 226.537,25.932 227.107,25.486 C227.676,25.040 228.299,24.863 228.977,24.955 C229.499,24.955 229.976,25.148 230.407,25.532 C230.838,25.917 231.100,26.478 231.192,27.216 C231.038,28.540 230.084,29.817 228.330,31.047 C226.761,31.815 225.053,32.185 223.207,32.154 ZM220.760,21.679 C221.252,21.771 221.591,21.817 221.776,21.817 C224.084,21.817 225.761,21.648 226.807,21.309 C227.084,21.217 227.223,20.525 227.223,19.233 C227.223,18.125 226.992,17.002 226.530,15.864 C225.976,14.449 225.222,13.741 224.268,13.741 C222.853,13.741 221.745,14.403 220.945,15.725 C220.206,16.895 219.683,18.817 219.376,21.494 C219.806,21.525 220.268,21.586 220.760,21.679 ZM209.775,26.432 C209.990,25.909 210.575,25.755 211.529,25.970 C212.175,26.186 212.421,27.309 212.267,29.339 C212.267,29.278 212.190,29.632 212.037,30.401 C211.944,30.954 211.575,31.523 210.929,32.108 C210.744,32.108 210.467,31.939 210.098,31.600 L209.821,31.370 C209.544,31.554 209.297,31.647 209.082,31.647 L205.713,31.647 C205.651,31.585 205.613,31.455 205.597,31.254 C205.582,31.055 205.466,30.954 205.251,30.954 C205.097,30.954 204.828,31.039 204.443,31.208 C204.058,31.378 203.789,31.462 203.636,31.462 C203.451,31.462 203.259,31.378 203.059,31.208 C202.858,31.039 202.651,30.954 202.436,30.954 C202.281,30.954 201.897,31.039 201.282,31.208 C200.666,31.378 200.250,31.462 200.035,31.462 C199.851,31.462 199.566,31.370 199.181,31.185 C198.796,31.001 198.466,30.908 198.189,30.908 C197.942,30.601 197.942,30.170 198.189,29.616 C198.958,28.170 200.220,26.186 201.974,23.663 C204.774,20.709 206.805,17.941 208.067,15.356 C207.359,15.295 206.651,15.280 205.944,15.310 C205.359,15.372 204.551,15.557 203.520,15.864 C202.489,16.172 201.712,16.325 201.189,16.325 C201.097,16.325 201.005,16.325 200.912,16.325 C200.881,16.602 200.804,17.418 200.682,18.771 C200.527,19.694 200.158,20.264 199.574,20.479 C198.743,20.510 198.312,20.002 198.281,18.956 C198.189,16.126 198.250,14.218 198.466,13.233 C198.681,12.711 199.266,12.557 200.220,12.772 C200.497,13.049 200.635,13.418 200.635,13.879 C201.312,13.726 202.143,13.587 203.128,13.464 C205.097,13.249 206.882,13.157 208.482,13.187 C210.390,13.372 211.513,13.649 211.852,14.018 C212.159,14.603 212.052,15.372 211.529,16.325 C210.759,17.341 209.683,18.756 208.298,20.571 C208.143,20.756 207.067,21.894 205.067,23.986 C203.866,25.186 203.097,26.601 202.759,28.232 C204.297,28.509 205.866,28.739 207.467,28.924 C208.328,28.986 209.020,29.186 209.544,29.524 C209.513,28.232 209.590,27.201 209.775,26.432 ZM186.372,32.154 C184.279,32.000 182.649,31.293 181.480,30.031 C180.064,28.462 179.325,26.647 179.264,24.586 C179.172,22.217 179.679,19.572 180.787,16.648 C182.326,13.111 184.111,11.341 186.142,11.341 C187.187,11.341 188.157,11.519 189.050,11.872 C189.942,12.226 190.696,12.772 191.311,13.510 C191.742,14.372 192.157,15.695 192.558,17.479 C192.742,18.372 192.865,19.833 192.927,21.863 C193.050,22.848 192.727,23.509 191.958,23.848 C189.403,24.217 186.295,24.494 182.634,24.678 C182.510,26.740 183.557,28.447 185.772,29.801 C187.464,30.478 189.126,30.201 190.758,28.970 C190.049,28.632 189.604,28.047 189.419,27.216 C189.419,26.509 189.703,25.932 190.273,25.486 C190.842,25.040 191.465,24.863 192.142,24.955 C192.665,24.955 193.142,25.148 193.573,25.532 C194.004,25.917 194.266,26.478 194.358,27.216 C194.204,28.540 193.250,29.817 191.496,31.047 C189.927,31.815 188.219,32.185 186.372,32.154 ZM183.926,21.679 C184.418,21.771 184.757,21.817 184.942,21.817 C187.250,21.817 188.926,21.648 189.973,21.309 C190.250,21.217 190.388,20.525 190.388,19.233 C190.388,18.125 190.158,17.002 189.696,15.864 C189.142,14.449 188.388,13.741 187.434,13.741 C186.018,13.741 184.911,14.403 184.111,15.725 C183.372,16.895 182.849,18.817 182.541,21.494 C182.972,21.525 183.433,21.586 183.926,21.679 ZM186.604,8.663 L184.735,8.663 C185.004,7.626 185.300,6.345 185.625,4.820 C185.949,3.294 186.175,2.073 186.305,1.156 L189.027,1.156 L189.252,1.500 C188.992,2.497 188.618,3.656 188.130,4.977 C187.641,6.297 187.133,7.526 186.604,8.663 ZM176.403,31.693 C175.448,31.846 174.263,31.939 172.848,31.970 C171.679,31.970 170.817,31.970 170.264,31.970 C169.710,31.693 169.463,31.247 169.525,30.631 C169.555,30.170 169.987,29.863 170.817,29.708 C170.879,22.971 170.740,18.863 170.402,17.387 C170.217,16.618 169.817,16.233 169.202,16.233 C168.648,16.233 167.909,16.818 166.986,17.987 C166.186,19.002 165.694,19.802 165.509,20.386 C165.447,20.571 165.186,20.994 164.724,21.655 C164.263,22.317 164.032,22.756 164.032,22.971 C164.032,23.186 164.209,24.309 164.563,26.340 C164.916,28.370 165.094,29.494 165.094,29.708 L165.094,29.893 C166.386,30.109 167.032,30.401 167.032,30.770 C167.001,30.832 167.001,30.893 167.032,30.954 C167.063,31.016 167.086,31.078 167.102,31.139 C167.117,31.201 167.109,31.277 167.079,31.370 C167.048,31.462 166.970,31.569 166.848,31.693 C165.371,31.970 163.324,32.062 160.709,31.970 C159.816,31.815 159.478,31.478 159.693,30.954 C159.970,30.370 160.693,29.955 161.863,29.708 L161.493,23.201 C161.154,19.417 160.539,17.356 159.647,17.018 C159.555,17.080 158.647,17.772 156.924,19.094 C157.016,19.587 156.647,20.294 155.816,21.217 C155.323,21.741 154.815,22.278 154.293,22.832 C154.200,23.263 154.062,23.863 153.877,24.632 C153.877,24.663 153.762,24.802 153.531,25.047 C153.300,25.294 153.185,25.540 153.185,25.786 C153.185,26.032 153.354,26.740 153.693,27.909 C153.907,28.617 154.062,29.247 154.154,29.801 C155.108,29.985 155.646,30.293 155.770,30.724 C155.739,30.786 155.739,30.847 155.770,30.908 C155.800,30.970 155.823,31.032 155.839,31.093 C155.854,31.155 155.846,31.231 155.816,31.324 C155.785,31.416 155.708,31.523 155.585,31.647 C154.108,31.924 151.892,32.046 148.938,32.016 C148.384,31.739 148.138,31.293 148.200,30.678 C148.261,30.001 148.830,29.647 149.908,29.616 C150.215,29.616 150.508,29.616 150.785,29.616 L150.785,29.247 C150.785,29.186 150.907,28.063 151.154,25.878 C151.400,23.694 151.523,22.125 151.523,21.171 L151.108,15.772 C149.230,15.987 148.368,15.695 148.523,14.895 C148.738,14.249 149.323,13.849 150.277,13.695 C151.446,13.480 152.292,13.388 152.816,13.418 C153.307,13.510 153.708,13.726 154.016,14.064 C154.077,14.495 154.016,14.957 153.831,15.449 C153.769,15.849 153.769,16.356 153.831,16.971 C153.923,17.833 153.969,18.418 153.969,18.725 C154.123,18.664 154.461,18.494 154.985,18.217 C155.231,18.064 156.077,17.141 157.524,15.449 C158.724,14.034 159.708,13.326 160.478,13.326 C161.863,13.141 162.786,14.726 163.247,18.079 C164.939,16.018 166.155,14.741 166.894,14.249 C168.032,13.449 169.156,13.049 170.264,13.049 C170.602,13.049 171.102,13.233 171.764,13.603 C172.425,13.972 172.864,14.664 173.079,15.679 C173.694,18.295 173.833,22.756 173.495,29.062 C173.525,29.217 173.602,29.401 173.725,29.616 C175.448,29.708 176.403,30.093 176.587,30.770 C176.556,30.832 176.556,30.893 176.587,30.954 C176.618,31.016 176.641,31.078 176.657,31.139 C176.672,31.201 176.664,31.277 176.633,31.370 C176.602,31.462 176.525,31.569 176.403,31.693 ZM126.459,32.016 C125.659,31.893 125.305,31.508 125.398,30.862 C125.398,30.247 126.074,29.863 127.429,29.708 L127.844,16.048 C127.844,15.864 127.859,15.679 127.890,15.495 C127.274,15.526 126.720,15.526 126.228,15.495 C125.398,15.402 125.012,15.018 125.074,14.341 C125.566,13.818 126.505,13.510 127.890,13.418 C128.259,13.295 128.952,13.233 129.967,13.233 C130.367,13.233 130.652,13.318 130.821,13.487 C130.990,13.657 131.090,13.864 131.121,14.110 C131.152,14.357 131.136,14.603 131.075,14.849 C131.013,15.095 130.937,15.280 130.844,15.402 C130.660,16.879 130.567,18.479 130.567,20.202 C130.413,24.909 130.367,28.185 130.429,30.031 C131.906,30.278 132.752,30.585 132.968,30.954 C133.060,31.201 133.106,31.370 133.106,31.462 C133.106,31.554 133.014,31.708 132.829,31.924 C131.229,31.954 129.105,31.985 126.459,32.016 ZM129.506,7.972 C128.459,8.096 127.706,7.711 127.244,6.819 C127.274,6.173 127.551,5.581 128.075,5.042 C128.598,4.504 129.167,4.234 129.783,4.234 C130.459,4.234 130.875,4.527 131.029,5.111 C131.183,5.696 131.260,6.311 131.260,6.957 C130.706,7.634 130.121,7.972 129.506,7.972 ZM121.336,32.062 C119.675,32.461 118.351,32.692 117.367,32.754 C116.381,32.846 115.720,32.846 115.382,32.754 C114.858,32.477 114.612,32.062 114.643,31.508 L114.597,31.370 C114.197,31.554 113.435,31.762 112.312,31.993 C111.189,32.223 110.443,32.323 110.074,32.293 C108.935,32.262 107.789,31.746 106.635,30.747 C105.481,29.747 104.934,28.755 104.996,27.770 C105.057,26.755 105.550,25.632 106.473,24.401 C107.581,22.925 108.873,21.986 110.350,21.586 C110.935,21.402 112.474,21.402 114.966,21.586 C115.397,21.617 115.674,21.525 115.797,21.309 C115.920,21.094 115.982,20.694 115.982,20.110 C115.982,15.557 114.966,13.157 112.935,12.910 C111.489,12.849 110.058,13.680 108.643,15.402 C108.858,15.495 109.058,15.633 109.243,15.818 C109.673,16.187 109.935,16.726 110.027,17.433 C109.750,18.817 108.842,19.463 107.304,19.371 C105.765,18.972 105.088,18.125 105.273,16.833 C105.396,16.126 105.888,15.295 106.750,14.341 C109.027,11.788 111.504,10.511 114.182,10.511 C116.058,10.511 117.397,12.142 118.197,15.402 C118.720,17.372 118.982,19.541 118.982,21.909 C118.982,24.770 118.628,27.355 117.921,29.662 C117.859,29.878 117.797,30.078 117.736,30.262 C119.889,30.416 121.152,30.709 121.521,31.139 C121.490,31.201 121.490,31.262 121.521,31.324 C121.551,31.386 121.574,31.447 121.590,31.508 C121.605,31.569 121.597,31.647 121.567,31.739 C121.536,31.831 121.459,31.939 121.336,32.062 ZM115.659,24.586 C115.443,24.432 114.828,24.355 113.812,24.355 C113.504,24.355 113.196,24.263 112.889,24.078 C112.581,23.894 112.289,23.709 112.012,23.524 C111.274,23.894 110.550,24.263 109.843,24.632 C109.012,25.063 108.488,25.509 108.273,25.970 C108.119,26.494 108.335,27.232 108.920,28.185 C109.566,29.263 110.319,29.801 111.181,29.801 C112.566,29.801 113.597,29.647 114.274,29.339 C114.674,29.124 114.935,28.924 115.059,28.739 C115.089,28.647 115.243,28.247 115.520,27.539 C115.766,25.663 115.812,24.678 115.659,24.586 ZM94.887,32.662 C94.579,32.662 94.256,32.600 93.918,32.477 C93.579,32.200 93.287,31.924 93.041,31.647 C92.672,31.585 92.302,31.478 91.933,31.324 C91.071,30.924 90.471,30.478 90.133,29.985 C89.302,28.970 88.886,27.063 88.886,24.263 C88.917,21.894 89.055,19.479 89.302,17.018 C89.210,16.833 88.994,16.664 88.656,16.510 C88.317,16.356 88.102,16.218 88.009,16.095 C87.794,15.941 87.655,15.664 87.594,15.264 C87.563,14.926 87.594,14.664 87.686,14.479 C87.840,14.172 88.486,13.695 89.625,13.049 C89.810,12.680 90.064,11.395 90.387,9.195 C90.710,6.996 91.363,5.803 92.348,5.619 C92.871,5.711 93.302,5.912 93.641,6.219 C93.456,7.296 93.287,8.350 93.133,9.380 C92.979,10.411 92.871,11.480 92.810,12.587 C93.302,12.618 94.426,12.711 96.180,12.864 C97.657,13.019 98.364,13.342 98.303,13.833 C97.687,14.479 96.749,14.895 95.487,15.079 C93.641,15.356 92.579,15.818 92.302,16.464 C92.087,17.510 91.902,18.910 91.748,20.663 C91.502,24.694 91.702,27.048 92.348,27.724 C92.840,28.401 93.486,29.016 94.287,29.570 C94.656,29.755 95.072,29.878 95.533,29.939 C96.856,29.909 97.856,29.524 98.534,28.785 C97.487,28.632 96.841,27.986 96.595,26.847 C96.687,26.140 96.941,25.601 97.357,25.232 C97.772,24.863 98.226,24.678 98.718,24.678 C100.410,24.986 101.303,26.001 101.396,27.724 C101.396,28.524 101.134,29.370 100.611,30.262 C99.718,31.647 97.810,32.446 94.887,32.662 ZM79.886,26.432 C80.101,25.909 80.686,25.755 81.640,25.970 C82.287,26.186 82.532,27.309 82.379,29.339 C82.379,29.278 82.302,29.632 82.148,30.401 C82.056,30.954 81.686,31.523 81.040,32.108 C80.856,32.108 80.579,31.939 80.209,31.600 L79.932,31.370 C79.655,31.554 79.409,31.647 79.194,31.647 L75.824,31.647 C75.762,31.585 75.724,31.455 75.709,31.254 C75.693,31.055 75.578,30.954 75.363,30.954 C75.208,30.954 74.939,31.039 74.555,31.208 C74.170,31.378 73.901,31.462 73.747,31.462 C73.562,31.462 73.370,31.378 73.170,31.208 C72.970,31.039 72.762,30.954 72.547,30.954 C72.393,30.954 72.008,31.039 71.393,31.208 C70.777,31.378 70.362,31.462 70.147,31.462 C69.962,31.462 69.677,31.370 69.293,31.185 C68.908,31.001 68.577,30.908 68.300,30.908 C68.054,30.601 68.054,30.170 68.300,29.616 C69.069,28.170 70.331,26.186 72.085,23.663 C74.885,20.709 76.916,17.941 78.178,15.356 C77.470,15.295 76.763,15.280 76.055,15.310 C75.470,15.372 74.662,15.557 73.632,15.864 C72.600,16.172 71.824,16.325 71.301,16.325 C71.208,16.325 71.116,16.325 71.024,16.325 C70.993,16.602 70.916,17.418 70.793,18.771 C70.639,19.694 70.269,20.264 69.685,20.479 C68.854,20.510 68.423,20.002 68.393,18.956 C68.300,16.126 68.362,14.218 68.577,13.233 C68.792,12.711 69.377,12.557 70.331,12.772 C70.608,13.049 70.747,13.418 70.747,13.879 C71.423,13.726 72.254,13.587 73.239,13.464 C75.208,13.249 76.993,13.157 78.594,13.187 C80.501,13.372 81.624,13.649 81.963,14.018 C82.271,14.603 82.163,15.372 81.640,16.325 C80.871,17.341 79.794,18.756 78.409,20.571 C78.255,20.756 77.178,21.894 75.178,23.986 C73.978,25.186 73.208,26.601 72.870,28.232 C74.409,28.509 75.978,28.739 77.578,28.924 C78.439,28.986 79.132,29.186 79.655,29.524 C79.624,28.232 79.702,27.201 79.886,26.432 ZM62.808,29.062 C62.746,29.463 62.347,29.909 61.608,30.401 C60.654,31.078 60.161,31.432 60.131,31.462 C59.762,31.985 59.208,32.554 58.469,33.170 C58.130,33.292 57.807,33.354 57.500,33.354 C54.576,33.139 52.668,32.339 51.776,30.954 C51.253,30.062 50.991,29.217 50.991,28.416 C51.084,26.694 51.976,25.678 53.669,25.370 C54.161,25.370 54.615,25.555 55.030,25.924 C55.446,26.293 55.700,26.832 55.792,27.539 C55.545,28.678 54.899,29.324 53.853,29.478 C54.530,30.216 55.530,30.601 56.854,30.631 C57.930,30.447 58.823,29.970 59.531,29.201 C60.454,28.032 60.916,27.263 60.916,26.893 C60.916,26.278 60.484,25.555 59.623,24.724 C58.854,23.986 57.823,23.310 56.530,22.694 C52.130,21.217 49.930,19.125 49.930,16.418 C49.930,14.787 50.776,13.388 52.469,12.218 C53.976,11.173 55.499,10.649 57.038,10.649 C57.992,10.649 58.915,10.896 59.808,11.387 C59.930,11.480 60.054,11.572 60.177,11.664 C60.238,11.203 60.300,10.819 60.362,10.511 C60.577,9.988 61.162,9.834 62.116,10.049 C62.731,10.203 62.977,11.326 62.854,13.418 C62.854,13.357 62.762,14.234 62.577,16.048 C62.300,17.033 61.931,17.602 61.469,17.756 C61.285,17.756 61.000,17.679 60.616,17.525 C60.230,17.372 60.085,16.941 60.177,16.233 C60.146,15.557 60.131,14.941 60.131,14.387 C59.330,13.803 58.823,13.334 58.608,12.980 C58.392,12.626 58.130,12.449 57.823,12.449 C55.977,12.449 54.484,13.095 53.346,14.387 C52.792,15.033 52.607,15.787 52.792,16.648 C53.069,17.664 54.530,18.741 57.177,19.879 C59.884,21.263 61.516,22.402 62.070,23.294 C62.654,23.910 63.046,24.625 63.247,25.440 C63.446,26.255 63.270,27.048 62.716,27.816 C62.777,28.063 62.808,28.478 62.808,29.062 ZM46.191,30.539 C46.129,31.216 45.268,31.554 43.606,31.554 C42.468,31.585 41.560,31.538 40.883,31.416 C40.267,31.416 39.852,31.247 39.637,30.908 C39.482,30.786 39.390,30.616 39.360,30.401 C39.421,30.278 39.406,30.170 39.314,30.078 C39.221,29.985 39.267,29.817 39.452,29.570 C39.452,29.139 39.467,28.617 39.498,28.001 C38.359,29.016 36.944,29.878 35.252,30.585 C34.543,30.801 34.005,30.908 33.636,30.908 C31.943,30.908 30.697,30.155 29.897,28.647 C29.251,27.509 28.928,26.109 28.928,24.447 C28.928,23.125 29.035,21.356 29.251,19.140 C29.312,18.217 29.420,17.403 29.574,16.695 C28.651,16.757 27.728,16.772 26.805,16.741 C26.251,16.433 26.004,15.972 26.066,15.356 C26.127,14.680 26.989,14.341 28.651,14.341 C32.189,14.464 34.159,14.772 34.559,15.264 C34.528,15.326 34.528,15.387 34.559,15.449 C34.590,15.511 34.613,15.572 34.629,15.633 C34.644,15.695 34.636,15.772 34.605,15.864 C34.574,15.956 34.497,16.064 34.375,16.187 C33.513,16.341 32.651,16.464 31.790,16.556 C31.697,17.418 31.605,18.356 31.513,19.371 C31.420,20.479 31.374,21.817 31.374,23.386 C31.374,24.371 31.620,25.324 32.113,26.247 C32.697,27.386 33.451,27.955 34.375,27.955 C36.098,27.955 37.621,26.524 38.944,23.663 C39.868,21.756 40.437,20.048 40.652,18.540 C40.714,17.587 40.821,16.449 40.975,15.125 C39.898,14.972 39.314,14.618 39.221,14.064 C39.252,13.941 39.229,13.826 39.152,13.718 C39.075,13.610 39.159,13.418 39.406,13.141 C40.883,12.895 42.852,12.788 45.314,12.818 C45.868,13.126 46.114,13.587 46.053,14.202 C45.991,14.849 45.237,15.187 43.791,15.218 C43.852,15.464 43.883,15.695 43.883,15.910 C43.083,20.156 42.683,22.633 42.683,23.340 C42.591,24.355 42.514,25.571 42.452,26.986 C42.421,28.124 42.406,28.863 42.406,29.201 C43.298,29.170 44.314,29.155 45.453,29.155 C46.007,29.463 46.253,29.924 46.191,30.539 ZM20.481,18.771 C19.957,19.110 19.304,19.733 18.519,20.640 C17.735,21.548 17.096,22.125 16.604,22.371 C15.834,22.740 14.141,23.386 11.526,24.309 C9.341,25.109 8.233,25.586 8.203,25.740 C8.141,26.048 8.187,26.448 8.341,26.939 C8.741,28.170 8.941,29.232 8.941,30.124 L8.941,30.262 C11.342,30.293 12.588,30.509 12.680,30.908 C12.803,31.523 12.603,32.016 12.080,32.385 C9.372,32.477 7.402,32.523 6.172,32.523 C5.125,32.523 4.141,32.415 3.218,32.200 C2.848,32.108 2.610,32.008 2.502,31.900 C2.394,31.792 2.356,31.685 2.387,31.577 C2.417,31.470 2.486,31.370 2.595,31.277 C2.702,31.185 2.802,31.093 2.895,31.001 C3.663,30.693 4.556,30.463 5.572,30.308 L5.664,30.308 C5.510,29.847 5.371,29.293 5.249,28.647 C5.125,27.724 4.895,26.463 4.556,24.863 C4.341,24.802 4.156,24.709 4.002,24.586 C3.602,24.309 3.386,23.986 3.356,23.617 C3.756,22.786 3.956,22.186 3.956,21.817 C3.956,21.325 3.864,20.525 3.679,19.417 C3.495,18.310 3.402,17.679 3.402,17.525 C3.402,13.741 3.495,11.203 3.679,9.911 L4.325,6.173 C3.495,6.173 2.479,6.142 1.279,6.080 C0.725,5.773 0.556,5.373 0.771,4.881 C1.048,4.142 2.479,3.697 5.064,3.542 C6.695,3.450 8.464,3.389 10.372,3.358 C15.788,3.358 19.758,4.865 22.281,7.880 C22.681,8.373 23.043,9.019 23.366,9.818 C23.689,10.619 23.851,11.265 23.851,11.757 C23.851,12.218 23.489,13.334 22.766,15.102 C22.043,16.872 21.281,18.095 20.481,18.771 ZM17.158,7.742 C14.942,6.388 12.895,5.711 11.019,5.711 C10.864,5.711 10.295,5.734 9.311,5.780 C8.325,5.827 7.448,5.896 6.680,5.988 C6.464,7.003 6.356,8.280 6.356,9.818 C6.356,11.788 6.495,14.156 6.772,16.925 C7.141,20.679 7.618,22.571 8.203,22.602 C10.541,22.664 13.050,21.817 15.727,20.063 C16.865,19.325 17.996,18.148 19.119,16.533 C20.242,14.918 20.804,13.665 20.804,12.772 C20.804,10.957 19.588,9.280 17.158,7.742 Z" class="cls-1"/>
</svg>
