<?xml version="1.0" encoding="utf-8"?>
<!-- Generator: Adobe Illustrator 19.0.0, SVG Export Plug-In . SVG Version: 6.00 Build 0)  -->
<svg version="1.1" id="Réteg_1" xmlns="http://www.w3.org/2000/svg" xmlns:xlink="http://www.w3.org/1999/xlink" x="0px" y="0px"
	 width="253px" height="33px" viewBox="-179 380 253 33" style="enable-background:new -179 380 253 33;" xml:space="preserve">
<style type="text/css">
	.st0{fill:#FFFFFF;}
</style>
<path class="st0" d="M73.8,411.8c-1.6,0.4-3.5,0.5-5.9,0.5c-0.6-0.3-0.8-0.7-0.7-1.3c0-0.1,0-0.2,0.1-0.3c-0.7-1-1.4-2.1-2.1-3.1
	c-0.5-0.6-1.1-1.6-1.8-2.9c-0.8-1.5-1.4-2.6-1.8-3.2c-0.2,0.4-0.3,0.7-0.4,1c-0.1,0.6-0.1,0.9-0.2,0.9c0,0-0.4,0.4-1,1.2
	c-0.6,0.7-0.9,1.3-0.9,1.7c0,1.3,0.2,2.6,0.6,3.9c1.4,0.2,2.1,0.5,2.2,1c0,0.2,0,0.3,0.1,0.4c0.1,0.1,0,0.3-0.2,0.6
	c-1.4,0.2-3.8,0.4-7.2,0.3c-0.5-0.2-0.8-0.7-0.7-1.3c0.1-0.6,0.9-1,2.5-1c0.2,0,0.4,0,0.6,0c-0.2-1.2-0.3-2.7-0.3-4.5l0.2-6.7
	c0.2-5.2,0.5-9.1,0.8-11.8c0.1-0.7,0.2-1.4,0.3-2.1c-0.6,0-1.3,0-2.3,0c-0.6-0.3-0.8-0.7-0.7-1.3c0.1-0.6,0.9-1,2.5-1
	c3.5-0.1,5.4,0.2,5.6,1.1c0,0.1,0,0.1,0,0.2c0,0.1,0.1,0.1,0.1,0.2c0,0.1,0,0.1,0,0.2c0,0.1-0.1,0.2-0.2,0.3
	c-0.5,0.1-1.2,0.2-2.4,0.3c-0.1,1.1-0.3,2.7-0.5,4.8c-0.5,3-0.7,5.7-0.6,8.1c0,0.6,0.1,1.5,0.4,2.6c1.6-1.4,3.9-3.4,7-6h-1.1
	c-0.5-0.3-0.8-0.8-0.7-1.3c0.1-0.6,0.9-1,2.5-1c3.4,0.1,5.3,0.4,5.6,0.9c0,0.1,0,0.1,0,0.2c0,0.1,0.1,0.1,0.1,0.2c0,0.1,0,0.1,0,0.2
	c0,0.1-0.1,0.2-0.2,0.3c-1.3,0.2-2.5,0.4-3.7,0.5c-0.4,0.5-1,1.1-1.7,1.8c-1.6,1.6-2.6,2.4-3,2.4l-0.5-0.2c-0.1,0.2-0.1,0.4-0.1,0.7
	c0,1.4,0.8,3,2.3,4.7c0.6,0.7,1.6,2.2,3.2,4.3c0.4,0.5,0.9,1.2,1.6,2.1c1.7,0.2,2.7,0.4,3,0.8c-0.1,0.1,0,0.2,0,0.3
	C74.2,411.3,74.1,411.5,73.8,411.8z M44.2,412.2c-2.1-0.2-3.7-0.9-4.9-2.1c-1.4-1.6-2.2-3.4-2.2-5.4c-0.1-2.4,0.4-5,1.5-7.9
	c1.5-3.5,3.3-5.3,5.4-5.3c1,0,2,0.2,2.9,0.5c0.9,0.4,1.6,0.9,2.3,1.6c0.4,0.9,0.8,2.2,1.2,4c0.2,0.9,0.3,2.4,0.4,4.4
	c0.1,1-0.2,1.6-1,2c-2.6,0.4-5.7,0.6-9.3,0.8c-0.1,2.1,0.9,3.8,3.1,5.1c1.7,0.7,3.4,0.4,5-0.8c-0.7-0.3-1.2-0.9-1.3-1.8
	c0-0.7,0.3-1.3,0.9-1.7c0.6-0.4,1.2-0.6,1.9-0.5c0.5,0,1,0.2,1.4,0.6c0.4,0.4,0.7,0.9,0.8,1.7c-0.2,1.3-1.1,2.6-2.9,3.8
	C47.8,411.8,46.1,412.2,44.2,412.2z M41.8,401.7c0.5,0.1,0.8,0.1,1,0.1c2.3,0,4-0.2,5-0.5c0.3-0.1,0.4-0.8,0.4-2.1
	c0-1.1-0.2-2.2-0.7-3.4c-0.6-1.4-1.3-2.1-2.3-2.1c-1.4,0-2.5,0.7-3.3,2c-0.7,1.2-1.3,3.1-1.6,5.8C40.8,401.5,41.3,401.6,41.8,401.7z
	 M30.8,406.4c0.2-0.5,0.8-0.7,1.8-0.5c0.6,0.2,0.9,1.3,0.7,3.4c0-0.1-0.1,0.3-0.2,1.1c-0.1,0.6-0.5,1.1-1.1,1.7
	c-0.2,0-0.5-0.2-0.8-0.5l-0.3-0.2c-0.3,0.2-0.5,0.3-0.7,0.3h-3.4c-0.1-0.1-0.1-0.2-0.1-0.4c0-0.2-0.1-0.3-0.3-0.3
	c-0.2,0-0.4,0.1-0.8,0.3c-0.4,0.2-0.7,0.3-0.8,0.3c-0.2,0-0.4-0.1-0.6-0.3c-0.2-0.2-0.4-0.3-0.6-0.3c-0.2,0-0.5,0.1-1.2,0.3
	c-0.6,0.2-1,0.3-1.2,0.3c-0.2,0-0.5-0.1-0.9-0.3c-0.4-0.2-0.7-0.3-1-0.3c-0.2-0.3-0.2-0.7,0-1.3c0.8-1.4,2-3.4,3.8-6
	c2.8-3,4.8-5.7,6.1-8.3c-0.7-0.1-1.4-0.1-2.1,0c-0.6,0.1-1.4,0.2-2.4,0.6c-1,0.3-1.8,0.5-2.3,0.5c-0.1,0-0.2,0-0.3,0
	c0,0.3-0.1,1.1-0.2,2.4c-0.2,0.9-0.5,1.5-1.1,1.7c-0.8,0-1.3-0.5-1.3-1.5c-0.1-2.8,0-4.7,0.2-5.7c0.2-0.5,0.8-0.7,1.8-0.5
	c0.3,0.3,0.4,0.6,0.4,1.1c0.7-0.2,1.5-0.3,2.5-0.4c2-0.2,3.8-0.3,5.4-0.3c1.9,0.2,3,0.5,3.4,0.8c0.3,0.6,0.2,1.4-0.3,2.3
	c-0.8,1-1.8,2.4-3.2,4.2c-0.2,0.2-1.2,1.3-3.2,3.4c-1.2,1.2-2,2.6-2.3,4.2c1.5,0.3,3.1,0.5,4.7,0.7c0.9,0.1,1.6,0.3,2.1,0.6
	C30.5,408.2,30.6,407.2,30.8,406.4z M7.4,412.2c-2.1-0.2-3.7-0.9-4.9-2.1c-1.4-1.6-2.2-3.4-2.2-5.4c-0.1-2.4,0.4-5,1.5-7.9
	c1.5-3.5,3.3-5.3,5.4-5.3c1,0,2,0.2,2.9,0.5c0.9,0.4,1.6,0.9,2.3,1.6c0.4,0.9,0.8,2.2,1.2,4c0.2,0.9,0.3,2.4,0.4,4.4
	c0.1,1-0.2,1.6-1,2c-2.6,0.4-5.7,0.6-9.3,0.8c-0.1,2.1,0.9,3.8,3.1,5.1c1.7,0.7,3.4,0.4,5-0.8c-0.7-0.3-1.2-0.9-1.3-1.8
	c0-0.7,0.3-1.3,0.9-1.7c0.6-0.4,1.2-0.6,1.9-0.5c0.5,0,1,0.2,1.4,0.6c0.4,0.4,0.7,0.9,0.8,1.7c-0.2,1.3-1.1,2.6-2.9,3.8
	C10.9,411.8,9.2,412.2,7.4,412.2z M4.9,401.7c0.5,0.1,0.8,0.1,1,0.1c2.3,0,4-0.2,5-0.5c0.3-0.1,0.4-0.8,0.4-2.1
	c0-1.1-0.2-2.2-0.7-3.4c-0.6-1.4-1.3-2.1-2.3-2.1c-1.4,0-2.5,0.7-3.3,2c-0.7,1.2-1.3,3.1-1.6,5.8C4,401.5,4.4,401.6,4.9,401.7z
	 M7.6,388.7H5.7c0.3-1,0.6-2.3,0.9-3.8c0.3-1.5,0.6-2.7,0.7-3.7H10l0.2,0.3c-0.3,1-0.6,2.2-1.1,3.5C8.6,386.3,8.1,387.5,7.6,388.7z
	 M-2.6,411.7c-1,0.2-2.1,0.2-3.6,0.3c-1.2,0-2,0-2.6,0c-0.6-0.3-0.8-0.7-0.7-1.3c0-0.5,0.5-0.8,1.3-0.9c0.1-6.7-0.1-10.8-0.4-12.3
	c-0.2-0.8-0.6-1.2-1.2-1.2c-0.6,0-1.3,0.6-2.2,1.8c-0.8,1-1.3,1.8-1.5,2.4c-0.1,0.2-0.3,0.6-0.8,1.3c-0.5,0.7-0.7,1.1-0.7,1.3
	s0.2,1.3,0.5,3.4c0.4,2,0.5,3.2,0.5,3.4v0.2c1.3,0.2,1.9,0.5,1.9,0.9c0,0.1,0,0.1,0,0.2c0,0.1,0.1,0.1,0.1,0.2c0,0.1,0,0.1,0,0.2
	c0,0.1-0.1,0.2-0.2,0.3c-1.5,0.3-3.5,0.4-6.1,0.3c-0.9-0.2-1.2-0.5-1-1c0.3-0.6,1-1,2.2-1.2l-0.4-6.5c-0.3-3.8-1-5.8-1.8-6.2
	c-0.1,0.1-1,0.8-2.7,2.1c0.1,0.5-0.3,1.2-1.1,2.1c-0.5,0.5-1,1.1-1.5,1.6c-0.1,0.4-0.2,1-0.4,1.8c0,0-0.1,0.2-0.3,0.4
	c-0.2,0.2-0.3,0.5-0.3,0.7s0.2,1,0.5,2.1c0.2,0.7,0.4,1.3,0.5,1.9c1,0.2,1.5,0.5,1.6,0.9c0,0.1,0,0.1,0,0.2c0,0.1,0.1,0.1,0.1,0.2
	c0,0.1,0,0.1,0,0.2c0,0.1-0.1,0.2-0.2,0.3c-1.5,0.3-3.7,0.4-6.6,0.4c-0.6-0.3-0.8-0.7-0.7-1.3c0.1-0.7,0.6-1,1.7-1.1
	c0.3,0,0.6,0,0.9,0v-0.4c0-0.1,0.1-1.2,0.4-3.4c0.2-2.2,0.4-3.8,0.4-4.7l-0.4-5.4c-1.9,0.2-2.7-0.1-2.6-0.9c0.2-0.6,0.8-1,1.8-1.2
	c1.2-0.2,2-0.3,2.5-0.3c0.5,0.1,0.9,0.3,1.2,0.6c0.1,0.4,0,0.9-0.2,1.4c-0.1,0.4-0.1,0.9,0,1.5c0.1,0.9,0.1,1.4,0.1,1.8
	c0.2-0.1,0.5-0.2,1-0.5c0.2-0.2,1.1-1.1,2.5-2.8c1.2-1.4,2.2-2.1,3-2.1c1.4-0.2,2.3,1.4,2.8,4.8c1.7-2.1,2.9-3.3,3.6-3.8
	c1.1-0.8,2.3-1.2,3.4-1.2c0.3,0,0.8,0.2,1.5,0.6c0.7,0.4,1.1,1.1,1.3,2.1c0.6,2.6,0.8,7.1,0.4,13.4c0,0.2,0.1,0.3,0.2,0.6
	c1.7,0.1,2.7,0.5,2.9,1.2c0,0.1,0,0.1,0,0.2c0,0.1,0.1,0.1,0.1,0.2c0,0.1,0,0.1,0,0.2C-2.4,411.5-2.5,411.6-2.6,411.7z M-52.5,412
	c-0.8-0.1-1.2-0.5-1.1-1.2c0-0.6,0.7-1,2-1.2l0.4-13.7c0-0.2,0-0.4,0-0.6c-0.6,0-1.2,0-1.7,0c-0.8-0.1-1.2-0.5-1.2-1.2
	c0.5-0.5,1.4-0.8,2.8-0.9c0.4-0.1,1.1-0.2,2.1-0.2c0.4,0,0.7,0.1,0.9,0.3c0.2,0.2,0.3,0.4,0.3,0.6c0,0.2,0,0.5,0,0.7
	c-0.1,0.2-0.1,0.4-0.2,0.6c-0.2,1.5-0.3,3.1-0.3,4.8c-0.2,4.7-0.2,8-0.1,9.8c1.5,0.2,2.3,0.6,2.5,0.9c0.1,0.2,0.1,0.4,0.1,0.5
	s-0.1,0.2-0.3,0.5C-47.8,412-49.9,412-52.5,412z M-49.5,388c-1,0.1-1.8-0.3-2.3-1.2c0-0.6,0.3-1.2,0.8-1.8c0.5-0.5,1.1-0.8,1.7-0.8
	c0.7,0,1.1,0.3,1.2,0.9c0.2,0.6,0.2,1.2,0.2,1.8C-48.3,387.6-48.9,388-49.5,388z M-57.7,412.1c-1.7,0.4-3,0.6-4,0.7
	c-1,0.1-1.6,0.1-2,0c-0.5-0.3-0.8-0.7-0.7-1.2l0-0.1c-0.4,0.2-1.2,0.4-2.3,0.6c-1.1,0.2-1.9,0.3-2.2,0.3c-1.1,0-2.3-0.5-3.4-1.5
	c-1.2-1-1.7-2-1.6-3c0.1-1,0.6-2.1,1.5-3.4c1.1-1.5,2.4-2.4,3.9-2.8c0.6-0.2,2.1-0.2,4.6,0c0.4,0,0.7-0.1,0.8-0.3
	c0.1-0.2,0.2-0.6,0.2-1.2c0-4.6-1-7-3-7.2c-1.4-0.1-2.9,0.8-4.3,2.5c0.2,0.1,0.4,0.2,0.6,0.4c0.4,0.4,0.7,0.9,0.8,1.6
	c-0.3,1.4-1.2,2-2.7,1.9c-1.5-0.4-2.2-1.2-2-2.5c0.1-0.7,0.6-1.5,1.5-2.5c2.3-2.6,4.8-3.8,7.4-3.8c1.9,0,3.2,1.6,4,4.9
	c0.5,2,0.8,4.1,0.8,6.5c0,2.9-0.4,5.4-1.1,7.8c-0.1,0.2-0.1,0.4-0.2,0.6c2.2,0.2,3.4,0.4,3.8,0.9c0,0.1,0,0.1,0,0.2
	c0,0.1,0.1,0.1,0.1,0.2c0,0.1,0,0.1,0,0.2C-57.5,411.8-57.5,411.9-57.7,412.1z M-63.3,404.6c-0.2-0.2-0.8-0.2-1.8-0.2
	c-0.3,0-0.6-0.1-0.9-0.3c-0.3-0.2-0.6-0.4-0.9-0.6c-0.7,0.4-1.5,0.7-2.2,1.1c-0.8,0.4-1.4,0.9-1.6,1.3c-0.2,0.5,0.1,1.3,0.6,2.2
	c0.6,1.1,1.4,1.6,2.3,1.6c1.4,0,2.4-0.2,3.1-0.5c0.4-0.2,0.7-0.4,0.8-0.6c0-0.1,0.2-0.5,0.5-1.2C-63.2,405.7-63.2,404.7-63.3,404.6z
	 M-84.1,412.7c-0.3,0-0.6-0.1-1-0.2c-0.3-0.3-0.6-0.6-0.9-0.8c-0.4-0.1-0.7-0.2-1.1-0.3c-0.9-0.4-1.5-0.8-1.8-1.3
	c-0.8-1-1.2-2.9-1.2-5.7c0-2.4,0.2-4.8,0.4-7.2c-0.1-0.2-0.3-0.4-0.6-0.5c-0.3-0.2-0.6-0.3-0.6-0.4c-0.2-0.2-0.4-0.4-0.4-0.8
	c0-0.3,0-0.6,0.1-0.8c0.2-0.3,0.8-0.8,1.9-1.4c0.2-0.4,0.4-1.7,0.8-3.9c0.3-2.2,1-3.4,2-3.6c0.5,0.1,1,0.3,1.3,0.6
	c-0.2,1.1-0.4,2.1-0.5,3.2c-0.2,1-0.3,2.1-0.3,3.2c0.5,0,1.6,0.1,3.4,0.3c1.5,0.2,2.2,0.5,2.1,1c-0.6,0.6-1.6,1.1-2.8,1.2
	c-1.8,0.3-2.9,0.7-3.2,1.4c-0.2,1-0.4,2.4-0.6,4.2c-0.2,4,0,6.4,0.6,7.1c0.5,0.7,1.1,1.3,1.9,1.8c0.4,0.2,0.8,0.3,1.2,0.4
	c1.3,0,2.3-0.4,3-1.2c-1-0.2-1.7-0.8-1.9-1.9c0.1-0.7,0.3-1.2,0.8-1.6c0.4-0.4,0.9-0.6,1.4-0.6c1.7,0.3,2.6,1.3,2.7,3
	c0,0.8-0.3,1.6-0.8,2.5C-79.3,411.6-81.2,412.4-84.1,412.7z M-99.1,406.4c0.2-0.5,0.8-0.7,1.8-0.5c0.6,0.2,0.9,1.3,0.7,3.4
	c0-0.1-0.1,0.3-0.2,1.1c-0.1,0.6-0.5,1.1-1.1,1.7c-0.2,0-0.5-0.2-0.8-0.5l-0.3-0.2c-0.3,0.2-0.5,0.3-0.7,0.3h-3.4
	c-0.1-0.1-0.1-0.2-0.1-0.4c0-0.2-0.1-0.3-0.3-0.3c-0.2,0-0.4,0.1-0.8,0.3c-0.4,0.2-0.7,0.3-0.8,0.3c-0.2,0-0.4-0.1-0.6-0.3
	c-0.2-0.2-0.4-0.3-0.6-0.3c-0.2,0-0.5,0.1-1.2,0.3c-0.6,0.2-1,0.3-1.2,0.3c-0.2,0-0.5-0.1-0.9-0.3c-0.4-0.2-0.7-0.3-1-0.3
	c-0.2-0.3-0.2-0.7,0-1.3c0.8-1.4,2-3.4,3.8-6c2.8-3,4.8-5.7,6.1-8.3c-0.7-0.1-1.4-0.1-2.1,0c-0.6,0.1-1.4,0.2-2.4,0.6
	c-1,0.3-1.8,0.5-2.3,0.5c-0.1,0-0.2,0-0.3,0c0,0.3-0.1,1.1-0.2,2.4c-0.2,0.9-0.5,1.5-1.1,1.7c-0.8,0-1.3-0.5-1.3-1.5
	c-0.1-2.8,0-4.7,0.2-5.7c0.2-0.5,0.8-0.7,1.8-0.5c0.3,0.3,0.4,0.6,0.4,1.1c0.7-0.2,1.5-0.3,2.5-0.4c2-0.2,3.8-0.3,5.4-0.3
	c1.9,0.2,3,0.5,3.4,0.8c0.3,0.6,0.2,1.4-0.3,2.3c-0.8,1-1.8,2.4-3.2,4.2c-0.2,0.2-1.2,1.3-3.2,3.4c-1.2,1.2-2,2.6-2.3,4.2
	c1.5,0.3,3.1,0.5,4.7,0.7c0.9,0.1,1.6,0.3,2.1,0.6C-99.4,408.2-99.3,407.2-99.1,406.4z M-116.2,409.1c-0.1,0.4-0.5,0.8-1.2,1.3
	c-1,0.7-1.4,1-1.5,1.1c-0.4,0.5-0.9,1.1-1.7,1.7c-0.3,0.1-0.7,0.2-1,0.2c-2.9-0.2-4.8-1-5.7-2.4c-0.5-0.9-0.8-1.7-0.8-2.5
	c0.1-1.7,1-2.7,2.7-3c0.5,0,0.9,0.2,1.4,0.6c0.4,0.4,0.7,0.9,0.8,1.6c-0.2,1.1-0.9,1.8-1.9,1.9c0.7,0.7,1.7,1.1,3,1.2
	c1.1-0.2,2-0.7,2.7-1.4c0.9-1.2,1.4-1.9,1.4-2.3c0-0.6-0.4-1.3-1.3-2.2c-0.8-0.7-1.8-1.4-3.1-2c-4.4-1.5-6.6-3.6-6.6-6.3
	c0-1.6,0.8-3,2.5-4.2c1.5-1,3-1.6,4.6-1.6c1,0,1.9,0.2,2.8,0.7c0.1,0.1,0.2,0.2,0.4,0.3c0.1-0.5,0.1-0.8,0.2-1.2
	c0.2-0.5,0.8-0.7,1.8-0.5c0.6,0.2,0.9,1.3,0.7,3.4c0-0.1-0.1,0.8-0.3,2.6c-0.3,1-0.6,1.6-1.1,1.7c-0.2,0-0.5-0.1-0.9-0.2
	c-0.4-0.2-0.5-0.6-0.4-1.3c0-0.7,0-1.3,0-1.8c-0.8-0.6-1.3-1.1-1.5-1.4c-0.2-0.4-0.5-0.5-0.8-0.5c-1.8,0-3.3,0.6-4.5,1.9
	c-0.6,0.6-0.7,1.4-0.6,2.3c0.3,1,1.7,2.1,4.4,3.2c2.7,1.4,4.3,2.5,4.9,3.4c0.6,0.6,1,1.3,1.2,2.1c0.2,0.8,0,1.6-0.5,2.4
	C-116.2,408.1-116.2,408.5-116.2,409.1z M-132.8,410.5c-0.1,0.7-0.9,1-2.6,1c-1.1,0-2,0-2.7-0.1c-0.6,0-1-0.2-1.2-0.5
	c-0.2-0.1-0.2-0.3-0.3-0.5c0.1-0.1,0-0.2,0-0.3c-0.1-0.1,0-0.3,0.1-0.5c0-0.4,0-1,0-1.6c-1.1,1-2.6,1.9-4.2,2.6
	c-0.7,0.2-1.2,0.3-1.6,0.3c-1.7,0-2.9-0.8-3.7-2.3c-0.6-1.1-1-2.5-1-4.2c0-1.3,0.1-3.1,0.3-5.3c0.1-0.9,0.2-1.7,0.3-2.4
	c-0.9,0.1-1.8,0.1-2.8,0c-0.6-0.3-0.8-0.8-0.7-1.4c0.1-0.7,0.9-1,2.6-1c3.5,0.1,5.5,0.4,5.9,0.9c0,0.1,0,0.1,0,0.2
	c0,0.1,0.1,0.1,0.1,0.2c0,0.1,0,0.1,0,0.2c0,0.1-0.1,0.2-0.2,0.3c-0.9,0.2-1.7,0.3-2.6,0.4c-0.1,0.9-0.2,1.8-0.3,2.8
	c-0.1,1.1-0.1,2.4-0.1,4c0,1,0.2,1.9,0.7,2.9c0.6,1.1,1.3,1.7,2.3,1.7c1.7,0,3.2-1.4,4.6-4.3c0.9-1.9,1.5-3.6,1.7-5.1
	c0.1-1,0.2-2.1,0.3-3.4c-1.1-0.2-1.7-0.5-1.8-1.1c0-0.1,0-0.2-0.1-0.3c-0.1-0.1,0-0.3,0.3-0.6c1.5-0.2,3.4-0.4,5.9-0.3
	c0.6,0.3,0.8,0.8,0.7,1.4c-0.1,0.6-0.8,1-2.3,1c0.1,0.2,0.1,0.5,0.1,0.7c-0.8,4.2-1.2,6.7-1.2,7.4c-0.1,1-0.2,2.2-0.2,3.6
	c0,1.1,0,1.9,0,2.2c0.9,0,1.9,0,3,0C-133,409.5-132.7,409.9-132.8,410.5z M-158.5,398.8c-0.5,0.3-1.2,1-2,1.9
	c-0.8,0.9-1.4,1.5-1.9,1.7c-0.8,0.4-2.5,1-5.1,1.9c-2.2,0.8-3.3,1.3-3.3,1.4c-0.1,0.3,0,0.7,0.1,1.2c0.4,1.2,0.6,2.3,0.6,3.2v0.1
	c2.4,0,3.6,0.2,3.7,0.6c0.1,0.6-0.1,1.1-0.6,1.5c-2.7,0.1-4.7,0.1-5.9,0.1c-1,0-2-0.1-3-0.3c-0.4-0.1-0.6-0.2-0.7-0.3
	s-0.1-0.2-0.1-0.3c0-0.1,0.1-0.2,0.2-0.3c0.1-0.1,0.2-0.2,0.3-0.3c0.8-0.3,1.7-0.5,2.7-0.7h0.1c-0.2-0.5-0.3-1-0.4-1.7
	c-0.1-0.9-0.4-2.2-0.7-3.8c-0.2-0.1-0.4-0.2-0.6-0.3c-0.4-0.3-0.6-0.6-0.6-1c0.4-0.8,0.6-1.4,0.6-1.8c0-0.5-0.1-1.3-0.3-2.4
	c-0.2-1.1-0.3-1.7-0.3-1.9c0-3.8,0.1-6.3,0.3-7.6l0.6-3.7c-0.8,0-1.8,0-3-0.1c-0.6-0.3-0.7-0.7-0.5-1.2c0.3-0.7,1.7-1.2,4.3-1.3
	c1.6-0.1,3.4-0.2,5.3-0.2c5.4,0,9.4,1.5,11.9,4.5c0.4,0.5,0.8,1.1,1.1,1.9c0.3,0.8,0.5,1.4,0.5,1.9c0,0.5-0.4,1.6-1.1,3.3
	C-157,396.9-157.7,398.1-158.5,398.8z M-161.8,387.7c-2.2-1.4-4.3-2-6.1-2c-0.2,0-0.7,0-1.7,0.1c-1,0-1.9,0.1-2.6,0.2
	c-0.2,1-0.3,2.3-0.3,3.8c0,2,0.1,4.3,0.4,7.1c0.4,3.8,0.8,5.6,1.4,5.7c2.3,0.1,4.8-0.8,7.5-2.5c1.1-0.7,2.3-1.9,3.4-3.5
	c1.1-1.6,1.7-2.9,1.7-3.8C-158.2,391-159.4,389.3-161.8,387.7z"/>
</svg>
